<svg width="18" height="18" viewBox="0 0 18 18" fill="none" xmlns="http://www.w3.org/2000/svg">
<path d="M13.5 14.1451H12.93C12.33 14.1451 11.76 14.3775 11.34 14.7975L10.0575 16.0651C9.4725 16.6426 8.52 16.6426 7.935 16.0651L6.6525 14.7975C6.2325 14.3775 5.655 14.1451 5.0625 14.1451H4.5C3.255 14.1451 2.25 13.1476 2.25 11.9176V3.73505C2.25 2.50505 3.255 1.50757 4.5 1.50757H13.5C14.745 1.50757 15.75 2.50505 15.75 3.73505V11.9176C15.75 13.1401 14.745 14.1451 13.5 14.1451Z" stroke="white" stroke-width="0.7" stroke-miterlimit="10" stroke-linecap="round" stroke-linejoin="round"/>
<path d="M5.25 6.87009C5.25 6.17259 5.82 5.60254 6.5175 5.60254C7.215 5.60254 7.785 6.17259 7.785 6.87009C7.785 8.28009 5.7825 8.43008 5.34 9.77258C5.25 10.0501 5.4825 10.3276 5.775 10.3276H7.785" stroke="white" stroke-width="0.7" stroke-linecap="round" stroke-linejoin="round"/>
<path d="M12.0298 10.32V6.03755C12.0298 5.84255 11.9023 5.67001 11.7148 5.61751C11.5273 5.56501 11.3248 5.64001 11.2198 5.80501C10.6798 6.67501 10.0948 7.66502 9.58482 8.53502C9.50232 8.67752 9.50232 8.86502 9.58482 9.00752C9.66732 9.15002 9.82483 9.23998 9.99733 9.23998H12.7498" stroke="white" stroke-width="0.7" stroke-linecap="round" stroke-linejoin="round"/>
</svg>
