<svg width="19" height="19" viewBox="0 0 19 19" fill="none" xmlns="http://www.w3.org/2000/svg">
<path d="M17.9974 14.8952C17.9974 15.202 17.9292 15.5173 17.7844 15.8241C17.6395 16.1309 17.452 16.4207 17.2048 16.6935C16.7872 17.1537 16.327 17.4861 15.8071 17.6991C15.2957 17.9122 14.7417 18.023 14.1452 18.023C13.2758 18.023 12.3469 17.8185 11.3667 17.4008C10.3866 16.9832 9.40652 16.4207 8.43493 15.7133C7.45481 14.9974 6.52583 14.2048 5.63947 13.327C4.76163 12.4406 3.96902 11.5116 3.26163 10.54C2.56277 9.56845 2.00027 8.59686 1.59118 7.63379C1.18208 6.6622 0.977539 5.73322 0.977539 4.84686C0.977539 4.26731 1.07981 3.71333 1.28436 3.20197C1.4889 2.68208 1.81277 2.20481 2.26447 1.77868C2.80993 1.24174 3.40652 0.977539 4.0372 0.977539C4.27583 0.977539 4.51447 1.02868 4.72754 1.13095C4.94913 1.23322 5.14515 1.38663 5.29856 1.60822L7.27583 4.39515C7.42924 4.60822 7.54004 4.80424 7.61674 4.99174C7.69345 5.17072 7.73606 5.3497 7.73606 5.51163C7.73606 5.71618 7.6764 5.92072 7.55708 6.11674C7.44629 6.31277 7.28436 6.51731 7.07981 6.72186L6.43208 7.39515C6.33833 7.4889 6.29572 7.5997 6.29572 7.73606C6.29572 7.80424 6.30424 7.8639 6.32129 7.93209C6.34686 8.00027 6.37243 8.0514 6.38947 8.10254C6.54288 8.38379 6.80708 8.75027 7.18208 9.19345C7.56561 9.63663 7.9747 10.0883 8.41788 10.54C8.87811 10.9917 9.32129 11.4094 9.77299 11.7929C10.2162 12.1679 10.5827 12.4236 10.8724 12.577C10.915 12.594 10.9662 12.6196 11.0258 12.6452C11.094 12.6707 11.1622 12.6792 11.2389 12.6792C11.3838 12.6792 11.4946 12.6281 11.5883 12.5344L12.2361 11.8952C12.4491 11.6821 12.6537 11.5202 12.8497 11.4179C13.0457 11.2986 13.2417 11.2389 13.4548 11.2389C13.6167 11.2389 13.7872 11.273 13.9747 11.3497C14.1622 11.4264 14.3582 11.5372 14.5713 11.6821L17.3923 13.6849C17.6139 13.8383 17.7673 14.0173 17.8611 14.2304C17.9463 14.4434 17.9974 14.6565 17.9974 14.8952Z" stroke="white" stroke-miterlimit="10"/>
</svg>
