<svg width="33" height="34" viewBox="0 0 33 34" fill="none" xmlns="http://www.w3.org/2000/svg">
<path d="M5.19943 20.4569C4.95644 20.2139 4.76071 19.9102 4.63246 19.5524C4.50422 19.1947 4.42322 18.8167 4.40297 18.405C4.36922 17.7098 4.47047 17.082 4.71346 16.5016C4.94969 15.9279 5.30068 15.4014 5.77315 14.9289C6.46162 14.2404 7.35932 13.6667 8.46626 13.2212C9.57321 12.7758 10.7949 12.445 12.1246 12.2358C13.4678 12.0266 14.8312 11.9186 16.2284 11.9118C17.6255 11.9186 18.989 12.0266 20.3187 12.2358C21.6416 12.4518 22.8565 12.7758 23.9432 13.2145C25.0367 13.66 25.9344 14.2337 26.6363 14.9357C27.0953 15.3946 27.453 15.9144 27.696 16.4813C27.9458 17.055 28.0673 17.6895 28.047 18.3847C28.0403 19.2419 27.777 19.9237 27.2776 20.4231C27.0886 20.6121 26.8591 20.7606 26.6093 20.8484C26.3529 20.9428 26.0761 20.9766 25.7791 20.9226L22.0061 20.2814C21.7158 20.2341 21.4729 20.1666 21.2636 20.0789C21.0611 19.9979 20.8856 19.8899 20.7574 19.7617C20.5954 19.5997 20.4807 19.3904 20.4199 19.1407C20.3524 18.8977 20.3187 18.6075 20.3187 18.2835L20.2984 17.2373C20.2984 17.0888 20.2444 16.9673 20.1364 16.8593C20.0824 16.8053 20.0284 16.7648 19.9609 16.7243C19.8867 16.6906 19.8259 16.6703 19.7719 16.6433C19.4277 16.5421 18.9282 16.4611 18.2803 16.4071C17.6255 16.3598 16.9438 16.3261 16.2351 16.3193C15.5129 16.3261 14.8312 16.3463 14.1697 16.4003C13.5218 16.4543 13.029 16.5421 12.6781 16.6501C12.6308 16.6703 12.5701 16.6906 12.5026 16.7176C12.4283 16.7513 12.3676 16.7986 12.3068 16.8593C12.1921 16.9741 12.1448 17.1023 12.1448 17.2508L12.1381 18.27C12.1381 18.6075 12.1043 18.8977 12.0301 19.1339C11.9693 19.3837 11.8613 19.5862 11.6926 19.7549C11.5644 19.8832 11.4024 19.9911 11.1931 20.0789C10.9839 20.1666 10.7409 20.2341 10.4574 20.2881L6.63711 20.9361C6.34012 20.9901 6.07689 20.9698 5.8339 20.8754C5.59766 20.7741 5.38842 20.6459 5.19943 20.4569Z" fill="white"/>
</svg>
