<svg width="20" height="20" viewBox="0 0 20 20" fill="none" xmlns="http://www.w3.org/2000/svg">
<path d="M13.7668 4.70898L11.1834 2.70898C10.8501 2.37565 10.1001 2.20898 9.6001 2.20898H6.43344C5.43344 2.20898 4.3501 2.95898 4.1001 3.95898L2.1001 10.0423C1.68344 11.209 2.43344 12.209 3.68344 12.209H7.01677C7.51677 12.209 7.93344 12.6257 7.8501 13.209L7.43344 15.8757C7.26677 16.6257 7.76677 17.459 8.51677 17.709C9.18344 17.959 10.0168 17.6257 10.3501 17.1257L13.7668 12.0423" fill="#D5602E"/>
<path d="M13.7668 4.70898L11.1834 2.70898C10.8501 2.37565 10.1001 2.20898 9.6001 2.20898H6.43344C5.43344 2.20898 4.3501 2.95898 4.1001 3.95898L2.1001 10.0423C1.68344 11.209 2.43344 12.209 3.68344 12.209H7.01677C7.51677 12.209 7.93344 12.6257 7.8501 13.209L7.43344 15.8757C7.26677 16.6257 7.76677 17.459 8.51677 17.709C9.18344 17.959 10.0168 17.6257 10.3501 17.1257L13.7668 12.0423" stroke="#DADADA" stroke-width="0.3" stroke-miterlimit="10"/>
<path d="M18.0163 4.70833V12.875C18.0163 14.0417 17.5163 14.4583 16.3496 14.4583H15.5163C14.3496 14.4583 13.8496 14.0417 13.8496 12.875V4.70833C13.8496 3.54167 14.3496 3.125 15.5163 3.125H16.3496C17.5163 3.125 18.0163 3.54167 18.0163 4.70833Z" fill="#D5602E" stroke="#DADADA" stroke-width="0.3" stroke-linecap="round" stroke-linejoin="round"/>
</svg>
