<svg width="104" height="95" viewBox="0 0 104 95" fill="none" xmlns="http://www.w3.org/2000/svg">
<path d="M4.80039 43.5996V41.5996H4.40039V43.5996H4.80039Z" fill="#C70000"/>
<path d="M8.40059 39.1992L5.00059 42.5992L8.40059 45.9992H5.50059L2.10059 42.5992L5.50059 39.1992H8.40059Z" fill="#C70000"/>
<path d="M57.2002 85.1992V87.6992C52.8002 89.6992 49.3002 92.0992 46.6002 94.7992H0.700195C17.1002 87.3992 21.7002 74.6992 16.3002 53.6992C18.2002 60.6992 21.8002 67.1992 27.3002 72.6992C35.6002 80.9992 46.4002 85.1992 57.2002 85.1992Z" fill="#8C0000"/>
<path d="M57.1998 77.4004V85.3004C46.3998 85.2004 35.5998 81.0004 27.3998 72.8004C21.8998 67.3004 18.2998 60.8004 16.3998 53.8004C16.3998 53.7004 16.2998 53.6004 16.2998 53.4004L24.4998 58.2004L57.1998 77.4004Z" fill="#8C0000"/>
<path d="M57.2006 0V85.2C46.4006 85.2 35.6006 81 27.4006 72.8C21.9006 67.3 18.3006 60.8 16.4006 53.8C16.4006 53.7 16.3006 53.6 16.3006 53.4C12.6006 39.2 16.3006 23.6 27.4006 12.5C35.6006 4.2 46.4006 0.1 57.2006 0Z" fill="#8C0000"/>
<g filter="url(#filter0_di_622_6272)">
<path d="M21 42.6C21 62.8 37.4 79.2 57.6 79.2C77.8 79.2 94.2 62.8 94.2 42.6C94.2 22.4 77.8 6 57.6 6C37.3 6.1 21 22.4 21 42.6Z" fill="#3E3E3E"/>
</g>
<g filter="url(#filter1_d_622_6272)">
<path d="M58.2005 45.5003C58.2005 46.2003 58.1005 46.9003 58.1005 47.5003C58.0005 49.2003 57.9005 51.0003 57.8005 52.7003C57.8005 53.0003 57.7005 53.3003 57.6005 53.5003C57.3005 54.1003 56.6005 54.4003 55.9005 54.3003C55.2005 54.1003 54.7005 53.6003 54.7005 52.9003C54.8005 51.4003 54.8005 50.0003 54.9005 48.5003C55.0005 47.3003 55.0005 46.2003 55.1005 45.0003C55.1005 44.9003 55.1005 44.9003 55.1005 44.7003C55.1005 44.8003 55.0005 44.8003 55.0005 44.9003C54.6005 45.6003 53.7005 45.7003 53.2005 45.0003C52.7005 44.2003 52.1005 43.4003 51.6005 42.7003C51.3005 42.3003 51.1005 41.9003 50.8005 41.6003C50.4005 41.1003 50.5005 40.5003 50.9005 40.2003C51.5005 39.6003 52.1005 39.1003 52.8005 38.5003C53.8005 37.7003 54.9005 37.1003 56.2005 36.7003C57.1005 36.4003 58.1005 36.4003 59.0005 36.5003C60.3005 36.7003 61.4005 36.3003 62.4005 35.4003C62.4005 35.4003 62.4005 35.4003 62.4005 35.3003C62.1005 34.9003 61.7005 34.5003 61.4005 34.0003C60.8005 33.3003 60.3005 32.6003 59.7005 32.0003C59.3005 31.5003 59.4005 30.9003 59.8005 30.6003C60.3005 30.2003 60.9005 30.3003 61.3005 30.8003C62.4005 32.1003 63.5005 33.4003 64.5005 34.7003C64.8005 35.1003 64.8005 35.6003 64.5005 36.0003C63.5005 37.3003 62.3005 38.5003 60.9005 39.3003C60.8005 39.4003 60.7005 39.5003 60.7005 39.6003C60.8005 40.9003 60.8005 42.3003 61.0005 43.6003C61.1005 44.6003 61.3005 45.6003 61.5005 46.5003C61.8005 48.5003 62.2005 50.5003 62.5005 52.5003C62.6005 53.1003 62.4005 53.6003 61.9005 54.0003C61.4005 54.3003 60.9005 54.4003 60.3005 54.1003C59.8005 53.9003 59.5005 53.5003 59.4005 53.0003C59.0005 50.5003 58.6005 48.0003 58.1005 45.5003C58.3005 45.6003 58.3005 45.6003 58.2005 45.5003ZM53.0005 41.1003C53.7005 42.2003 54.5005 43.3003 55.2005 44.3003C55.3005 42.7003 55.3005 41.0003 55.4005 39.3003C54.6005 40.0003 53.8005 40.5003 53.0005 41.1003Z" fill="white"/>
<path d="M58.1004 31.1016H58.2004C58.6004 31.1016 58.6004 31.1016 58.6004 31.5016C58.6004 31.9016 58.8004 32.2016 59.0004 32.5016C59.2004 32.8016 59.4004 33.0016 59.6004 33.3016C59.7004 33.4016 59.7004 33.6016 59.6004 33.7016C59.1004 34.5016 58.2004 34.9016 57.3004 34.6016C56.4004 34.3016 55.9004 33.5016 56.1004 32.6016C56.4004 31.7016 57.1004 31.1016 58.1004 31.1016Z" fill="white"/>
<path d="M52.5004 33.3007C52.5004 33.2007 52.5004 33.0007 52.5004 32.9007C52.5004 32.5007 52.7004 32.2007 53.2004 32.0007C53.3004 31.9007 53.5004 31.9007 53.6004 31.8007C54.1004 31.5007 54.3004 31.0007 54.2004 30.4007C54.0004 29.9007 53.5004 29.5007 53.0004 29.6007C52.4004 29.6007 51.9004 30.0007 51.8004 30.6007C51.8004 30.7007 51.8004 30.7007 51.8004 30.8007C51.8004 31.1007 51.6004 31.2007 51.3004 31.2007C51.1004 31.2007 50.9004 31.0007 50.9004 30.7007C50.9004 30.1007 51.2004 29.5007 51.7004 29.2007C52.4004 28.7007 53.2004 28.6007 54.0004 29.0007C54.8004 29.4007 55.2004 30.1007 55.1004 31.0007C55.0004 31.9007 54.6004 32.4007 53.7004 32.7007C53.5004 32.8007 53.4004 32.9007 53.4004 33.1007C53.4004 33.3007 53.4004 33.5007 53.4004 33.8007C53.4004 34.1007 53.2004 34.2007 53.0004 34.2007C52.7004 34.2007 52.6004 34.0007 52.6004 33.8007C52.5004 33.6007 52.5004 33.4007 52.5004 33.3007Z" fill="white"/>
<path d="M52.501 35.5004C52.501 35.4004 52.501 35.3004 52.501 35.3004C52.501 35.1004 52.701 34.9004 52.901 34.9004C53.101 34.9004 53.301 35.1004 53.301 35.3004C53.301 35.5004 53.301 35.6004 53.301 35.8004C53.301 36.0004 53.101 36.2004 52.901 36.2004C52.701 36.2004 52.501 36.0004 52.501 35.8004C52.501 35.7004 52.501 35.6004 52.501 35.5004Z" fill="white"/>
</g>
<defs>
<filter id="filter0_di_622_6272" x="14.6897" y="2.11676" width="88.7331" height="88.7322" filterUnits="userSpaceOnUse" color-interpolation-filters="sRGB">
<feFlood flood-opacity="0" result="BackgroundImageFix"/>
<feColorMatrix in="SourceAlpha" type="matrix" values="0 0 0 0 0 0 0 0 0 0 0 0 0 0 0 0 0 0 127 0" result="hardAlpha"/>
<feOffset dx="1.45621" dy="3.88324"/>
<feGaussianBlur stdDeviation="3.88324"/>
<feComposite in2="hardAlpha" operator="out"/>
<feColorMatrix type="matrix" values="0 0 0 0 0 0 0 0 0 0 0 0 0 0 0 0 0 0 0.25 0"/>
<feBlend mode="normal" in2="BackgroundImageFix" result="effect1_dropShadow_622_6272"/>
<feBlend mode="normal" in="SourceGraphic" in2="effect1_dropShadow_622_6272" result="shape"/>
<feColorMatrix in="SourceAlpha" type="matrix" values="0 0 0 0 0 0 0 0 0 0 0 0 0 0 0 0 0 0 127 0" result="hardAlpha"/>
<feOffset/>
<feGaussianBlur stdDeviation="15.0475"/>
<feComposite in2="hardAlpha" operator="arithmetic" k2="-1" k3="1"/>
<feColorMatrix type="matrix" values="0 0 0 0 0 0 0 0 0 0 0 0 0 0 0 0 0 0 0.35 0"/>
<feBlend mode="normal" in2="shape" result="effect2_innerShadow_622_6272"/>
</filter>
<filter id="filter1_d_622_6272" x="48.261" y="26.469" width="18.7494" height="30.1342" filterUnits="userSpaceOnUse" color-interpolation-filters="sRGB">
<feFlood flood-opacity="0" result="BackgroundImageFix"/>
<feColorMatrix in="SourceAlpha" type="matrix" values="0 0 0 0 0 0 0 0 0 0 0 0 0 0 0 0 0 0 127 0" result="hardAlpha"/>
<feOffset/>
<feGaussianBlur stdDeviation="1.14244"/>
<feComposite in2="hardAlpha" operator="out"/>
<feColorMatrix type="matrix" values="0 0 0 0 1 0 0 0 0 1 0 0 0 0 1 0 0 0 0.48 0"/>
<feBlend mode="normal" in2="BackgroundImageFix" result="effect1_dropShadow_622_6272"/>
<feBlend mode="normal" in="SourceGraphic" in2="effect1_dropShadow_622_6272" result="shape"/>
</filter>
</defs>
</svg>
