<svg width="101" height="98" viewBox="0 0 101 98" fill="none" xmlns="http://www.w3.org/2000/svg">
<path d="M96.3004 46.9004V44.9004H95.9004V46.9004H96.3004Z" fill="#C70000"/>
<path d="M92.2998 49.3L95.6998 45.9L92.2998 42.5H95.1998L98.5998 45.9L95.1998 49.3H92.2998Z" fill="#C70000"/>
<path d="M100.2 97.9996H54.5C51.7 95.1996 48 92.7996 43.5 90.7996V88.5996C54.4 88.5996 65.3 84.3996 73.7 76.0996C79.2 70.5996 82.8 64.0996 84.7 57.0996C79.4 77.8996 83.9 90.4996 100.2 97.9996Z" fill="#6A0707"/>
<path d="M73.7 75.9996C65.4 84.2996 54.4 88.4996 43.5 88.4996V80.8996L76.7 61.3996L84.9 56.5996C84.9 56.7996 84.8 56.8996 84.8 57.0996C82.8 63.9996 79.2 70.5996 73.7 75.9996Z" fill="#6A0707"/>
<path d="M89.6 0.900391C82.2 8.50039 80.8 19.4004 84.7 34.8004C84.7 34.9004 84.8 35.0004 84.8 35.2004L76.6 30.4004L43.5 11.0004V1.00039C43.6 1.00039 43.7 0.900391 43.7 0.900391H89.6Z" fill="#8C0000"/>
<path d="M84.8 56.6008C84.8 56.8008 84.7 56.9008 84.7 57.1008C82.8 64.1008 79.2 70.6008 73.7 76.1008C65.4 84.4008 54.4 88.6008 43.5 88.6008V3.30078C54.4 3.30078 65.4 7.40078 73.7 15.8008C79.2 21.3008 82.8 27.8008 84.7 34.8008C84.7 34.9008 84.8 35.0008 84.8 35.2008C86.6 42.1008 86.6 49.5008 84.8 56.6008Z" fill="#6A0707"/>
<g filter="url(#filter0_di_622_6286)">
<path d="M7 45.9008C7 66.1008 23.4 82.5008 43.6 82.5008C63.8 82.5008 80.2 66.1008 80.2 45.9008C80.2 25.7008 63.8 9.30078 43.6 9.30078C23.4 9.30078 7 25.7008 7 45.9008Z" fill="#3E3E3E"/>
</g>
<g filter="url(#filter1_d_622_6286)">
<path d="M48.9004 39.4004C48.9004 39.3004 48.9004 39.2004 48.9004 39.2004C48.8004 38.8004 48.6004 38.6004 48.3004 38.5004C48.2004 38.5004 48.0004 38.4004 47.9004 38.4004C42.9004 38.4004 38.0004 38.4004 33.0004 38.4004C32.9004 38.4004 32.9004 38.4004 32.8004 38.4004C32.3004 38.4004 31.9004 38.8004 31.9004 39.3004C31.9004 43.4004 31.9004 47.4004 31.9004 51.5004C31.9004 51.9004 32.2004 52.2004 32.5004 52.3004C32.7004 52.4004 32.9004 52.3004 33.2004 52.3004C33.8004 52.3004 34.1004 52.6004 34.1004 53.2004C34.1004 53.9004 34.1004 54.6004 34.1004 55.2004V55.4004C34.2004 55.4004 34.3004 55.3004 34.3004 55.3004C36.0004 54.3004 37.7004 53.4004 39.3004 52.4004C39.5004 52.3004 39.7004 52.2004 39.9004 52.2004C42.5004 52.2004 45.0004 52.2004 47.6004 52.2004C47.7004 52.2004 47.8004 52.2004 47.8004 52.2004C48.2004 52.2004 48.4004 52.0004 48.6004 51.7004C48.7004 51.6004 48.7004 51.4004 48.7004 51.2004C48.9004 47.4004 48.9004 43.4004 48.9004 39.4004ZM44.2004 47.2004C44.0004 47.8004 43.6004 48.1004 43.0004 48.2004C42.4004 48.3004 41.9004 48.2004 41.3004 48.0004C40.3004 47.7004 39.5004 47.2004 38.7004 46.5004C38.0004 45.9004 37.4004 45.2004 37.0004 44.4004C36.8004 43.9004 36.6004 43.5004 36.6004 43.0004C36.6004 42.4004 36.8004 41.9004 37.4004 41.6004C37.7004 41.4004 38.1004 41.5004 38.4004 41.7004C38.7004 42.0004 39.0004 42.4004 39.3004 42.7004C39.6004 43.0004 39.5004 43.5004 39.2004 43.8004C39.1004 43.9004 39.0004 44.0004 38.8004 44.1004C39.6004 45.0004 40.4004 45.7004 41.4004 46.2004C41.5004 46.1004 41.5004 46.0004 41.6004 45.9004C41.8004 45.4004 42.3004 45.3004 42.8004 45.5004C43.2004 45.7004 43.5004 45.9004 43.9004 46.1004C44.2004 46.4004 44.3004 46.8004 44.2004 47.2004Z" fill="white"/>
</g>
<g filter="url(#filter2_d_622_6286)">
<path d="M55.7 45.4012C55.7 47.3012 55.7 49.1012 55.7 51.0012V51.1012C55.7 51.3012 55.7 51.3012 55.5 51.2012C55.1 51.0012 54.7 50.7012 54.3 50.5012C53.1 49.8012 51.9 49.1012 50.7 48.4012C50.6 48.3012 50.5 48.3012 50.5 48.1012C50.5 46.2012 50.5 44.4012 50.5 42.5012C50.5 42.4012 50.5 42.3012 50.6 42.2012C52.2 41.3012 53.8 40.4012 55.3 39.5012C55.5 39.4012 55.5 39.4012 55.5 39.6012C55.7 41.6012 55.7 43.5012 55.7 45.4012Z" fill="white"/>
</g>
<defs>
<filter id="filter0_di_622_6286" x="0.68974" y="5.41754" width="88.7331" height="88.7322" filterUnits="userSpaceOnUse" color-interpolation-filters="sRGB">
<feFlood flood-opacity="0" result="BackgroundImageFix"/>
<feColorMatrix in="SourceAlpha" type="matrix" values="0 0 0 0 0 0 0 0 0 0 0 0 0 0 0 0 0 0 127 0" result="hardAlpha"/>
<feOffset dx="1.45621" dy="3.88324"/>
<feGaussianBlur stdDeviation="3.88324"/>
<feComposite in2="hardAlpha" operator="out"/>
<feColorMatrix type="matrix" values="0 0 0 0 0 0 0 0 0 0 0 0 0 0 0 0 0 0 0.25 0"/>
<feBlend mode="normal" in2="BackgroundImageFix" result="effect1_dropShadow_622_6286"/>
<feBlend mode="normal" in="SourceGraphic" in2="effect1_dropShadow_622_6286" result="shape"/>
<feColorMatrix in="SourceAlpha" type="matrix" values="0 0 0 0 0 0 0 0 0 0 0 0 0 0 0 0 0 0 127 0" result="hardAlpha"/>
<feOffset/>
<feGaussianBlur stdDeviation="15.0475"/>
<feComposite in2="hardAlpha" operator="arithmetic" k2="-1" k3="1"/>
<feColorMatrix type="matrix" values="0 0 0 0 0 0 0 0 0 0 0 0 0 0 0 0 0 0 0.35 0"/>
<feBlend mode="normal" in2="shape" result="effect2_innerShadow_622_6286"/>
</filter>
<filter id="filter1_d_622_6286" x="29.6155" y="36.1155" width="21.5697" height="21.5697" filterUnits="userSpaceOnUse" color-interpolation-filters="sRGB">
<feFlood flood-opacity="0" result="BackgroundImageFix"/>
<feColorMatrix in="SourceAlpha" type="matrix" values="0 0 0 0 0 0 0 0 0 0 0 0 0 0 0 0 0 0 127 0" result="hardAlpha"/>
<feOffset/>
<feGaussianBlur stdDeviation="1.14244"/>
<feComposite in2="hardAlpha" operator="out"/>
<feColorMatrix type="matrix" values="0 0 0 0 1 0 0 0 0 1 0 0 0 0 1 0 0 0 0.48 0"/>
<feBlend mode="normal" in2="BackgroundImageFix" result="effect1_dropShadow_622_6286"/>
<feBlend mode="normal" in="SourceGraphic" in2="effect1_dropShadow_622_6286" result="shape"/>
</filter>
<filter id="filter2_d_622_6286" x="48.2151" y="37.1507" width="9.76994" height="16.4018" filterUnits="userSpaceOnUse" color-interpolation-filters="sRGB">
<feFlood flood-opacity="0" result="BackgroundImageFix"/>
<feColorMatrix in="SourceAlpha" type="matrix" values="0 0 0 0 0 0 0 0 0 0 0 0 0 0 0 0 0 0 127 0" result="hardAlpha"/>
<feOffset/>
<feGaussianBlur stdDeviation="1.14244"/>
<feComposite in2="hardAlpha" operator="out"/>
<feColorMatrix type="matrix" values="0 0 0 0 1 0 0 0 0 1 0 0 0 0 1 0 0 0 0.48 0"/>
<feBlend mode="normal" in2="BackgroundImageFix" result="effect1_dropShadow_622_6286"/>
<feBlend mode="normal" in="SourceGraphic" in2="effect1_dropShadow_622_6286" result="shape"/>
</filter>
</defs>
</svg>
