<svg width="104" height="98" viewBox="0 0 104 98" fill="none" xmlns="http://www.w3.org/2000/svg">
<path d="M4.80039 46.0996V44.0996H4.40039V46.0996H4.80039Z" fill="#C70000"/>
<path d="M8.39961 41.6992L4.99961 45.0992L8.39961 48.4992H5.49961L2.09961 45.0992L5.49961 41.6992H8.39961Z" fill="#C70000"/>
<path d="M57.2 87.8008V90.4008C52.9 92.4008 49.4 94.8008 46.7 97.6008H0.5C17.3 90.2008 22.1 77.5008 16.7 56.3008C18.6 63.2008 22.2 69.8008 27.7 75.3008C35.8 83.4008 46.5 87.6008 57.2 87.8008Z" fill="#8C0000"/>
<path d="M57.1996 79.7004V87.8004C46.4996 87.6004 35.8996 83.5004 27.6996 75.3004C22.1996 69.8004 18.5996 63.3004 16.6996 56.3004C16.6996 56.2004 16.5996 56.0004 16.5996 55.9004L24.7996 60.7004L57.1996 79.7004Z" fill="#8C0000"/>
<path d="M57.2 0V10.6L24.7 29.7L16.6 34.5C16.6 34.3 16.7 34.2 16.7 34C20.6 18.5 19.1 7.6 11.5 0H57.2Z" fill="#6A0707"/>
<path d="M57.2 2.5V87.8C46.5 87.6 35.9 83.5 27.7 75.3C22.2 69.8 18.6 63.3 16.7 56.3C16.7 56.2 16.6 56 16.6 55.9C14.8 48.9 14.8 41.5 16.6 34.4C16.6 34.2 16.7 34.1 16.7 33.9C18.6 27 22.3 20.4 27.7 14.9C35.8 6.79999 46.5 2.7 57.2 2.5Z" fill="#8C0000"/>
<g filter="url(#filter0_di_622_6299)">
<path d="M21.2998 45.1C21.2998 65.3 37.6998 81.7 57.8998 81.7C78.0998 81.7 94.4998 65.3 94.4998 45.1C94.4998 24.9 78.0998 8.5 57.8998 8.5C37.5998 8.6 21.2998 24.9 21.2998 45.1Z" fill="#3E3E3E"/>
</g>
<g filter="url(#filter1_d_622_6299)">
<path d="M66.9004 39.0008C66.9004 38.7008 66.8004 38.4008 66.6004 38.2008C66.3004 37.9008 66.0004 37.8008 65.6004 37.8008C60.8004 37.8008 56.0004 37.8008 51.2004 37.8008C50.2004 37.8008 49.2004 37.8008 48.2004 37.8008C48.0004 37.8008 47.9004 37.8008 47.7004 37.9008C47.2004 38.1008 46.9004 38.5008 46.9004 39.1008C46.9004 43.3008 46.9004 47.5008 46.9004 51.7008C46.9004 52.5008 47.4004 53.0008 48.2004 53.0008C52.0004 53.0008 55.8004 53.0008 59.7004 53.0008H59.9004C59.9004 52.9008 59.9004 52.9008 59.8004 52.9008C59.3004 51.7008 59.2004 50.5008 59.5004 49.2008C59.9004 47.8008 60.7004 46.7008 61.9004 46.0008C62.7004 45.5008 63.5004 45.2008 64.4004 45.1008C64.5004 45.1008 64.5004 45.1008 64.5004 44.9008C64.5004 44.5008 64.5004 44.0008 64.5004 43.6008C64.5004 43.5008 64.5004 43.5008 64.5004 43.4008C65.0004 43.4008 65.5004 43.4008 66.0004 43.4008C66.1004 43.4008 66.1004 43.5008 66.1004 43.5008C66.1004 43.9008 66.1004 44.4008 66.1004 44.8008C66.1004 44.9008 66.1004 44.9008 66.0004 44.9008C65.9004 44.9008 65.7004 44.9008 65.6004 44.9008C66.1004 45.0008 66.5004 45.1008 67.0004 45.2008V45.1008C66.9004 43.1008 66.9004 41.0008 66.9004 39.0008ZM47.7004 39.0008C47.7004 38.7008 47.9004 38.6008 48.1004 38.6008C48.5004 38.6008 48.9004 38.6008 49.3004 38.6008V38.8008C49.3004 39.2008 49.3004 39.6008 49.3004 40.0008C49.3004 40.1008 49.3004 40.1008 49.2004 40.1008C48.7004 40.1008 48.3004 40.1008 47.8004 40.1008C47.7004 40.1008 47.7004 40.1008 47.7004 40.0008C47.7004 39.7008 47.7004 39.3008 47.7004 39.0008ZM49.2004 43.3008C49.3004 43.3008 49.3004 43.4008 49.2004 43.3008C49.3004 43.9008 49.3004 44.3008 49.3004 44.8008L49.2004 44.9008C48.7004 44.9008 48.3004 44.9008 47.8004 44.9008C47.8004 44.9008 47.7004 44.9008 47.7004 44.8008C47.7004 44.3008 47.7004 43.8008 47.7004 43.3008C48.3004 43.3008 48.7004 43.3008 49.2004 43.3008ZM47.7004 42.5008V41.0008H49.3004C49.3004 41.0008 49.3004 41.0008 49.3004 41.1008C49.3004 41.6008 49.3004 42.0008 49.3004 42.5008C49.3004 42.6008 49.3004 42.6008 49.2004 42.6008C48.8004 42.5008 48.3004 42.5008 47.7004 42.5008ZM49.3004 47.2008C49.3004 47.3008 49.3004 47.3008 49.2004 47.3008C48.7004 47.3008 48.2004 47.3008 47.8004 47.3008C47.8004 47.3008 47.8004 47.3008 47.7004 47.3008V45.7008H49.3004C49.3004 46.0008 49.3004 46.2008 49.3004 46.5008C49.3004 46.8008 49.3004 47.0008 49.3004 47.2008ZM47.7004 48.1008H49.3004V48.2008C49.3004 48.7008 49.3004 49.1008 49.3004 49.6008C49.3004 49.7008 49.3004 49.7008 49.2004 49.7008C48.7004 49.7008 48.3004 49.7008 47.8004 49.7008C47.8004 49.7008 47.8004 49.7008 47.7004 49.7008V48.1008ZM49.2004 52.1008C48.9004 52.1008 48.5004 52.1008 48.2004 52.1008C47.9004 52.1008 47.8004 51.9008 47.8004 51.7008C47.8004 51.3008 47.8004 50.9008 47.8004 50.5008H49.4004V50.6008C49.4004 51.0008 49.4004 51.5008 49.4004 51.9008C49.3004 52.1008 49.3004 52.1008 49.2004 52.1008ZM59.4004 45.5008L55.1004 48.0008C54.7004 48.2008 54.1004 47.9008 54.1004 47.4008V42.4008C54.1004 41.9008 54.6004 41.6008 55.1004 41.8008L59.4004 44.3008C59.8004 44.6008 59.8004 45.2008 59.4004 45.5008ZM64.5004 38.6008H64.6004C64.9004 38.6008 65.3004 38.6008 65.6004 38.6008C65.9004 38.6008 66.0004 38.8008 66.0004 39.0008C66.0004 39.3008 66.0004 39.7008 66.0004 40.0008C66.0004 40.1008 66.0004 40.1008 65.9004 40.1008C65.4004 40.1008 64.9004 40.1008 64.5004 40.1008C64.5004 40.1008 64.5004 40.1008 64.4004 40.1008V38.6008H64.5004ZM65.9004 42.6008C65.5004 42.6008 65.0004 42.6008 64.6004 42.6008H64.5004V41.0008H66.1004V41.1008C66.1004 41.5008 66.1004 42.0008 66.1004 42.4008C66.1004 42.5008 66.0004 42.6008 65.9004 42.6008Z" fill="white"/>
<path d="M69.3006 48.6001C68.6006 47.0001 67.4006 46.0001 65.7006 45.8001C64.9006 45.7001 64.2006 45.7001 63.4006 45.9001C62.6006 46.1001 61.9006 46.5001 61.4006 47.1001C60.5006 48.0001 60.1006 49.2001 60.1006 50.2001C60.1006 51.1001 60.2006 51.7001 60.5006 52.3001C61.1006 53.8001 62.2006 54.7001 63.8006 55.1001C64.5006 55.2001 65.2006 55.2001 65.9006 55.1001C66.5006 55.0001 67.1006 54.8001 67.6006 54.4001C68.9006 53.5001 69.6006 52.2001 69.6006 50.6001C69.7006 50.0001 69.6006 49.3001 69.3006 48.6001ZM66.0006 50.6001C65.9006 50.7001 65.7006 50.6001 65.6006 50.5001C65.5006 50.4001 65.4006 50.3001 65.3006 50.2001C65.3006 50.2001 65.3006 50.2001 65.2006 50.2001V50.3001C65.2006 50.8001 65.2006 51.3001 65.2006 51.8001C65.2006 52.0001 65.1006 52.1001 65.0006 52.2001C64.8006 52.3001 64.5006 52.2001 64.5006 52.0001C64.5006 51.9001 64.5006 51.9001 64.5006 51.8001C64.5006 51.3001 64.5006 50.8001 64.5006 50.3001C64.5006 50.3001 64.5006 50.3001 64.5006 50.2001C64.4006 50.3001 64.3006 50.4001 64.2006 50.5001C64.1006 50.6001 64.1006 50.6001 64.0006 50.6001C63.8006 50.7001 63.6006 50.6001 63.6006 50.4001C63.5006 50.2001 63.6006 50.1001 63.7006 50.0001C64.0006 49.7001 64.4006 49.3001 64.7006 49.0001C64.9006 48.8001 65.1006 48.8001 65.3006 49.0001C65.6006 49.3001 66.0006 49.7001 66.3006 50.0001C66.3006 50.2001 66.3006 50.5001 66.0006 50.6001Z" fill="white"/>
</g>
<defs>
<filter id="filter0_di_622_6299" x="14.9895" y="4.61676" width="88.7331" height="88.7322" filterUnits="userSpaceOnUse" color-interpolation-filters="sRGB">
<feFlood flood-opacity="0" result="BackgroundImageFix"/>
<feColorMatrix in="SourceAlpha" type="matrix" values="0 0 0 0 0 0 0 0 0 0 0 0 0 0 0 0 0 0 127 0" result="hardAlpha"/>
<feOffset dx="1.45621" dy="3.88324"/>
<feGaussianBlur stdDeviation="3.88324"/>
<feComposite in2="hardAlpha" operator="out"/>
<feColorMatrix type="matrix" values="0 0 0 0 0 0 0 0 0 0 0 0 0 0 0 0 0 0 0.25 0"/>
<feBlend mode="normal" in2="BackgroundImageFix" result="effect1_dropShadow_622_6299"/>
<feBlend mode="normal" in="SourceGraphic" in2="effect1_dropShadow_622_6299" result="shape"/>
<feColorMatrix in="SourceAlpha" type="matrix" values="0 0 0 0 0 0 0 0 0 0 0 0 0 0 0 0 0 0 127 0" result="hardAlpha"/>
<feOffset/>
<feGaussianBlur stdDeviation="15.0475"/>
<feComposite in2="hardAlpha" operator="arithmetic" k2="-1" k3="1"/>
<feColorMatrix type="matrix" values="0 0 0 0 0 0 0 0 0 0 0 0 0 0 0 0 0 0 0.35 0"/>
<feBlend mode="normal" in2="shape" result="effect2_innerShadow_622_6299"/>
</filter>
<filter id="filter1_d_622_6299" x="44.6155" y="35.5159" width="27.3071" height="21.9447" filterUnits="userSpaceOnUse" color-interpolation-filters="sRGB">
<feFlood flood-opacity="0" result="BackgroundImageFix"/>
<feColorMatrix in="SourceAlpha" type="matrix" values="0 0 0 0 0 0 0 0 0 0 0 0 0 0 0 0 0 0 127 0" result="hardAlpha"/>
<feOffset/>
<feGaussianBlur stdDeviation="1.14244"/>
<feComposite in2="hardAlpha" operator="out"/>
<feColorMatrix type="matrix" values="0 0 0 0 1 0 0 0 0 1 0 0 0 0 1 0 0 0 0.48 0"/>
<feBlend mode="normal" in2="BackgroundImageFix" result="effect1_dropShadow_622_6299"/>
<feBlend mode="normal" in="SourceGraphic" in2="effect1_dropShadow_622_6299" result="shape"/>
</filter>
</defs>
</svg>
