<svg width="101" height="98" viewBox="0 0 101 98" fill="none" xmlns="http://www.w3.org/2000/svg">
<path d="M96.2994 46.4004V44.4004H95.8994V46.4004H96.2994Z" fill="#C70000"/>
<path d="M92.2998 48.8L95.6998 45.4L92.2998 42H95.1998L98.5998 45.4L95.1998 48.8H92.2998Z" fill="#C70000"/>
<path d="M89.6994 0.599609C82.4994 8.19961 81.0994 18.9996 84.9994 34.1996C84.9994 34.3996 85.0994 34.4996 85.0994 34.6996L76.8994 29.8996L43.3994 10.2996V0.699615H89.6994V0.599609Z" fill="#8C0000"/>
<path d="M100.1 97.5H54.5C51.7 94.7 48 92.3 43.5 90.3V88C54.5 88.1 65.6 83.9 74 75.5C78.5 71 81.8 65.7 83.9 60C80 78.9 84.9 90.5 100.1 97.5Z" fill="#8C0000"/>
<path d="M74 75.5C65.6 83.9 54.5 88.1 43.5 88V80.4L77.1 60.6L84.9 56C84.5 57.4 84.2 58.7 84 59.9C81.8 65.7 78.5 71 74 75.5Z" fill="#6A0707"/>
<path d="M83.9 60.1002C81.8 65.8002 78.5 71.0002 74 75.6002C65.6 84.0002 54.5 88.2002 43.5 88.1002V2.90018C54.5 2.80018 65.6 7.00018 74 15.4002C79.4 20.9002 83.1 27.4002 85 34.3002C85 34.5002 85.1 34.6002 85.1 34.8002C87.3 43.0002 86.9 51.9002 83.9 60.1002Z" fill="#6A0707"/>
<g filter="url(#filter0_di_622_6311)">
<path d="M7.2998 45.3988C7.2998 65.5988 23.6998 81.9988 43.8998 81.9988C64.0998 81.9988 80.4998 65.5988 80.4998 45.3988C80.4998 25.1988 64.0998 8.79883 43.8998 8.79883C23.6998 8.79883 7.2998 25.1988 7.2998 45.3988Z" fill="#3E3E3E"/>
</g>
<g filter="url(#filter1_d_622_6311)">
<path d="M38.6002 51.6004C38.4002 51.6004 38.3002 51.6004 38.1002 51.6004C38.1002 51.7004 38.1002 51.9004 38.1002 52.0004C38.1002 55.0004 38.1002 58.0004 38.1002 61.0004C38.1002 61.1004 38.1002 61.3004 38.1002 61.4004C38.0002 62.1004 37.4002 62.6004 36.7002 62.6004C36.0002 62.6004 35.4002 62.0004 35.4002 61.3004C35.4002 61.0004 35.4002 60.6004 35.4002 60.3004C35.4002 58.2004 35.4002 56.0004 35.4002 53.9004C35.4002 53.8004 35.4002 53.7004 35.4002 53.5004C34.6002 53.5004 34.3002 53.2004 34.3002 52.4004C34.2002 50.3004 34.1002 48.1004 34.4002 46.0004C34.5002 45.5004 34.6002 44.9004 34.7002 44.4004C35.5002 44.7004 36.0002 44.7004 36.3002 44.2004C36.7002 43.7004 36.7002 43.3004 36.2002 42.4004C36.3002 42.4004 36.4002 42.5004 36.5002 42.5004C37.7002 43.5004 39.1002 43.5004 40.2002 42.5004C40.3002 42.4004 40.4002 42.4004 40.6002 42.4004C41.1002 42.4004 41.4002 42.7004 41.6002 43.1004C42.0002 43.8004 42.2002 44.5004 42.3002 45.3004C42.6002 47.3004 42.6002 49.3004 42.5002 51.4004C42.5002 51.7004 42.5002 52.0004 42.5002 52.4004C42.5002 53.2004 42.1002 53.5004 41.3002 53.4004C41.3002 53.5004 41.3002 53.6004 41.3002 53.8004C41.3002 56.2004 41.3002 58.6004 41.3002 61.1004C41.3002 61.3004 41.3002 61.5004 41.2002 61.7004C41.0002 62.3004 40.4002 62.7004 39.8002 62.6004C39.2002 62.5004 38.7002 62.0004 38.6002 61.4004C38.6002 61.3004 38.6002 61.1004 38.6002 61.0004C38.6002 58.0004 38.6002 55.0004 38.6002 52.0004C38.6002 51.9004 38.6002 51.8004 38.6002 51.6004Z" fill="white"/>
</g>
<g filter="url(#filter2_d_622_6311)">
<path d="M43.7996 51.5996C43.6996 52.3996 43.6996 53.0996 43.5996 53.8996C43.3996 56.3996 43.1996 58.8996 42.9996 61.3996C42.8996 62.1996 42.2996 62.6996 41.5996 62.6996C41.4996 62.6996 41.2996 62.5996 41.0996 62.5996C41.7996 61.9996 41.6996 61.1996 41.6996 60.4996C41.6996 58.3996 41.6996 56.3996 41.6996 54.2996C41.6996 54.1996 41.6996 54.0996 41.6996 53.8996C42.5996 53.6996 42.8996 53.3996 42.8996 52.3996C42.9996 50.2996 43.0996 48.0996 42.7996 45.9996C42.6996 45.4996 42.6996 45.0996 42.5996 44.5996C42.3996 43.7996 42.1996 43.0996 41.5996 42.4996C41.5996 42.4996 41.5996 42.3996 41.6996 42.3996C43.2996 42.3996 44.9996 42.3996 46.5996 42.3996C47.4996 42.3996 48.3996 42.7996 49.1996 43.0996C49.2996 43.0996 49.3996 43.1996 49.5996 43.1996C49.6996 43.0996 49.6996 42.9996 49.7996 42.8996C50.4996 41.3996 51.1996 39.9996 51.8996 38.4996C51.8996 38.3996 51.9996 38.2996 51.9996 38.2996C52.0996 38.1996 52.1996 38.1996 52.2996 38.0996C52.2996 38.1996 52.3996 38.3996 52.3996 38.4996C52.2996 38.7996 52.1996 38.9996 52.0996 39.2996C52.0996 39.3996 51.9996 39.3996 51.9996 39.4996C52.2996 39.5996 52.4996 39.7996 52.6996 39.8996C52.8996 40.0996 52.9996 40.1996 52.7996 40.4996C52.0996 41.8996 51.4996 43.1996 50.8996 44.5996C50.5996 45.1996 50.1996 45.3996 49.4996 45.0996C48.8996 44.7996 48.2996 44.5996 47.6996 44.2996C47.4996 44.1996 47.3996 44.1996 47.1996 44.0996C47.1996 44.2996 47.1996 44.3996 47.1996 44.4996C47.1996 46.0996 47.1996 47.7996 47.1996 49.3996C47.1996 50.6996 47.3996 51.8996 47.4996 53.0996C47.6996 55.6996 47.8996 58.2996 48.0996 60.7996C48.1996 61.5996 47.5996 62.1996 46.8996 62.2996C46.0996 62.2996 45.4996 61.7996 45.4996 60.9996C45.1996 57.8996 44.9996 54.7996 44.6996 51.6996C44.6996 51.2996 44.6996 51.2996 44.1996 51.2996C43.9996 51.5996 43.8996 51.5996 43.7996 51.5996Z" fill="white"/>
</g>
<g filter="url(#filter3_d_622_6311)">
<path d="M53.4998 31.5996C53.0998 31.5996 52.8998 31.8996 52.8998 32.1996C52.8998 32.4996 53.0998 32.7996 53.4998 32.7996C53.8998 32.7996 54.0998 32.4996 54.0998 32.1996C54.0998 31.7996 53.9998 31.5996 53.4998 31.5996ZM53.4998 31.5996C53.0998 31.5996 52.8998 31.8996 52.8998 32.1996C52.8998 32.4996 53.0998 32.7996 53.4998 32.7996C53.8998 32.7996 54.0998 32.4996 54.0998 32.1996C54.0998 31.7996 53.9998 31.5996 53.4998 31.5996ZM53.4998 31.5996C53.0998 31.5996 52.8998 31.8996 52.8998 32.1996C52.8998 32.4996 53.0998 32.7996 53.4998 32.7996C53.8998 32.7996 54.0998 32.4996 54.0998 32.1996C54.0998 31.7996 53.9998 31.5996 53.4998 31.5996ZM53.4998 31.5996C53.0998 31.5996 52.8998 31.8996 52.8998 32.1996C52.8998 32.4996 53.0998 32.7996 53.4998 32.7996C53.8998 32.7996 54.0998 32.4996 54.0998 32.1996C54.0998 31.7996 53.9998 31.5996 53.4998 31.5996ZM53.4998 31.5996C53.0998 31.5996 52.8998 31.8996 52.8998 32.1996C52.8998 32.4996 53.0998 32.7996 53.4998 32.7996C53.8998 32.7996 54.0998 32.4996 54.0998 32.1996C54.0998 31.7996 53.9998 31.5996 53.4998 31.5996ZM53.4998 31.5996C53.0998 31.5996 52.8998 31.8996 52.8998 32.1996C52.8998 32.4996 53.0998 32.7996 53.4998 32.7996C53.8998 32.7996 54.0998 32.4996 54.0998 32.1996C54.0998 31.7996 53.9998 31.5996 53.4998 31.5996ZM53.4998 31.5996C53.0998 31.5996 52.8998 31.8996 52.8998 32.1996C52.8998 32.4996 53.0998 32.7996 53.4998 32.7996C53.8998 32.7996 54.0998 32.4996 54.0998 32.1996C54.0998 31.7996 53.9998 31.5996 53.4998 31.5996ZM53.4998 31.5996C53.0998 31.5996 52.8998 31.8996 52.8998 32.1996C52.8998 32.4996 53.0998 32.7996 53.4998 32.7996C53.8998 32.7996 54.0998 32.4996 54.0998 32.1996C54.0998 31.7996 53.9998 31.5996 53.4998 31.5996ZM53.4998 31.5996C53.0998 31.5996 52.8998 31.8996 52.8998 32.1996C52.8998 32.4996 53.0998 32.7996 53.4998 32.7996C53.8998 32.7996 54.0998 32.4996 54.0998 32.1996C54.0998 31.7996 53.9998 31.5996 53.4998 31.5996ZM53.4998 31.5996C53.0998 31.5996 52.8998 31.8996 52.8998 32.1996C52.8998 32.4996 53.0998 32.7996 53.4998 32.7996C53.8998 32.7996 54.0998 32.4996 54.0998 32.1996C54.0998 31.7996 53.9998 31.5996 53.4998 31.5996ZM53.4998 31.5996C53.0998 31.5996 52.8998 31.8996 52.8998 32.1996C52.8998 32.4996 53.0998 32.7996 53.4998 32.7996C53.8998 32.7996 54.0998 32.4996 54.0998 32.1996C54.0998 31.7996 53.9998 31.5996 53.4998 31.5996ZM53.4998 31.5996C53.0998 31.5996 52.8998 31.8996 52.8998 32.1996C52.8998 32.4996 53.0998 32.7996 53.4998 32.7996C53.8998 32.7996 54.0998 32.4996 54.0998 32.1996C54.0998 31.7996 53.9998 31.5996 53.4998 31.5996ZM55.3998 30.4996C55.3998 29.8996 55.0998 29.5996 54.4998 29.5996C52.0998 29.5996 49.6998 29.5996 47.1998 29.5996C46.5998 29.5996 46.2998 29.8996 46.2998 30.4996C46.2998 31.5996 46.2998 32.6996 46.2998 33.7996C46.2998 34.3996 46.5998 34.6996 47.1998 34.6996C47.7998 34.6996 48.3998 34.6996 48.9998 34.6996C48.6998 35.0996 48.3998 35.4996 48.0998 35.7996C47.7998 36.0996 47.5998 36.4996 47.2998 36.8996C47.7998 36.4996 48.2998 36.0996 48.7998 35.7996C49.2998 35.4996 49.6998 34.9996 50.1998 34.7996C50.6998 34.5996 51.2998 34.6996 51.8998 34.6996C52.6998 34.6996 53.4998 34.6996 54.2998 34.6996C54.8998 34.6996 55.1998 34.3996 55.1998 33.7996C55.3998 32.7996 55.3998 31.6996 55.3998 30.4996ZM49.2998 31.0996H47.8998V31.6996H49.1998V32.0996H47.8998V33.0996H47.3998V30.7996H49.2998V31.0996ZM50.6998 31.6996C50.5998 31.6996 50.4998 31.6996 50.3998 31.6996C50.1998 31.6996 49.8998 31.7996 49.8998 32.1996V32.9996H49.4998V31.2996H49.8998V31.5996C49.9998 31.3996 50.1998 31.1996 50.4998 31.1996C50.5998 31.1996 50.5998 31.1996 50.6998 31.1996V31.6996ZM51.3998 32.9996H50.9998V31.2996H51.3998V32.9996ZM51.3998 30.9996H50.9998V30.5996H51.3998V30.9996ZM52.1998 32.9996C52.1998 33.3996 52.0998 33.5996 51.5998 33.5996C51.4998 33.5996 51.4998 33.5996 51.3998 33.5996V33.2996C51.3998 33.2996 51.4998 33.2996 51.5998 33.2996C51.6998 33.2996 51.7998 33.2996 51.7998 33.0996V31.3996H52.1998V32.9996ZM52.1998 30.9996H51.7998V30.5996H52.1998V30.9996ZM53.4998 32.9996C52.7998 32.9996 52.4998 32.5996 52.4998 32.0996C52.4998 31.5996 52.7998 31.1996 53.4998 31.1996C54.1998 31.1996 54.4998 31.5996 54.4998 32.0996C54.5998 32.5996 54.2998 32.9996 53.4998 32.9996ZM53.4998 31.5996C53.0998 31.5996 52.8998 31.8996 52.8998 32.1996C52.8998 32.4996 53.0998 32.7996 53.4998 32.7996C53.8998 32.7996 54.0998 32.4996 54.0998 32.1996C54.0998 31.7996 53.9998 31.5996 53.4998 31.5996ZM53.4998 31.5996C53.0998 31.5996 52.8998 31.8996 52.8998 32.1996C52.8998 32.4996 53.0998 32.7996 53.4998 32.7996C53.8998 32.7996 54.0998 32.4996 54.0998 32.1996C54.0998 31.7996 53.9998 31.5996 53.4998 31.5996ZM53.4998 31.5996C53.0998 31.5996 52.8998 31.8996 52.8998 32.1996C52.8998 32.4996 53.0998 32.7996 53.4998 32.7996C53.8998 32.7996 54.0998 32.4996 54.0998 32.1996C54.0998 31.7996 53.9998 31.5996 53.4998 31.5996ZM53.4998 31.5996C53.0998 31.5996 52.8998 31.8996 52.8998 32.1996C52.8998 32.4996 53.0998 32.7996 53.4998 32.7996C53.8998 32.7996 54.0998 32.4996 54.0998 32.1996C54.0998 31.7996 53.9998 31.5996 53.4998 31.5996ZM53.4998 31.5996C53.0998 31.5996 52.8998 31.8996 52.8998 32.1996C52.8998 32.4996 53.0998 32.7996 53.4998 32.7996C53.8998 32.7996 54.0998 32.4996 54.0998 32.1996C54.0998 31.7996 53.9998 31.5996 53.4998 31.5996ZM53.4998 31.5996C53.0998 31.5996 52.8998 31.8996 52.8998 32.1996C52.8998 32.4996 53.0998 32.7996 53.4998 32.7996C53.8998 32.7996 54.0998 32.4996 54.0998 32.1996C54.0998 31.7996 53.9998 31.5996 53.4998 31.5996ZM53.4998 31.5996C53.0998 31.5996 52.8998 31.8996 52.8998 32.1996C52.8998 32.4996 53.0998 32.7996 53.4998 32.7996C53.8998 32.7996 54.0998 32.4996 54.0998 32.1996C54.0998 31.7996 53.9998 31.5996 53.4998 31.5996ZM53.4998 31.5996C53.0998 31.5996 52.8998 31.8996 52.8998 32.1996C52.8998 32.4996 53.0998 32.7996 53.4998 32.7996C53.8998 32.7996 54.0998 32.4996 54.0998 32.1996C54.0998 31.7996 53.9998 31.5996 53.4998 31.5996ZM53.4998 31.5996C53.0998 31.5996 52.8998 31.8996 52.8998 32.1996C52.8998 32.4996 53.0998 32.7996 53.4998 32.7996C53.8998 32.7996 54.0998 32.4996 54.0998 32.1996C54.0998 31.7996 53.9998 31.5996 53.4998 31.5996ZM53.4998 31.5996C53.0998 31.5996 52.8998 31.8996 52.8998 32.1996C52.8998 32.4996 53.0998 32.7996 53.4998 32.7996C53.8998 32.7996 54.0998 32.4996 54.0998 32.1996C54.0998 31.7996 53.9998 31.5996 53.4998 31.5996ZM53.4998 31.5996C53.0998 31.5996 52.8998 31.8996 52.8998 32.1996C52.8998 32.4996 53.0998 32.7996 53.4998 32.7996C53.8998 32.7996 54.0998 32.4996 54.0998 32.1996C54.0998 31.7996 53.9998 31.5996 53.4998 31.5996ZM53.4998 31.5996C53.0998 31.5996 52.8998 31.8996 52.8998 32.1996C52.8998 32.4996 53.0998 32.7996 53.4998 32.7996C53.8998 32.7996 54.0998 32.4996 54.0998 32.1996C54.0998 31.7996 53.9998 31.5996 53.4998 31.5996ZM53.4998 31.5996C53.0998 31.5996 52.8998 31.8996 52.8998 32.1996C52.8998 32.4996 53.0998 32.7996 53.4998 32.7996C53.8998 32.7996 54.0998 32.4996 54.0998 32.1996C54.0998 31.7996 53.9998 31.5996 53.4998 31.5996Z" fill="white"/>
</g>
<g filter="url(#filter4_d_622_6311)">
<path d="M38.4 43.2004C37.1 43.2004 36 42.1004 36 40.8004C36 39.4004 37.1 38.4004 38.4 38.4004C39.7 38.4004 40.8 39.5004 40.8 40.8004C40.8 42.1004 39.7 43.2004 38.4 43.2004ZM37.5 42.0004C39 42.4004 39 42.1004 39.9 41.5004C39.9 41.4004 39.9 41.4004 39.9 41.3004C39.3 41.5004 39 41.9004 37.4 41.9004L37.5 42.0004Z" fill="white"/>
</g>
<g filter="url(#filter5_d_622_6311)">
<path d="M44.2002 37.1001C45.5002 37.1001 46.6002 38.2001 46.6002 39.6001C46.6002 41.0001 45.5002 42.0001 44.1002 42.0001C42.8002 42.0001 41.7002 40.9001 41.7002 39.5001C41.7002 38.1001 42.8002 37.0001 44.2002 37.1001ZM45.4002 40.2001C44.5002 40.5001 43.7002 40.4001 42.8002 40.2001C43.4002 41.3001 44.7002 41.3001 45.4002 40.2001Z" fill="white"/>
</g>
<g filter="url(#filter6_d_622_6311)">
<path d="M36.2994 43.5004C36.2994 44.0004 35.8994 44.4004 35.4994 44.4004C35.0994 44.4004 34.3994 43.9004 34.3994 43.6004C34.3994 43.2004 35.0994 42.5004 35.3994 42.4004C35.6994 42.4004 36.2994 43.1004 36.2994 43.5004Z" fill="white"/>
</g>
<defs>
<filter id="filter0_di_622_6311" x="0.989545" y="4.91559" width="88.7331" height="88.7322" filterUnits="userSpaceOnUse" color-interpolation-filters="sRGB">
<feFlood flood-opacity="0" result="BackgroundImageFix"/>
<feColorMatrix in="SourceAlpha" type="matrix" values="0 0 0 0 0 0 0 0 0 0 0 0 0 0 0 0 0 0 127 0" result="hardAlpha"/>
<feOffset dx="1.45621" dy="3.88324"/>
<feGaussianBlur stdDeviation="3.88324"/>
<feComposite in2="hardAlpha" operator="out"/>
<feColorMatrix type="matrix" values="0 0 0 0 0 0 0 0 0 0 0 0 0 0 0 0 0 0 0.25 0"/>
<feBlend mode="normal" in2="BackgroundImageFix" result="effect1_dropShadow_622_6311"/>
<feBlend mode="normal" in="SourceGraphic" in2="effect1_dropShadow_622_6311" result="shape"/>
<feColorMatrix in="SourceAlpha" type="matrix" values="0 0 0 0 0 0 0 0 0 0 0 0 0 0 0 0 0 0 127 0" result="hardAlpha"/>
<feOffset/>
<feGaussianBlur stdDeviation="15.0475"/>
<feComposite in2="hardAlpha" operator="arithmetic" k2="-1" k3="1"/>
<feColorMatrix type="matrix" values="0 0 0 0 0 0 0 0 0 0 0 0 0 0 0 0 0 0 0.35 0"/>
<feBlend mode="normal" in2="shape" result="effect2_innerShadow_622_6311"/>
</filter>
<filter id="filter1_d_622_6311" x="31.9153" y="40.1155" width="12.9291" height="24.7846" filterUnits="userSpaceOnUse" color-interpolation-filters="sRGB">
<feFlood flood-opacity="0" result="BackgroundImageFix"/>
<feColorMatrix in="SourceAlpha" type="matrix" values="0 0 0 0 0 0 0 0 0 0 0 0 0 0 0 0 0 0 127 0" result="hardAlpha"/>
<feOffset/>
<feGaussianBlur stdDeviation="1.14244"/>
<feComposite in2="hardAlpha" operator="out"/>
<feColorMatrix type="matrix" values="0 0 0 0 1 0 0 0 0 1 0 0 0 0 1 0 0 0 0.48 0"/>
<feBlend mode="normal" in2="BackgroundImageFix" result="effect1_dropShadow_622_6311"/>
<feBlend mode="normal" in="SourceGraphic" in2="effect1_dropShadow_622_6311" result="shape"/>
</filter>
<filter id="filter2_d_622_6311" x="38.8147" y="35.8147" width="16.3783" height="29.1694" filterUnits="userSpaceOnUse" color-interpolation-filters="sRGB">
<feFlood flood-opacity="0" result="BackgroundImageFix"/>
<feColorMatrix in="SourceAlpha" type="matrix" values="0 0 0 0 0 0 0 0 0 0 0 0 0 0 0 0 0 0 127 0" result="hardAlpha"/>
<feOffset/>
<feGaussianBlur stdDeviation="1.14244"/>
<feComposite in2="hardAlpha" operator="out"/>
<feColorMatrix type="matrix" values="0 0 0 0 1 0 0 0 0 1 0 0 0 0 1 0 0 0 0.48 0"/>
<feBlend mode="normal" in2="BackgroundImageFix" result="effect1_dropShadow_622_6311"/>
<feBlend mode="normal" in="SourceGraphic" in2="effect1_dropShadow_622_6311" result="shape"/>
</filter>
<filter id="filter3_d_622_6311" x="44.0149" y="27.3147" width="13.6694" height="11.8705" filterUnits="userSpaceOnUse" color-interpolation-filters="sRGB">
<feFlood flood-opacity="0" result="BackgroundImageFix"/>
<feColorMatrix in="SourceAlpha" type="matrix" values="0 0 0 0 0 0 0 0 0 0 0 0 0 0 0 0 0 0 127 0" result="hardAlpha"/>
<feOffset/>
<feGaussianBlur stdDeviation="1.14244"/>
<feComposite in2="hardAlpha" operator="out"/>
<feColorMatrix type="matrix" values="0 0 0 0 1 0 0 0 0 1 0 0 0 0 1 0 0 0 0.48 0"/>
<feBlend mode="normal" in2="BackgroundImageFix" result="effect1_dropShadow_622_6311"/>
<feBlend mode="normal" in="SourceGraphic" in2="effect1_dropShadow_622_6311" result="shape"/>
</filter>
<filter id="filter4_d_622_6311" x="33.7151" y="36.1155" width="9.36955" height="9.37053" filterUnits="userSpaceOnUse" color-interpolation-filters="sRGB">
<feFlood flood-opacity="0" result="BackgroundImageFix"/>
<feColorMatrix in="SourceAlpha" type="matrix" values="0 0 0 0 0 0 0 0 0 0 0 0 0 0 0 0 0 0 127 0" result="hardAlpha"/>
<feOffset/>
<feGaussianBlur stdDeviation="1.14244"/>
<feComposite in2="hardAlpha" operator="out"/>
<feColorMatrix type="matrix" values="0 0 0 0 1 0 0 0 0 1 0 0 0 0 1 0 0 0 0.48 0"/>
<feBlend mode="normal" in2="BackgroundImageFix" result="effect1_dropShadow_622_6311"/>
<feBlend mode="normal" in="SourceGraphic" in2="effect1_dropShadow_622_6311" result="shape"/>
</filter>
<filter id="filter5_d_622_6311" x="39.4153" y="34.8089" width="9.47014" height="9.476" filterUnits="userSpaceOnUse" color-interpolation-filters="sRGB">
<feFlood flood-opacity="0" result="BackgroundImageFix"/>
<feColorMatrix in="SourceAlpha" type="matrix" values="0 0 0 0 0 0 0 0 0 0 0 0 0 0 0 0 0 0 127 0" result="hardAlpha"/>
<feOffset/>
<feGaussianBlur stdDeviation="1.14244"/>
<feComposite in2="hardAlpha" operator="out"/>
<feColorMatrix type="matrix" values="0 0 0 0 1 0 0 0 0 1 0 0 0 0 1 0 0 0 0.48 0"/>
<feBlend mode="normal" in2="BackgroundImageFix" result="effect1_dropShadow_622_6311"/>
<feBlend mode="normal" in="SourceGraphic" in2="effect1_dropShadow_622_6311" result="shape"/>
</filter>
<filter id="filter6_d_622_6311" x="32.1145" y="40.1155" width="6.47014" height="6.56975" filterUnits="userSpaceOnUse" color-interpolation-filters="sRGB">
<feFlood flood-opacity="0" result="BackgroundImageFix"/>
<feColorMatrix in="SourceAlpha" type="matrix" values="0 0 0 0 0 0 0 0 0 0 0 0 0 0 0 0 0 0 127 0" result="hardAlpha"/>
<feOffset/>
<feGaussianBlur stdDeviation="1.14244"/>
<feComposite in2="hardAlpha" operator="out"/>
<feColorMatrix type="matrix" values="0 0 0 0 1 0 0 0 0 1 0 0 0 0 1 0 0 0 0.48 0"/>
<feBlend mode="normal" in2="BackgroundImageFix" result="effect1_dropShadow_622_6311"/>
<feBlend mode="normal" in="SourceGraphic" in2="effect1_dropShadow_622_6311" result="shape"/>
</filter>
</defs>
</svg>
