<svg width="102" height="96" viewBox="0 0 102 96" fill="none" xmlns="http://www.w3.org/2000/svg">
<path d="M2.79941 50.1992V48.1992H2.39941V50.1992H2.79941Z" fill="#C70000"/>
<path d="M6.39961 45.8008L2.99961 49.2008L6.39961 52.6008H3.49961L0.0996094 49.2008L3.49961 45.8008H6.39961Z" fill="#C70000"/>
<path d="M55.2 0.5V11.1L23.1 30L14.6 35C18.7 19.3 17.2 8.2 9.5 0.5H55.2C55.1 0.5 55.1 0.5 55.2 0.5Z" fill="#8C0000"/>
<path d="M55.1992 4.30078C44.3992 4.40078 33.5992 8.50078 25.3992 16.8008C8.79922 33.4008 8.79922 60.4008 25.3992 77.1008C33.5992 85.3008 44.3992 89.5008 55.1992 89.6008V4.30078Z" fill="#8C0000"/>
<g filter="url(#filter0_di_622_6332)">
<path d="M19 46.9008C19 67.1008 35.4 83.5008 55.6 83.5008C75.8 83.5008 92.2 67.1008 92.2 46.9008C92.2 26.7008 75.8 10.3008 55.6 10.3008C35.3 10.3008 19 26.7008 19 46.9008Z" fill="#3E3E3E"/>
</g>
<g filter="url(#filter1_d_622_6332)">
<path d="M65.8996 36.1008C65.8996 35.9008 65.8996 35.7008 65.8996 35.5008C65.7996 35.1008 65.5996 34.9008 65.2996 34.8008C65.0996 34.8008 64.8996 34.8008 64.6996 34.8008C61.0996 34.8008 57.5996 34.8008 53.9996 34.8008C50.3996 34.8008 46.8996 34.8008 43.2996 34.8008C43.1996 34.8008 42.9996 34.8008 42.8996 34.8008C42.3996 34.8008 42.0996 35.1008 42.0996 35.6008C42.0996 35.7008 42.0996 35.9008 42.0996 36.1008C42.0996 41.6008 42.0996 47.2008 42.0996 52.7008C42.0996 52.8008 42.0996 52.9008 42.0996 53.0008C42.0996 53.6008 42.3996 53.9008 42.9996 54.0008C43.0996 54.0008 43.1996 54.0008 43.2996 54.0008C49.4996 54.0008 55.7996 54.0008 61.9996 54.0008C62.2996 54.0008 62.4996 53.8008 62.4996 53.5008V48.7008C62.4996 48.1008 62.9996 47.6008 63.5996 47.6008H65.8996C66.0996 47.6008 66.1996 47.5008 66.1996 47.3008C65.8996 43.6008 65.8996 39.9008 65.8996 36.1008ZM51.6996 41.7008H49.3996V42.6008H51.5996V43.2008H49.3996V44.8008H48.5996V41.0008H51.6996V41.7008ZM54.0996 42.8008C53.8996 42.7008 53.7996 42.7008 53.5996 42.7008C53.1996 42.7008 52.6996 42.9008 52.6996 43.5008V44.8008H51.9996V42.0008H52.6996V42.5008C52.8996 42.2008 53.1996 41.9008 53.6996 41.9008C53.7996 41.9008 53.8996 41.9008 53.9996 41.9008V42.8008H54.0996ZM55.1996 44.9008H54.4996V42.1008H55.1996V44.9008ZM55.1996 41.7008H54.4996V41.1008H55.1996V41.7008ZM56.5996 45.0008C56.5996 45.7008 56.3996 45.9008 55.6996 45.9008C55.5996 45.9008 55.4996 45.9008 55.2996 45.9008V45.3008C55.3996 45.3008 55.3996 45.3008 55.5996 45.3008C55.7996 45.3008 55.8996 45.2008 55.8996 44.9008V42.0008H56.5996V45.0008ZM56.5996 41.7008H55.8996V41.1008H56.5996V41.7008ZM58.7996 45.0008C57.5996 45.0008 57.0996 44.3008 57.0996 43.5008C57.0996 42.7008 57.5996 42.0008 58.7996 42.0008C59.9996 42.0008 60.4996 42.7008 60.4996 43.5008C60.4996 44.3008 59.9996 45.0008 58.7996 45.0008Z" fill="white"/>
<path d="M51.0995 55.9004C52.9995 55.9004 54.7995 55.9004 56.6995 55.9004C56.6995 56.0004 56.6995 56.0004 56.6995 56.1004C56.6995 56.4004 56.6995 56.6004 56.6995 56.9004C56.6995 57.5004 57.0995 57.8004 57.6995 57.8004C58.2995 57.8004 58.8995 57.8004 59.4995 57.8004C59.9995 57.8004 60.2995 58.1004 60.3995 58.5004C60.4995 59.1004 60.0995 59.7004 59.4995 59.7004C59.3995 59.7004 59.3995 59.7004 59.2995 59.7004C55.7995 59.7004 52.2995 59.7004 48.8995 59.7004C48.6995 59.7004 48.3995 59.7004 48.1995 59.6004C47.7995 59.5004 47.4995 59.0004 47.5995 58.5004C47.6995 58.1004 47.9995 57.8004 48.4995 57.8004C48.9995 57.8004 49.4995 57.8004 50.0995 57.8004C50.1995 57.8004 50.2995 57.8004 50.3995 57.8004C50.8995 57.7004 51.1995 57.5004 51.1995 56.9004C51.1995 56.6004 51.1995 56.4004 51.1995 56.1004C51.0995 56.1004 51.0995 56.0004 51.0995 55.9004Z" fill="white"/>
<path d="M67.8992 48.5H63.8992C63.4992 48.5 63.1992 48.8 63.1992 49.2V58.6C63.1992 59 63.4992 59.3 63.8992 59.3H67.8992C68.2992 59.3 68.5992 59 68.5992 58.6V49.2C68.5992 48.8 68.2992 48.5 67.8992 48.5ZM64.8992 53.5H64.0992V53.8H64.7992V54H64.0992V54.5H63.7992V53.2H64.7992L64.8992 53.5ZM65.7992 53.8C65.6992 53.8 65.6992 53.8 65.5992 53.8C65.4992 53.8 65.2992 53.9 65.2992 54.1V54.5H65.0992V53.6H65.2992V53.8C65.3992 53.7 65.4992 53.6 65.6992 53.6H65.7992V53.8ZM66.0992 54.5H65.8992V53.6H66.0992V54.5ZM66.0992 53.4H65.8992V53.2H66.0992V53.4ZM66.5992 54.6C66.5992 54.8 66.4992 54.9 66.2992 54.9H66.1992V54.7C66.1992 54.7 66.1992 54.7 66.2992 54.7C66.3992 54.7 66.3992 54.7 66.3992 54.6V53.6H66.5992V54.6ZM66.5992 53.4H66.3992V53.2H66.5992V53.4ZM67.2992 54.6C66.8992 54.6 66.6992 54.4 66.6992 54.1C66.6992 53.8 66.8992 53.6 67.2992 53.6C67.6992 53.6 67.8992 53.8 67.8992 54.1C67.8992 54.4 67.6992 54.6 67.2992 54.6Z" fill="white"/>
<path d="M59.7998 43.5016C59.7998 44.0016 59.4998 44.4016 58.7998 44.4016C58.0998 44.4016 57.7998 43.9016 57.7998 43.5016C57.7998 43.0016 58.0998 42.6016 58.7998 42.6016C59.4998 42.6016 59.7998 43.0016 59.7998 43.5016Z" fill="white"/>
<path d="M67.6996 54.1001C67.6996 54.3001 67.5996 54.4 67.3996 54.4C67.1996 54.4 67.0996 54.2001 67.0996 54.1001C67.0996 53.9001 67.1996 53.8 67.3996 53.8C67.5996 53.7 67.6996 53.9001 67.6996 54.1001Z" fill="white"/>
</g>
<defs>
<filter id="filter0_di_622_6332" x="12.6897" y="6.41754" width="88.7331" height="88.7322" filterUnits="userSpaceOnUse" color-interpolation-filters="sRGB">
<feFlood flood-opacity="0" result="BackgroundImageFix"/>
<feColorMatrix in="SourceAlpha" type="matrix" values="0 0 0 0 0 0 0 0 0 0 0 0 0 0 0 0 0 0 127 0" result="hardAlpha"/>
<feOffset dx="1.45621" dy="3.88324"/>
<feGaussianBlur stdDeviation="3.88324"/>
<feComposite in2="hardAlpha" operator="out"/>
<feColorMatrix type="matrix" values="0 0 0 0 0 0 0 0 0 0 0 0 0 0 0 0 0 0 0.25 0"/>
<feBlend mode="normal" in2="BackgroundImageFix" result="effect1_dropShadow_622_6332"/>
<feBlend mode="normal" in="SourceGraphic" in2="effect1_dropShadow_622_6332" result="shape"/>
<feColorMatrix in="SourceAlpha" type="matrix" values="0 0 0 0 0 0 0 0 0 0 0 0 0 0 0 0 0 0 127 0" result="hardAlpha"/>
<feOffset/>
<feGaussianBlur stdDeviation="15.0475"/>
<feComposite in2="hardAlpha" operator="arithmetic" k2="-1" k3="1"/>
<feColorMatrix type="matrix" values="0 0 0 0 0 0 0 0 0 0 0 0 0 0 0 0 0 0 0.35 0"/>
<feBlend mode="normal" in2="shape" result="effect2_innerShadow_622_6332"/>
</filter>
<filter id="filter1_d_622_6332" x="39.8147" y="32.5159" width="31.0697" height="29.4701" filterUnits="userSpaceOnUse" color-interpolation-filters="sRGB">
<feFlood flood-opacity="0" result="BackgroundImageFix"/>
<feColorMatrix in="SourceAlpha" type="matrix" values="0 0 0 0 0 0 0 0 0 0 0 0 0 0 0 0 0 0 127 0" result="hardAlpha"/>
<feOffset/>
<feGaussianBlur stdDeviation="1.14244"/>
<feComposite in2="hardAlpha" operator="out"/>
<feColorMatrix type="matrix" values="0 0 0 0 1 0 0 0 0 1 0 0 0 0 1 0 0 0 0.48 0"/>
<feBlend mode="normal" in2="BackgroundImageFix" result="effect1_dropShadow_622_6332"/>
<feBlend mode="normal" in="SourceGraphic" in2="effect1_dropShadow_622_6332" result="shape"/>
</filter>
</defs>
</svg>
