<svg width="59" height="59" viewBox="0 0 59 59" fill="none" xmlns="http://www.w3.org/2000/svg">
<path d="M22.1252 24.5833C24.8406 24.5833 27.0418 22.3821 27.0418 19.6667C27.0418 16.9513 24.8406 14.75 22.1252 14.75C19.4098 14.75 17.2085 16.9513 17.2085 19.6667C17.2085 22.3821 19.4098 24.5833 22.1252 24.5833Z" stroke="white" stroke-width="2" stroke-linecap="round" stroke-linejoin="round"/>
<path d="M31.9582 4.91663H22.1248C9.83317 4.91663 4.9165 9.83329 4.9165 22.125V36.875C4.9165 49.1666 9.83317 54.0833 22.1248 54.0833H36.8748C49.1665 54.0833 54.0832 49.1666 54.0832 36.875V24.5833" stroke="white" stroke-width="2" stroke-linecap="round" stroke-linejoin="round"/>
<path d="M38.7188 12.2916H52.2396" stroke="white" stroke-width="2" stroke-linecap="round"/>
<path d="M45.479 19.0521V5.53125" stroke="white" stroke-width="2" stroke-linecap="round"/>
<path d="M6.56396 46.5855L18.6835 38.4484C20.6256 37.1455 23.4281 37.293 25.1735 38.7925L25.9848 39.5055C27.9023 41.1525 30.9998 41.1525 32.9173 39.5055L43.144 30.7292C45.0615 29.0821 48.159 29.0821 50.0765 30.7292L54.0835 34.1709" stroke="white" stroke-width="2" stroke-linecap="round" stroke-linejoin="round"/>
</svg>
