<svg width="10" height="10" viewBox="0 0 10 10" fill="none" xmlns="http://www.w3.org/2000/svg">
<path d="M0.625 9.375C0.625 9.7207 0.904492 10 1.25 10H4.375V5.625H0.625V9.375ZM9.375 2.5H8.55195C8.78555 2.05234 8.84512 1.5127 8.55117 0.910156C8.26953 0.331836 7.66797 -0.000304478 7.02148 2.09444e-07C6.20508 0.000304897 5.67773 0.416406 5 1.33398C4.32227 0.416406 3.79492 0.000304897 2.97852 2.09444e-07C2.33203 -0.000304478 1.73086 0.331836 1.44883 0.910156C1.15488 1.5127 1.21445 2.05273 1.44824 2.5H0.625C0.279883 2.5 0 2.77988 0 3.125V4.375C0 4.71875 0.28125 4.99941 0.607422 4.99941H9.35742C9.70117 4.99941 9.98242 4.71875 9.98242 4.375V3.125C10 2.7793 9.7207 2.5 9.375 2.5ZM3.00586 2.5C2.57441 2.5 2.22461 2.1502 2.22461 1.71875C2.22461 1.2873 2.57441 0.9375 3.00586 0.9375C3.39453 0.9375 3.68164 1.00195 4.6875 2.5H3.00586ZM6.99414 2.5H5.3125C6.31836 1.00195 6.60527 0.9375 6.99395 0.9375C7.42539 0.9375 7.7752 1.2873 7.7752 1.71875C7.7752 2.1502 7.42578 2.5 6.99414 2.5ZM5.625 10H8.75C9.09551 10 9.375 9.7207 9.375 9.375L9.375 5.625H5.64258L5.625 10Z" fill="#FF3D00"/>
</svg>
