<svg width="154" height="154" viewBox="0 0 154 154" fill="none" xmlns="http://www.w3.org/2000/svg">
<path d="M44.0986 80.198L53.3927 89.4806C66.2046 76.6687 87.0055 76.6687 99.8174 89.4806L109.1 80.198C91.1816 62.2908 62.0626 62.2908 44.0986 80.198Z" fill="#242A2F"/>
<path d="M99.8168 89.1352C86.9537 76.4575 66.2562 76.4576 53.3932 89.1353L44.4456 80.1986C62.2695 62.6167 90.9747 62.6171 108.754 80.1985L99.8168 89.1352Z" stroke="#6C6C6C" stroke-opacity="0.15" stroke-width="0.489451"/>
<path d="M76.5991 112.698C82.0392 112.698 86.4492 108.288 86.4492 102.848C86.4492 97.4081 82.0392 92.998 76.5991 92.998C71.1591 92.998 66.749 97.4081 66.749 102.848C66.749 108.288 71.1591 112.698 76.5991 112.698Z" fill="#242A2F"/>
<path d="M86.2045 102.848C86.2045 108.153 81.904 112.453 76.5991 112.453C71.2942 112.453 66.9937 108.153 66.9937 102.848C66.9937 97.5432 71.2942 93.2428 76.5991 93.2428C81.904 93.2428 86.2045 97.5432 86.2045 102.848Z" stroke="#6C6C6C" stroke-opacity="0.15" stroke-width="0.489451"/>
<path d="M25.5332 61.6309L34.8159 70.9136C57.8978 47.8431 95.3008 47.8431 118.383 70.9136L127.665 61.6309C99.4769 33.4538 53.7557 33.4538 25.5332 61.6309Z" fill="#242A2F"/>
<path d="M118.382 70.5679C95.2492 47.632 57.9494 47.632 34.8163 70.5679L25.8797 61.6313C53.9624 33.7799 99.2702 33.78 127.319 61.6312L118.382 70.5679Z" stroke="#6C6C6C" stroke-opacity="0.15" stroke-width="0.489451"/>
<path fill-rule="evenodd" clip-rule="evenodd" d="M8.12157 76.6009C8.12157 38.7791 38.7777 8.12303 76.5995 8.12303C94.6301 8.12303 111.032 15.0901 123.261 26.4793L26.4779 123.262C15.0887 111.034 8.12157 94.6315 8.12157 76.6009ZM29.9388 126.723C42.1673 138.112 58.5691 145.079 76.5995 145.079C114.421 145.079 145.077 114.423 145.077 76.6009C145.077 58.5706 138.11 42.1687 126.722 29.9403L29.9388 126.723ZM76.5995 3.22852C36.0745 3.22852 3.22705 36.076 3.22705 76.6009C3.22705 117.126 36.0745 149.973 76.5995 149.973C117.124 149.973 149.972 117.126 149.972 76.6009C149.972 36.076 117.124 3.22852 76.5995 3.22852Z" fill="#B80000" fill-opacity="0.4"/>
</svg>
