<svg width="31" height="31" viewBox="0 0 31 31" fill="none" xmlns="http://www.w3.org/2000/svg">
<g filter="url(#filter0_d_548_6278)">
<path d="M18.4849 19.8014C18.5939 19.8014 18.7165 19.8014 18.8392 19.8014C20.3719 19.8014 21.9047 19.8014 23.4375 19.8014C24.2209 19.8014 24.5479 19.4335 24.5956 18.6569C24.6364 17.9961 24.4389 17.5056 23.9416 17.0696C23.4239 16.6132 22.947 16.1091 22.4701 15.605C22.3475 15.4756 22.2521 15.2576 22.2453 15.0804C22.2249 14.2766 22.2317 13.4659 22.2385 12.6621C22.2385 12.5531 22.2521 12.4441 22.2589 12.3146C23.7985 12.2261 25.0179 11.5993 25.8218 10.2914C26.6188 8.99704 26.6256 7.63457 26.0193 6.16992C26.6461 6.20398 27.2251 6.18355 27.7837 6.27892C28.3832 6.3811 28.7715 6.95334 28.8056 7.60732C28.8124 7.79807 28.8056 7.99563 28.8056 8.18637C28.8056 12.9073 28.8056 17.6351 28.8056 22.356C28.8056 23.4596 28.2538 24.0114 27.1502 24.0114C22.9606 24.0114 18.771 24.0114 14.5814 24.0046C14.2545 24.0046 13.9956 24.0932 13.7367 24.2839C11.7748 25.7009 9.80601 27.1042 7.84406 28.5144C7.61244 28.6847 7.374 28.746 7.11514 28.6165C6.84945 28.4803 6.78814 28.2419 6.78814 27.9626C6.79496 26.8726 6.79496 25.7826 6.78814 24.6926C6.78814 24.1681 6.63827 24.025 6.12054 24.0182C5.45293 24.0182 4.77851 24.025 4.1109 24.0182C3.13674 24.0046 2.57812 23.446 2.57812 22.465C2.57812 17.5738 2.57812 12.6757 2.57812 7.78444C2.57812 6.75578 3.12992 6.20398 4.15859 6.20398C6.07966 6.20398 7.99393 6.20398 9.915 6.20398C10.0172 6.20398 10.1126 6.20398 10.2488 6.20398C10.0308 6.63997 9.81963 7.03509 9.6357 7.44383C9.28827 8.23406 9.13159 9.06516 9.13159 9.93033C9.13159 11.6334 9.12477 13.3365 9.1384 15.0396C9.1384 15.2984 9.05665 15.4824 8.87272 15.6595C8.29367 16.2181 7.73506 16.7972 7.15601 17.3626C6.91077 17.601 6.78133 17.8667 6.80177 18.2073C6.80858 18.3981 6.80177 18.5956 6.80177 18.7864C6.80858 19.4335 7.18326 19.8014 7.85768 19.8014C9.42452 19.8082 10.9914 19.8014 12.5582 19.8014C12.6672 19.8014 12.783 19.8014 12.9192 19.8014C13.0895 20.578 13.4642 21.2047 14.1182 21.6475C14.6087 21.9813 15.1537 22.1448 15.7532 22.138C17.0407 22.1108 17.9263 21.3682 18.4849 19.8014Z" fill="white"/>
<path d="M23.6095 18.8429C18.3163 18.8429 13.0435 18.8429 7.75716 18.8429C7.68223 18.441 7.68904 18.1004 8.03647 17.7938C8.62233 17.2625 9.1605 16.6698 9.73274 16.1248C9.98479 15.8864 10.0734 15.6207 10.0734 15.2801C10.0597 13.5566 10.0665 11.8262 10.0665 10.1027C10.0734 7.52084 11.4699 5.52483 13.8951 4.64603C14.2425 4.5166 14.3038 4.28498 14.2902 3.95118C14.2561 3.26994 14.6785 2.69771 15.312 2.52059C15.932 2.34347 16.62 2.62959 16.9197 3.23588C17.0219 3.44025 17.0696 3.69231 17.0764 3.92393C17.0901 4.48254 17.1037 4.48935 17.6282 4.70735C18.0847 4.89809 18.5206 5.14333 18.9703 5.36814C18.7659 5.7292 18.5683 6.01531 18.4253 6.33549C17.3625 8.65168 18.5343 11.3153 20.9731 12.0919C21.2319 12.1737 21.3205 12.2827 21.3137 12.562C21.2933 13.5157 21.2933 14.4694 21.3205 15.4231C21.3273 15.6275 21.4227 15.8659 21.5658 16.0158C22.1107 16.5949 22.6557 17.1739 23.2552 17.6985C23.6163 18.0186 23.7048 18.3661 23.6095 18.8429Z" fill="white"/>
<path d="M18.9766 8.09121C18.9766 6.25869 20.4276 4.80766 22.2669 4.81448C24.0517 4.82129 25.5232 6.28594 25.53 8.06396C25.5368 9.88285 24.0586 11.3679 22.2465 11.3679C20.4344 11.3611 18.9766 9.90329 18.9766 8.09121ZM22.7097 9.01087C22.7097 8.85419 22.7097 8.73157 22.7097 8.60894C22.7097 7.9754 22.7233 7.34185 22.7029 6.70149C22.6893 6.27913 22.2737 6.06113 21.9672 6.32681C21.5993 6.64018 21.2519 6.98761 20.9453 7.3691C20.8568 7.4781 20.884 7.79146 20.9794 7.90727C21.0748 8.02308 21.3268 8.02308 21.5176 8.0299C21.5925 8.03671 21.6811 7.94134 21.7696 7.88002C21.7696 8.26833 21.7696 8.62938 21.7696 9.01087C21.5857 9.0245 21.4154 9.01768 21.2519 9.04493C20.993 9.08581 20.8431 9.2493 20.85 9.50817C20.8568 9.7466 20.9998 9.93735 21.2451 9.94416C21.9127 9.9646 22.5803 9.9646 23.2479 9.94416C23.5136 9.93735 23.643 9.73979 23.6362 9.47411C23.6294 9.22205 23.4863 9.07218 23.2411 9.03812C23.0844 9.01768 22.9209 9.01768 22.7097 9.01087Z" fill="white"/>
<path d="M17.4507 19.8223C17.3144 20.5989 16.5582 21.1915 15.6931 21.1915C14.8415 21.1915 14.0786 20.6125 13.9219 19.8223C15.1004 19.8223 16.2721 19.8223 17.4507 19.8223Z" fill="white"/>
</g>
<defs>
<filter id="filter0_d_548_6278" x="0.402404" y="0.293029" width="30.5819" height="30.5682" filterUnits="userSpaceOnUse" color-interpolation-filters="sRGB">
<feFlood flood-opacity="0" result="BackgroundImageFix"/>
<feColorMatrix in="SourceAlpha" type="matrix" values="0 0 0 0 0 0 0 0 0 0 0 0 0 0 0 0 0 0 127 0" result="hardAlpha"/>
<feOffset/>
<feGaussianBlur stdDeviation="1.08786"/>
<feComposite in2="hardAlpha" operator="out"/>
<feColorMatrix type="matrix" values="0 0 0 0 1 0 0 0 0 1 0 0 0 0 1 0 0 0 0.48 0"/>
<feBlend mode="normal" in2="BackgroundImageFix" result="effect1_dropShadow_548_6278"/>
<feBlend mode="normal" in="SourceGraphic" in2="effect1_dropShadow_548_6278" result="shape"/>
</filter>
</defs>
</svg>
