<svg width="29" height="28" viewBox="0 0 29 28" fill="none" xmlns="http://www.w3.org/2000/svg">
<g filter="url(#filter0_d_548_6240)">
<path d="M25.7594 10.1342V4.96795C25.7594 3.36347 25.0311 2.71484 23.2218 2.71484H18.6245C16.8152 2.71484 16.0869 3.36347 16.0869 4.96795V10.1228C16.0869 11.7387 16.8152 12.3759 18.6245 12.3759H23.2218C25.0311 12.3873 25.7594 11.7387 25.7594 10.1342Z" fill="white"/>
<path d="M12.6724 10.1342V4.96795C12.6724 3.36347 11.9442 2.71484 10.1349 2.71484H5.53759C3.72828 2.71484 3 3.36347 3 4.96795V10.1228C3 11.7387 3.72828 12.3759 5.53759 12.3759H10.1349C11.9442 12.3873 12.6724 11.7387 12.6724 10.1342Z" fill="white"/>
<path d="M12.6724 22.9337V18.3364C12.6724 16.5271 11.9442 15.7988 10.1349 15.7988H5.53759C3.72828 15.7988 3 16.5271 3 18.3364V22.9337C3 24.743 3.72828 25.4713 5.53759 25.4713H10.1349C11.9442 25.4713 12.6724 24.743 12.6724 22.9337Z" fill="white"/>
<path d="M20.4173 17.3228C20.5343 17.1877 20.6423 17.0506 20.7593 16.925C21.6971 15.9296 23.1101 16.0115 23.9903 16.8299C24.5105 17.3152 24.7841 17.9395 24.8633 18.6646C24.9479 19.4449 24.7643 20.1548 24.3629 20.8077C23.9597 21.4662 23.4341 22.0086 22.8797 22.5225C22.1885 23.1658 21.4883 23.7996 20.7917 24.4353C20.5577 24.6484 20.2949 24.6579 20.0663 24.4486C19.2401 23.693 18.414 22.9393 17.5986 22.1704C17.172 21.7688 16.7886 21.3215 16.479 20.8115C15.939 19.9169 15.8022 18.9634 16.1352 17.9509C16.4988 16.8451 17.4762 16.1466 18.5814 16.2037C19.2257 16.238 19.7531 16.5425 20.1869 17.0354C20.2661 17.1268 20.3381 17.2238 20.4173 17.3228Z" fill="white"/>
</g>
<defs>
<filter id="filter0_d_548_6240" x="0.733804" y="0.448648" width="27.2922" height="27.2883" filterUnits="userSpaceOnUse" color-interpolation-filters="sRGB">
<feFlood flood-opacity="0" result="BackgroundImageFix"/>
<feColorMatrix in="SourceAlpha" type="matrix" values="0 0 0 0 0 0 0 0 0 0 0 0 0 0 0 0 0 0 127 0" result="hardAlpha"/>
<feOffset/>
<feGaussianBlur stdDeviation="1.1331"/>
<feComposite in2="hardAlpha" operator="out"/>
<feColorMatrix type="matrix" values="0 0 0 0 1 0 0 0 0 1 0 0 0 0 1 0 0 0 0.48 0"/>
<feBlend mode="normal" in2="BackgroundImageFix" result="effect1_dropShadow_548_6240"/>
<feBlend mode="normal" in="SourceGraphic" in2="effect1_dropShadow_548_6240" result="shape"/>
</filter>
</defs>
</svg>
