<svg width="36" height="28" viewBox="0 0 36 28" fill="none" xmlns="http://www.w3.org/2000/svg">
<g filter="url(#filter0_d_548_6276)">
<path d="M27.3065 22.7722C27.3905 23.4652 27.6703 24.0296 28.1366 24.5069C28.2765 24.6492 28.4351 24.7731 28.5843 24.9107C28.7476 25.0622 28.7942 25.2503 28.7196 25.4523C28.6403 25.6588 28.4817 25.7781 28.2579 25.7781C26.2573 25.7597 24.5225 25.1494 23.2353 23.5616C23.0861 23.378 22.9462 23.1807 22.8343 22.9742C22.7457 22.8227 22.6477 22.7676 22.4659 22.7676C20.6331 22.7768 18.8004 22.7722 16.963 22.7722C16.1749 22.7722 15.508 22.4923 14.9857 21.9095C14.4494 21.3175 14.3048 20.6016 14.3654 19.8352C14.3841 19.5966 14.5566 19.436 14.8038 19.3947C14.9017 19.3809 15.0043 19.3809 15.1069 19.3809C17.3361 19.3809 19.5652 19.3855 21.799 19.3809C23.5991 19.3763 25.0075 18.2658 25.3759 16.5586C25.4318 16.2971 25.4458 16.0263 25.4505 15.7601C25.4598 14.8056 25.4505 13.8465 25.4551 12.892C25.4551 12.4055 25.6184 12.2403 26.108 12.2403C27.661 12.2403 29.2139 12.2357 30.7715 12.2403C32.3338 12.2449 33.4157 13.3142 33.4203 14.8561C33.4203 16.6229 33.4203 18.3897 33.4203 20.1565C33.4203 21.6938 32.3291 22.7676 30.7668 22.7676C29.7176 22.7676 28.6683 22.7676 27.619 22.7676C27.5164 22.7722 27.4325 22.7722 27.3065 22.7722Z" fill="white"/>
<path d="M24.4241 15.7642C24.4194 16.9665 23.7386 17.9348 22.638 18.256C22.3256 18.3478 21.9805 18.3753 21.6493 18.3753C19.0378 18.3845 16.4263 18.3845 13.8147 18.3753C13.6049 18.3753 13.4836 18.4396 13.3717 18.6186C12.4903 20.0549 11.1705 20.8901 9.51966 21.2343C9.07197 21.3261 8.61495 21.3491 8.15793 21.3858C7.79418 21.4133 7.58899 21.2986 7.50038 21.0645C7.40711 20.8259 7.49106 20.6332 7.78019 20.3991C8.3538 19.9356 8.72221 19.3528 8.87611 18.6369C8.8901 18.5635 8.89476 18.4901 8.90875 18.3937C8.79216 18.3891 8.70356 18.3799 8.61495 18.3799C7.55634 18.3799 6.5024 18.3845 5.44379 18.3753C3.89086 18.3662 2.8136 17.2923 2.8136 15.7642C2.8136 13.2539 2.8136 10.7483 2.8136 8.23808C2.8136 7.29732 2.80893 6.35656 2.8136 5.4158C2.81826 3.93812 3.91417 2.84133 5.41115 2.84133C10.8814 2.83674 16.3516 2.83674 21.8266 2.84133C23.3468 2.84133 24.4194 3.93353 24.4241 5.46628C24.4288 7.86636 24.4241 10.2664 24.4241 12.6711C24.4241 13.6991 24.4288 14.7316 24.4241 15.7642Z" fill="white"/>
</g>
<defs>
<filter id="filter0_d_548_6276" x="0.791438" y="0.817806" width="34.6486" height="26.9796" filterUnits="userSpaceOnUse" color-interpolation-filters="sRGB">
<feFlood flood-opacity="0" result="BackgroundImageFix"/>
<feColorMatrix in="SourceAlpha" type="matrix" values="0 0 0 0 0 0 0 0 0 0 0 0 0 0 0 0 0 0 127 0" result="hardAlpha"/>
<feOffset/>
<feGaussianBlur stdDeviation="1.01004"/>
<feComposite in2="hardAlpha" operator="out"/>
<feColorMatrix type="matrix" values="0 0 0 0 1 0 0 0 0 1 0 0 0 0 1 0 0 0 0.48 0"/>
<feBlend mode="normal" in2="BackgroundImageFix" result="effect1_dropShadow_548_6276"/>
<feBlend mode="normal" in="SourceGraphic" in2="effect1_dropShadow_548_6276" result="shape"/>
</filter>
</defs>
</svg>
