<svg width="25" height="25" viewBox="0 0 25 25" fill="none" xmlns="http://www.w3.org/2000/svg">
<g filter="url(#filter0_d_548_6275)">
<path d="M21.5618 7.41133C20.7006 6.45897 19.2619 5.98279 17.1748 5.98279H16.9317V5.94226C16.9317 4.24017 16.9317 2.13281 13.1222 2.13281H11.5822C7.77278 2.13281 7.77278 4.2503 7.77278 5.94226V5.99292H7.52962C5.43239 5.99292 4.00385 6.4691 3.14267 7.42147C2.13965 8.53593 2.17004 10.0354 2.27136 11.0587L2.28149 11.1296L2.34855 11.8337C2.37022 12.0613 2.49294 12.2671 2.68467 12.3917C2.92837 12.5501 3.26456 12.7643 3.47701 12.8824C3.61885 12.9735 3.77083 13.0546 3.9228 13.1356C5.65529 14.088 7.56001 14.7263 9.49513 15.0404C9.58632 15.9927 10.0017 17.1072 12.2205 17.1072C14.4393 17.1072 14.875 16.0029 14.9459 15.0201C17.0127 14.6858 19.0086 13.9664 20.812 12.9127C20.8728 12.8824 20.9134 12.852 20.964 12.8216C21.3345 12.6122 21.7177 12.358 22.073 12.1048C22.2455 11.9819 22.3552 11.7901 22.3786 11.5796L22.3824 11.545L22.4331 11.0688C22.4432 11.008 22.4432 10.9574 22.4533 10.8864C22.5344 9.86316 22.5141 8.46501 21.5618 7.41133ZM13.4566 14.3514C13.4566 15.4254 13.4566 15.5875 12.2104 15.5875C10.9642 15.5875 10.9642 15.395 10.9642 14.3616V13.085H13.4566V14.3514ZM9.22158 5.98279V5.94226C9.22158 4.21991 9.22158 3.58162 11.5822 3.58162H13.1222C15.4829 3.58162 15.4829 4.23004 15.4829 5.94226V5.99292H9.22158V5.98279Z" fill="white"/>
<path d="M20.9332 14.4493C21.4723 14.1971 22.0914 14.624 22.0376 15.2167L21.715 18.7701C21.5022 20.7964 20.6714 22.8632 16.2136 22.8632H8.49335C4.03548 22.8632 3.20469 20.7964 2.99193 18.7802L2.6869 15.4249C2.63365 14.8391 3.2384 14.4128 3.77581 14.6519C4.93039 15.1656 6.66363 15.8995 7.83941 16.228C8.08802 16.2974 8.28944 16.4775 8.40813 16.7067C9.04771 17.9419 10.3572 18.5978 12.2217 18.5978C14.068 18.5978 15.3928 17.9166 16.0351 16.6766C16.154 16.4472 16.3561 16.2672 16.6048 16.1971C17.8583 15.844 19.7166 15.0184 20.9332 14.4493Z" fill="white"/>
</g>
<defs>
<filter id="filter0_d_548_6275" x="0.503634" y="0.412813" width="23.6998" height="24.1705" filterUnits="userSpaceOnUse" color-interpolation-filters="sRGB">
<feFlood flood-opacity="0" result="BackgroundImageFix"/>
<feColorMatrix in="SourceAlpha" type="matrix" values="0 0 0 0 0 0 0 0 0 0 0 0 0 0 0 0 0 0 127 0" result="hardAlpha"/>
<feOffset/>
<feGaussianBlur stdDeviation="0.86"/>
<feComposite in2="hardAlpha" operator="out"/>
<feColorMatrix type="matrix" values="0 0 0 0 1 0 0 0 0 1 0 0 0 0 1 0 0 0 0.48 0"/>
<feBlend mode="normal" in2="BackgroundImageFix" result="effect1_dropShadow_548_6275"/>
<feBlend mode="normal" in="SourceGraphic" in2="effect1_dropShadow_548_6275" result="shape"/>
</filter>
</defs>
</svg>
