<svg width="33" height="34" viewBox="0 0 33 34" fill="none" xmlns="http://www.w3.org/2000/svg">
<g filter="url(#filter0_d_548_6274)">
<path d="M16.1309 31.4017C16.0344 31.3554 15.9341 31.313 15.8376 31.2667C15.3553 31.0158 15.062 30.63 15.0388 30.082C15.0157 29.5187 15.0157 28.9514 15.0388 28.3842C15.0736 27.6472 15.7218 27.0684 16.4704 27.0684C17.2268 27.0684 17.8712 27.6549 17.902 28.4035C17.9252 28.9476 17.9213 29.4955 17.9059 30.0434C17.8905 30.6531 17.5084 31.1355 16.9258 31.34C16.8795 31.3554 16.8332 31.3824 16.7869 31.4056C16.5669 31.4017 16.347 31.4017 16.1309 31.4017Z" fill="white"/>
<path d="M16.4702 8.25196C21.2512 8.2481 25.1523 12.1377 25.1562 16.9148C25.1601 21.7305 21.2782 25.6201 16.4586 25.624C11.6776 25.6278 7.78418 21.7267 7.78418 16.9341C7.78418 12.1454 11.6738 8.25581 16.4702 8.25196ZM16.4856 11.1537C13.3022 11.1537 10.713 13.7198 10.6821 16.8647C10.6512 20.0983 13.2906 22.7492 16.5319 22.7261C19.6691 22.7029 22.2429 20.1291 22.2544 16.9341C22.266 13.7545 19.6691 11.1537 16.4856 11.1537Z" fill="white"/>
<path d="M25.8501 6.20354C26.4637 6.23055 26.9228 6.51609 27.1621 7.08333C27.3975 7.63899 27.3087 8.17535 26.8958 8.62296C26.5215 9.02813 26.128 9.41786 25.7228 9.79602C24.9279 10.5292 23.7085 10.2205 23.3612 9.19791C23.1953 8.70785 23.2725 8.22937 23.6198 7.8435C24.0288 7.39203 24.4687 6.96371 24.9086 6.54311C25.1633 6.29615 25.4913 6.19582 25.8501 6.20354Z" fill="white"/>
<path d="M17.9068 4.64508C17.9068 4.9229 17.9184 5.19688 17.903 5.4747C17.8605 6.21944 17.22 6.80983 16.4675 6.80983C15.7266 6.80983 15.0745 6.22716 15.0398 5.49014C15.0128 4.91133 15.0128 4.33252 15.0398 3.75371C15.0784 3.03213 15.7228 2.46875 16.4714 2.46875C17.2277 2.46875 17.8605 3.03984 17.903 3.77686C17.9184 4.06627 17.903 4.35567 17.9068 4.64508Z" fill="white"/>
<path d="M28.7567 18.3742C28.4789 18.3742 28.2049 18.3897 27.9271 18.3704C27.1824 18.3241 26.592 17.6796 26.5997 16.9311C26.6035 16.1786 27.1978 15.5342 27.9425 15.5072C28.4866 15.4879 29.0345 15.4879 29.5825 15.5033C30.3504 15.5303 30.933 16.1554 30.9408 16.9272C30.9485 17.6951 30.3697 18.3279 29.6056 18.3742C29.3201 18.3897 29.0384 18.3781 28.7567 18.3742Z" fill="white"/>
<path d="M4.16097 18.3737C3.88314 18.3737 3.60917 18.3891 3.33134 18.3698C2.56731 18.3273 1.99236 17.6984 2.00008 16.9228C2.00779 16.151 2.59046 15.5298 3.35835 15.5028C3.89086 15.4835 4.42722 15.4835 4.95973 15.5028C5.73533 15.5298 6.33344 16.1626 6.33729 16.9343C6.34115 17.6945 5.75077 18.3312 4.9906 18.3737C4.71277 18.3891 4.43494 18.3737 4.16097 18.3737Z" fill="white"/>
<path d="M7.29111 6.35156C7.70785 6.36314 8.0397 6.4789 8.30209 6.73358C8.64938 7.06543 8.99667 7.40114 9.32466 7.76C10.0501 8.5549 9.75298 9.75883 8.74199 10.1138C8.2365 10.2913 7.7503 10.2026 7.35285 9.84758C6.95925 9.49643 6.5811 9.12599 6.23381 8.7324C5.8325 8.27707 5.77077 7.73299 6.0293 7.18505C6.28784 6.64097 6.74702 6.38243 7.29111 6.35156Z" fill="white"/>
<path d="M7.21064 27.5929C6.65499 27.5929 6.13406 27.2456 5.90639 26.6707C5.68644 26.1189 5.84079 25.5015 6.29998 25.0693C6.60482 24.7837 6.9058 24.4943 7.21836 24.2165C8.02484 23.4988 9.24034 23.8152 9.57605 24.8416C9.74583 25.3625 9.63779 25.8526 9.26349 26.2578C8.95865 26.5858 8.63452 26.9022 8.31038 27.2109C8.02869 27.4771 7.68527 27.6006 7.21064 27.5929Z" fill="white"/>
<path d="M25.8595 27.597C25.273 27.597 24.9025 27.4349 24.6015 27.1108C24.37 26.86 24.1539 26.5937 23.9031 26.3661C23.3899 25.8992 23.4246 25.0078 23.88 24.4946C24.3121 24.0084 25.0029 23.8579 25.5817 24.1319C25.628 24.155 25.6743 24.1782 25.7129 24.2129C26.0756 24.5756 26.4576 24.9229 26.7933 25.3126C27.1869 25.768 27.2332 26.3005 26.9824 26.8446C26.7354 27.3809 26.2762 27.5816 25.8595 27.597Z" fill="white"/>
<path d="M18.644 20.5756C18.3932 20.7299 18.0266 20.919 17.5558 21.0502C17.2934 21.1235 16.6761 21.2701 15.8927 21.1814C15.2097 21.1042 14.5576 20.8611 13.9248 20.4598C11.9298 19.1903 11.2931 16.3888 12.5433 14.3823C12.8482 13.8922 13.2148 13.4755 13.6585 13.1359C13.9711 12.8967 14.2373 12.7578 14.3261 12.7115C14.9319 12.4028 15.4991 12.3063 15.885 12.2793C14.5074 13.6376 14.0444 15.6711 14.712 17.4577C15.3332 19.1324 16.8497 20.3325 18.644 20.5756Z" fill="white"/>
</g>
<defs>
<filter id="filter0_d_548_6274" x="0.216287" y="0.685037" width="32.5079" height="32.5049" filterUnits="userSpaceOnUse" color-interpolation-filters="sRGB">
<feFlood flood-opacity="0" result="BackgroundImageFix"/>
<feColorMatrix in="SourceAlpha" type="matrix" values="0 0 0 0 0 0 0 0 0 0 0 0 0 0 0 0 0 0 127 0" result="hardAlpha"/>
<feOffset/>
<feGaussianBlur stdDeviation="0.891856"/>
<feComposite in2="hardAlpha" operator="out"/>
<feColorMatrix type="matrix" values="0 0 0 0 1 0 0 0 0 1 0 0 0 0 1 0 0 0 0.48 0"/>
<feBlend mode="normal" in2="BackgroundImageFix" result="effect1_dropShadow_548_6274"/>
<feBlend mode="normal" in="SourceGraphic" in2="effect1_dropShadow_548_6274" result="shape"/>
</filter>
</defs>
</svg>
