<svg version="1.1" id="Layer_1" xmlns="http://www.w3.org/2000/svg" xmlns:xlink="http://www.w3.org/1999/xlink" x="0px" y="0px"
	 width="100%" viewBox="0 0 1280 1191" enable-background="new 0 0 1280 1191" xml:space="preserve">
<path fill="#FFFFFF" opacity="1.000000" stroke="none" 
	d="
M739.000000,1192.000000 
	C492.666656,1192.000000 246.833328,1192.000000 1.000000,1192.000000 
	C1.000000,795.000000 1.000000,398.000000 1.000000,1.000000 
	C427.666656,1.000000 854.333313,1.000000 1281.000000,1.000000 
	C1281.000000,398.000000 1281.000000,795.000000 1281.000000,1192.000000 
	C1100.500000,1192.000000 920.000000,1192.000000 739.000000,1192.000000 
M288.997742,497.979279 
	C288.997742,497.979279 288.914795,497.983215 288.358917,498.026215 
	C288.159790,498.664917 287.960663,499.303650 287.790192,500.699707 
	C287.638123,501.437134 287.486084,502.174530 286.714630,503.288147 
	C286.315857,506.337341 285.917114,509.386566 285.525421,512.381531 
	C278.331421,513.814026 276.084564,515.925598 276.050720,521.656799 
	C275.976013,534.301392 275.945984,546.947449 276.060944,559.591431 
	C276.122284,566.336548 279.505249,569.867126 286.148651,569.942322 
	C299.291077,570.091064 312.436768,570.028381 325.580505,569.950195 
	C329.876526,569.924622 334.274658,565.970703 333.840576,561.831177 
	C333.291321,556.593567 334.751892,553.324036 340.633362,551.784607 
	C342.033966,548.975891 344.563354,546.199158 344.644104,543.352966 
	C345.040497,529.378357 344.786011,515.385193 344.908905,500.572845 
	C343.972504,499.363373 343.036102,498.153870 342.026489,496.983154 
	C342.026489,496.983154 342.046417,496.902740 341.885651,496.163940 
	C339.816345,495.449463 337.756653,494.151062 335.676117,494.116760 
	C323.579041,493.917145 311.476715,493.970764 299.377228,494.067932 
	C297.883636,494.079895 296.396240,494.859467 294.201324,495.563904 
	C293.449158,495.640228 292.697021,495.716522 291.578003,495.391388 
	C291.050873,495.903137 290.523743,496.414886 289.991028,497.007812 
	C289.991028,497.007812 289.909882,497.002258 289.482727,497.157410 
	C289.214355,497.334473 289.049835,497.580902 288.997742,497.979279 
M487.109192,426.079956 
	C487.109192,426.079956 487.192566,426.179138 486.458618,426.134888 
	C486.043884,426.876160 485.629150,427.617432 485.092346,428.911316 
	C484.914185,429.242615 484.736023,429.573914 483.872162,430.212433 
	C483.415405,433.582214 482.958649,436.952026 482.501556,440.321777 
	C474.511261,443.076538 474.007294,443.796661 474.007019,452.472504 
	C474.006531,465.784943 473.852142,479.100159 474.093506,492.408234 
	C474.174408,496.868835 472.584076,498.113129 468.296997,498.068817 
	C450.493591,497.884735 432.686676,497.944214 414.882446,498.085693 
	C413.244934,498.098694 411.617065,499.326935 409.391388,500.145996 
	C408.854401,500.406525 408.317444,500.667023 407.069153,501.056854 
	C405.601410,505.738617 404.133636,510.420410 402.471039,515.723694 
	C399.377686,516.060364 395.425171,517.014587 395.046417,522.166504 
	C394.621216,527.950134 394.239014,533.742920 394.080048,539.538330 
	C393.915680,545.530945 393.949860,551.533447 394.078033,557.527771 
	C394.146057,560.710632 392.923492,562.141479 389.682526,561.993286 
	C382.393005,561.659912 375.099152,561.311951 367.805603,561.277405 
	C366.496399,561.271301 365.180267,562.739319 363.387939,563.966736 
	C362.528137,564.623718 361.668335,565.280762 360.097076,566.114197 
	C359.067139,570.758301 358.037231,575.402466 356.251404,580.104370 
	C348.501831,582.363037 348.005066,583.026184 348.005310,591.132874 
	C348.005646,603.586731 347.985535,616.040649 348.018158,628.494446 
	C348.033356,634.294739 350.699188,636.978027 356.455872,636.995361 
	C368.079376,637.030334 379.703003,637.018127 391.326599,637.013550 
	C404.881897,637.008301 405.118835,636.759521 405.723572,622.894287 
	C407.228180,622.271301 408.680664,621.414917 410.246307,621.065186 
	C417.648773,619.411560 419.779999,615.316956 416.797302,607.160156 
	C416.835052,605.781250 416.872803,604.402344 417.520660,602.482666 
	C417.689636,599.668213 417.858612,596.853699 418.961395,594.027771 
	C432.365570,594.025085 445.769714,594.021484 459.173889,594.019897 
	C472.345673,594.018372 473.166534,593.183411 473.408081,579.406921 
	C475.091309,578.928406 476.898132,578.688538 478.420532,577.899658 
	C479.756836,577.207275 480.774292,575.899353 482.018188,574.455383 
	C482.018188,574.455383 482.107758,574.048340 482.660950,573.945190 
	C482.818817,573.303040 482.976685,572.660828 483.124542,571.354614 
	C483.261536,570.936523 483.398529,570.518494 484.196869,569.752136 
	C484.452484,568.004639 484.921295,566.258118 484.929718,564.509399 
	C484.993439,551.259766 484.925568,538.009338 485.014557,524.760010 
	C485.027466,522.837097 485.656982,520.918274 486.938171,519.020264 
	C493.431305,519.022766 499.924469,519.019897 506.417603,519.029358 
	C512.987488,519.038879 512.996948,519.044189 512.998413,525.733765 
	C513.009155,576.180359 512.853577,626.628174 513.209106,677.072327 
	C513.259033,684.164917 514.334045,691.981628 517.465088,698.186218 
	C527.445435,717.964050 553.710144,724.129456 572.348694,712.247498 
	C576.938721,709.321228 582.113525,707.312256 587.634705,704.624756 
	C589.424011,703.084778 591.213318,701.544861 593.718384,699.930542 
	C598.819763,697.255432 603.921082,694.580322 609.651001,691.863770 
	C610.100830,691.246582 610.550598,690.629395 611.657715,689.728088 
	C624.386414,682.723633 637.153320,675.787598 649.834167,668.697693 
	C666.526978,659.364502 683.128113,649.867554 699.815308,640.524292 
	C710.162598,634.730774 720.639526,629.168396 730.979797,623.362488 
	C742.450623,616.921753 753.864868,610.378235 765.237915,603.766235 
	C770.576965,600.662231 775.761780,597.292969 781.753784,594.010254 
	C784.823181,592.460632 787.958374,591.027771 790.951233,589.342468 
	C810.662109,578.242981 830.354065,567.109558 850.027954,555.944702 
	C860.232849,550.153442 870.413391,544.318359 880.559143,538.424072 
	C890.957336,532.383118 901.191162,526.051331 911.692322,520.197327 
	C926.648010,511.860168 941.861877,503.986176 956.817139,495.648254 
	C971.529358,487.445862 984.764038,477.288788 995.187317,463.921204 
	C997.222107,461.311707 1001.373047,459.237701 999.808777,454.621094 
	C999.808777,454.621094 999.622620,454.661713 1000.265930,454.599792 
	C1000.419067,454.224823 1000.572205,453.849854 1000.827881,453.157867 
	C1000.827881,453.157867 1001.134766,453.028137 1001.773560,452.964783 
	C1002.174866,452.294525 1002.576172,451.624268 1003.236084,450.336700 
	C1005.359436,447.566711 1007.555969,444.849426 1009.594666,442.018524 
	C1027.473389,417.193085 1028.149048,384.925659 1010.819946,359.815338 
	C1000.538330,344.916992 986.572266,333.950500 970.875549,325.140259 
	C951.611633,314.327820 932.329773,303.547394 912.941040,292.089966 
	C912.433716,291.680023 911.973083,291.187134 911.412537,290.871857 
	C861.749756,262.938171 812.079346,235.018143 762.131104,206.571213 
	C753.437134,202.012451 744.743103,197.453705 736.045532,192.986450 
	C736.045532,192.986450 736.104065,192.916000 735.763916,192.354202 
	C728.148926,187.931931 720.583679,183.421341 712.910278,179.102890 
	C682.629150,162.061325 652.306641,145.093292 622.016418,128.067886 
	C613.657166,123.369324 605.356567,118.566353 596.538940,113.304138 
	C596.093933,113.166824 595.648926,113.029503 594.945862,112.355202 
	C594.260498,112.037788 593.575195,111.720383 592.789917,111.162895 
	C592.789917,111.162895 592.532104,111.129616 592.286621,110.564293 
	C587.648499,107.971245 583.184204,104.964928 578.316772,102.916931 
	C574.475464,101.300690 570.138123,100.863564 565.140381,99.724541 
	C562.750549,99.781998 560.360657,99.839455 557.378174,99.542648 
	C553.831116,100.635544 550.284119,101.728439 546.065186,102.840309 
	C545.700195,103.080032 545.335144,103.319756 544.316895,103.559608 
	C542.210266,105.042206 540.103577,106.524803 538.000793,108.001221 
	C538.000793,108.001221 538.008606,107.999687 537.462402,108.099457 
	C537.268127,108.402481 537.073914,108.705498 536.749695,109.132004 
	C536.749695,109.132004 536.770630,109.310028 536.138611,109.476738 
	C535.689148,109.922211 535.239746,110.367683 534.222717,111.071472 
	C533.182922,112.066628 532.143066,113.061783 530.572998,114.263077 
	C530.431824,114.600563 530.290710,114.938049 530.035889,115.803154 
	C529.682556,116.197975 529.329224,116.592796 528.495300,117.282150 
	C528.387146,117.630783 528.279053,117.979416 528.042297,118.972656 
	C527.333313,120.311455 526.624268,121.650261 525.199829,123.127220 
	C522.802246,126.915329 520.165588,130.577011 518.076111,134.528046 
	C516.088196,138.286896 513.541504,142.257401 513.218079,146.293320 
	C512.282715,157.965469 512.098816,169.716553 512.057678,181.438171 
	C511.928558,218.218704 512.036804,255.000076 511.906342,291.780609 
	C511.898254,294.056183 510.623077,296.327240 509.037140,298.794952 
	C505.002991,298.730774 500.968842,298.666626 496.414825,298.209015 
	C494.959381,298.369049 493.503967,298.529083 491.294617,298.874939 
	C490.519623,298.876831 489.744659,298.878723 488.616699,298.452148 
	C488.071930,298.955444 487.527161,299.458771 486.760620,300.421600 
	C486.479218,300.601532 486.197815,300.781464 485.145111,301.078064 
	C481.055054,303.689514 483.443939,307.740112 483.062012,311.115692 
	C482.753387,313.843536 482.632996,315.699188 479.116669,316.164490 
	C475.372223,316.660004 473.006653,319.272461 473.005829,323.395386 
	C473.001587,344.193604 472.834198,364.995178 473.237427,385.785583 
	C473.284058,388.189728 476.042419,391.467407 478.395081,392.659241 
	C481.153290,394.056610 484.841644,393.902557 488.129517,393.922119 
	C505.433044,394.025024 522.737671,394.008362 540.041443,393.933533 
	C542.994324,393.920776 545.957275,393.100647 548.894592,393.211090 
	C559.260742,393.600891 569.545715,393.175812 578.196289,386.736023 
	C583.990784,382.422333 589.233032,377.249329 590.587646,368.854462 
	C594.093872,363.742096 597.600098,358.629761 601.735901,352.994537 
	C601.918762,351.691925 602.101624,350.389282 602.182190,349.057678 
	C602.182190,349.057678 602.205811,349.161316 602.879150,348.800293 
	C602.949646,347.537109 603.020142,346.273956 603.017151,345.014252 
	C603.017151,345.014252 603.053101,345.078400 603.724915,344.644196 
	C604.081177,342.699768 604.743042,340.755737 604.745728,338.810791 
	C604.768188,322.231262 604.670898,305.651520 605.336609,288.705231 
	C610.255737,284.901917 614.823608,287.445343 619.132568,289.796814 
	C626.249207,293.680511 633.099243,298.049896 640.172241,302.017273 
	C657.773071,311.889862 675.469360,321.592285 693.064270,331.475342 
	C707.902405,339.809906 722.638000,348.326721 737.444275,356.718170 
	C752.821411,365.433136 768.241699,374.072144 783.618286,382.788086 
	C792.260071,387.686523 800.597900,393.207306 809.542480,397.459564 
	C817.371643,401.181549 823.650940,405.891510 826.969116,414.676880 
	C826.644592,415.757568 826.320068,416.838257 825.730591,418.176880 
	C825.730591,418.176880 825.362793,418.214752 824.618469,418.114258 
	C822.130127,419.847595 819.641785,421.580902 816.828979,423.700623 
	C816.364502,423.882904 815.899963,424.065186 814.842285,424.238953 
	C814.566956,424.505829 814.291626,424.772675 813.506592,425.493103 
	C795.259888,435.908813 777.013123,446.324554 758.069641,456.898132 
	C755.492004,458.501465 752.914307,460.104797 749.862488,461.608917 
	C749.524231,461.642059 749.241699,461.785187 748.325439,462.073578 
	C747.046265,462.993103 745.767151,463.912628 743.908936,464.844879 
	C743.285217,465.255798 742.661438,465.666718 741.383484,466.150940 
	C740.708496,466.682373 740.033508,467.213806 738.680542,467.803772 
	C712.526672,482.595093 686.376526,497.392853 660.217224,512.174622 
	C649.813232,518.053528 639.489197,524.084900 628.943359,529.698547 
	C620.158875,534.374634 610.415527,530.560547 608.662354,521.419006 
	C608.738037,500.968750 608.260010,480.496155 609.082092,460.075958 
	C609.639771,446.224731 597.861572,427.905609 580.697021,426.036316 
	C571.695435,425.056000 562.567627,424.998108 553.494751,424.956207 
	C532.041931,424.857117 510.587921,425.016754 488.482880,425.040558 
	C488.029877,425.429962 487.576874,425.819336 487.109192,426.079956 
M333.792236,292.517975 
	C332.897736,292.199127 332.003235,291.880280 330.243256,291.639587 
	C328.531128,291.509247 326.819000,291.378906 324.689117,290.652130 
	C324.078644,290.446655 323.468781,290.063965 322.857605,290.061890 
	C311.251862,290.022827 299.645782,289.999756 288.040436,290.075195 
	C287.011475,290.081879 285.987030,290.791107 284.231934,291.302917 
	C282.766693,291.354279 281.301422,291.405670 279.280090,291.101868 
	C276.119202,290.855438 274.093201,291.897217 274.202728,296.209747 
	C273.992218,297.164734 273.781708,298.119720 273.157532,299.730133 
	C272.989960,302.335022 272.822388,304.939911 272.662140,307.431152 
	C262.720947,309.534607 262.030823,310.393219 262.019806,320.513855 
	C262.004791,334.315247 261.972412,348.116791 262.027618,361.917969 
	C262.053955,368.506714 264.472717,370.957275 271.032440,370.983185 
	C286.330109,371.043610 301.628296,371.026733 316.926117,370.981628 
	C322.067810,370.966492 325.174225,368.117035 324.900421,363.090271 
	C324.689941,359.225281 325.325043,356.225861 329.749969,354.257294 
	C331.112244,353.812378 332.474487,353.367432 334.388702,352.759491 
	C334.553070,352.428009 334.717438,352.096497 335.197662,351.094513 
	C335.671661,349.693817 336.145660,348.293121 336.922852,346.362976 
	C336.856537,344.964142 336.790222,343.565277 336.516998,341.291016 
	C336.582855,339.802155 336.648743,338.313293 336.998352,336.106293 
	C336.868744,323.780212 336.739105,311.454163 336.395630,298.405365 
	C336.392609,297.904541 336.389587,297.403717 336.751801,296.433136 
	C335.810974,295.306580 334.870148,294.180023 333.986084,292.999420 
	C333.986084,292.999420 333.961426,293.073853 333.792236,292.517975 
M505.073517,105.210899 
	C504.420959,104.451820 503.768402,103.692749 503.032532,102.970924 
	C503.032532,102.970924 503.065369,102.885735 502.905334,102.146431 
	C501.159973,101.429382 499.420135,100.105080 497.668427,100.089256 
	C480.231720,99.931778 462.792267,99.920700 445.356293,100.112503 
	C443.871582,100.128830 442.406219,101.904526 440.706177,103.331581 
	C440.435425,103.541290 440.164673,103.750999 439.440338,104.215088 
	C439.319550,104.530800 439.198792,104.846512 439.023621,105.594406 
	C439.023621,105.594406 438.851532,105.994576 438.450928,106.258186 
	C438.476654,106.821228 438.502380,107.384277 438.647522,108.775223 
	C438.551361,110.152657 438.455200,111.530098 437.788483,113.195885 
	C436.794037,114.139626 435.959015,115.484283 434.776276,115.954567 
	C430.652466,117.594246 429.011993,120.606789 429.017334,124.848824 
	C429.038025,141.311966 429.054443,157.775238 429.008362,174.238281 
	C428.996185,178.587509 431.300262,181.018951 435.236725,181.980408 
	C437.622162,182.563049 440.125793,182.905746 442.579498,182.923767 
	C455.050934,183.015350 467.523376,182.965469 479.995483,182.965363 
	C494.295471,182.965256 494.295471,182.965347 496.480377,170.060776 
	C498.474396,168.942581 500.238953,167.953079 502.458008,166.637314 
	C502.882721,166.047195 503.307404,165.457077 504.329285,164.745697 
	C504.504059,164.399094 504.678864,164.052490 504.898712,163.132904 
	C505.008423,162.766464 505.118134,162.400024 505.520233,161.853821 
	C505.577789,161.755630 505.703796,161.634384 505.679962,161.563599 
	C505.611633,161.360764 505.482605,161.178391 505.286865,160.058228 
	C505.366730,146.737534 505.446594,133.416824 506.193146,119.764946 
	C505.825165,115.170441 505.457184,110.575935 505.020050,105.951500 
	C505.020050,105.951500 505.067047,105.892609 505.073517,105.210899 
M444.500183,284.658966 
	C445.652283,284.383636 446.804382,284.108337 448.529999,283.477814 
	C453.120056,281.221161 453.239868,276.859528 453.263458,272.714813 
	C453.373444,253.384369 453.399597,234.052490 453.284790,214.722153 
	C453.240204,207.215012 450.898254,205.148026 443.156616,205.128342 
	C427.825165,205.089371 412.491302,204.965958 397.163391,205.199982 
	C392.781311,205.266891 391.348358,203.958099 391.473633,199.541138 
	C391.757111,189.550552 391.626068,179.545258 391.516754,169.547546 
	C391.453094,163.722397 389.609924,160.961258 384.775635,160.870743 
	C371.294830,160.618256 357.804840,160.805923 344.319000,160.901123 
	C340.321350,160.929337 338.233337,163.354187 337.774170,167.116440 
	C337.372589,170.407074 337.283722,173.735855 336.222565,177.012711 
	C329.363678,177.082092 327.023987,179.411789 327.014679,186.264297 
	C326.998840,197.914780 326.995361,209.565308 327.016998,221.215759 
	C327.028900,227.628204 330.270111,230.885956 336.850830,230.959229 
	C344.173065,231.040787 351.507172,231.212143 358.816162,230.891144 
	C363.017822,230.706589 364.161713,232.099960 364.114471,236.226105 
	C363.906677,254.365219 364.002228,272.508057 364.034302,290.649475 
	C364.045715,297.099426 366.743896,299.965210 372.966736,299.980713 
	C393.604584,300.032135 414.243042,299.934662 434.880371,300.053406 
	C438.930420,300.076691 441.328186,298.154175 441.925446,294.583771 
	C442.479431,291.271759 442.045929,287.794617 442.688507,284.184235 
	C443.135010,284.189819 443.581482,284.195435 444.500183,284.658966 
M274.766754,447.833740 
	C283.484467,445.825531 284.508636,444.568512 284.510773,435.861328 
	C284.513702,424.039124 284.552460,412.216766 284.502350,400.394775 
	C284.472473,393.345795 281.555664,390.411987 274.443909,390.380554 
	C261.789673,390.324646 249.134125,390.475403 236.480835,390.357361 
	C232.444244,390.319702 229.381393,391.567657 226.621078,395.510925 
	C226.253586,399.221313 225.886093,402.931671 225.527649,406.550629 
	C219.086761,407.517334 216.208466,409.729156 216.051483,414.418121 
	C215.585220,428.345123 215.209015,442.278839 215.098328,456.212280 
	C215.054276,461.759155 218.752396,464.966278 224.334274,464.980469 
	C237.473633,465.013885 250.613235,465.019348 263.752563,464.976349 
	C269.515869,464.957520 272.805695,461.505463 273.026733,455.749329 
	C273.126831,453.142303 273.661835,450.552002 274.766754,447.833740 
M429.296997,641.628540 
	C429.081604,643.899719 428.866211,646.170837 428.659637,648.349121 
	C420.612823,649.963684 418.933899,651.941833 419.049194,660.225098 
	C419.287109,677.321167 419.642853,694.415710 419.999817,711.509888 
	C420.088043,715.734680 423.140442,718.893494 427.664856,718.924194 
	C444.964722,719.041748 462.269897,719.177856 479.564484,718.850464 
	C486.026276,718.728088 490.108215,716.100891 490.124512,708.435730 
	C490.127625,706.973328 492.018677,705.514893 493.712006,703.816162 
	C498.110596,702.503174 500.166901,699.693359 500.134705,694.964417 
	C500.015472,677.468018 500.138000,659.970093 500.054993,642.473267 
	C500.024292,636.001404 497.320160,633.304932 490.923401,633.278870 
	C473.593292,633.208313 456.262573,633.211670 438.932373,633.269348 
	C433.207977,633.288391 431.072083,635.230042 429.296997,641.628540 
M437.343262,439.617828 
	C437.895172,439.416260 438.447083,439.214661 439.646210,438.756134 
	C443.658203,436.937744 444.942902,433.730713 444.920715,429.468170 
	C444.820099,410.135681 444.887268,390.802338 444.874359,371.469299 
	C444.869537,364.272949 442.145386,361.412872 434.981140,361.394135 
	C415.648285,361.343567 396.315094,361.425446 376.982239,361.380066 
	C371.603394,361.367462 368.004761,363.437225 366.410950,369.584320 
	C366.175446,372.519501 365.939941,375.454651 365.706360,378.366058 
	C358.324219,378.410400 356.005280,380.712250 355.996857,387.890259 
	C355.976593,405.217804 356.106720,422.546448 355.952393,439.872620 
	C355.805634,456.351654 355.804901,456.176941 372.136444,456.041260 
	C389.629395,455.895905 407.124573,456.033264 424.618652,455.994537 
	C431.144257,455.980103 432.972321,454.123413 433.014709,447.779266 
	C433.033630,444.947021 433.039368,442.114716 433.830933,439.110260 
	C434.890900,439.148010 435.950867,439.185760 437.343262,439.617828 
M816.139282,873.556641 
	C815.809326,867.439392 816.628784,860.974487 814.906128,855.278442 
	C811.499023,844.013306 801.400452,840.246826 791.090088,839.427185 
	C776.192932,838.243042 761.170105,838.575623 746.199280,838.404724 
	C737.376404,838.303955 729.017395,840.499939 721.303284,844.721252 
	C713.807617,848.823120 709.162537,854.928589 709.180115,863.905334 
	C709.198669,873.396240 709.157410,882.887329 709.145142,892.378296 
	C709.136841,898.788086 711.652283,904.034973 716.662231,907.976379 
	C724.138123,913.857666 732.932129,916.446777 742.214172,916.681702 
	C756.690735,917.048157 771.219116,917.376282 785.653564,916.515015 
	C792.385559,916.113403 799.234497,913.534607 805.514099,910.769836 
	C812.804626,907.559875 816.231995,901.163086 816.122070,893.023682 
	C816.038818,886.863831 816.127380,880.701721 816.139282,873.556641 
M482.568420,830.207092 
	C485.500916,827.025452 485.110901,823.634460 483.350433,820.049072 
	C481.663330,816.613098 478.603607,816.929321 475.596497,816.938660 
	C471.099579,816.952576 466.602051,816.899597 462.105804,816.957275 
	C452.835876,817.076111 443.933258,818.814392 435.560455,822.970459 
	C428.016876,826.715027 422.742828,832.278809 422.659393,841.044189 
	C422.447083,863.359924 422.490295,885.679688 422.640259,907.996460 
	C422.686829,914.926453 425.600403,917.057800 433.500031,916.931763 
	C440.042816,916.827271 441.687164,915.110474 441.739899,908.002197 
	C441.810303,898.509155 441.886444,889.013794 441.739410,879.522827 
	C441.686188,876.087219 442.843506,874.759705 446.349426,874.862915 
	C453.005768,875.058899 459.671936,874.921082 466.334045,874.920898 
	C486.487152,874.920471 506.640320,874.954407 526.793274,874.897644 
	C532.886780,874.880493 535.366577,872.073975 534.812866,866.216003 
	C534.381470,861.651794 532.281738,860.032288 526.351196,860.024231 
	C501.701172,859.990723 477.050964,860.053711 452.401093,859.990234 
	C440.033691,859.958435 441.900116,861.578308 441.802490,849.468140 
	C441.698059,836.517578 443.597015,834.494690 456.640869,832.958069 
	C457.467194,832.860596 458.301483,832.833130 459.130463,832.756104 
	C466.722412,832.050171 474.313995,831.340454 482.568420,830.207092 
M546.106140,870.514160 
	C546.113831,883.339539 546.011108,896.166809 546.232178,908.988525 
	C546.271362,911.263855 547.271423,915.185974 548.494141,915.469055 
	C552.340698,916.359436 556.742859,916.676941 560.439758,915.573669 
	C562.151245,915.062988 563.610657,910.768494 563.671143,908.154419 
	C563.998718,894.003845 563.811829,879.842102 563.888123,865.684692 
	C563.924561,858.933716 565.786987,855.971680 572.380798,854.713135 
	C578.204468,853.601562 584.275330,853.778137 590.238220,853.405151 
	C595.107788,853.100525 597.731567,850.427979 597.606018,845.859680 
	C597.477234,841.173950 594.918335,838.429443 590.068726,838.462036 
	C584.421509,838.500000 578.701416,838.474426 573.145081,839.332397 
	C553.789001,842.320984 544.889343,848.664368 546.106140,870.514160 
M658.300232,917.244751 
	C655.802063,917.280090 653.296814,917.209106 650.807129,917.373230 
	C645.931274,917.694763 643.450684,920.142334 643.479980,924.408081 
	C643.516418,929.717224 646.172302,932.775757 651.217468,932.673706 
	C658.694824,932.522522 666.177185,932.202026 673.636353,931.662598 
	C687.434509,930.664551 695.582520,921.927795 695.626099,908.182495 
	C695.688416,888.527832 695.764282,868.871704 695.559387,849.219055 
	C695.516968,845.154846 694.269043,841.103149 693.414185,836.092407 
	C698.725464,829.817444 699.514893,825.313599 695.241211,821.471130 
	C691.294739,817.922913 680.872375,817.869934 677.607544,821.762451 
	C676.237000,823.396484 674.898315,826.233337 675.394714,828.005127 
	C676.339600,831.377747 678.614197,834.377747 679.907043,836.745728 
	C679.041321,840.346741 677.574585,843.691223 677.538208,847.051086 
	C677.319885,867.203247 677.313477,887.360229 677.519287,907.512634 
	C677.566040,912.089417 675.565369,914.427551 671.536865,915.281128 
	C667.478027,916.141052 663.331238,916.585938 658.300232,917.244751 
M631.435547,847.866211 
	C631.035400,845.421631 631.342834,842.489746 630.072266,840.644592 
	C628.080139,837.751648 628.724609,836.309204 630.827637,833.929260 
	C635.870789,828.222473 633.369507,820.450989 625.850525,819.069885 
	C622.318298,818.421021 618.168518,818.973816 614.773438,820.247559 
	C609.752808,822.131104 608.461914,830.628784 612.653381,834.031372 
	C615.561279,836.391968 615.822815,837.800293 613.718933,840.823181 
	C612.552551,842.499023 612.702759,845.247559 612.669373,847.518555 
	C612.620667,850.829224 613.071655,854.144958 613.082520,857.459229 
	C613.139221,874.757629 613.091675,892.056274 613.150757,909.354614 
	C613.172913,915.849609 615.114380,917.425476 622.692383,917.476685 
	C628.948181,917.518921 630.787781,915.869995 630.861023,909.638489 
	C631.099609,889.356567 631.246277,869.073547 631.435547,847.866211 
z"/>
<path fill="#542E90" opacity="1.000000" stroke="none" 
	d="
M762.409424,207.097168 
	C812.079346,235.018143 861.749756,262.938171 911.412537,290.871857 
	C911.973083,291.187134 912.433716,291.680023 912.990967,292.907867 
	C913.025696,359.212799 913.005859,424.699860 913.002869,490.186890 
	C913.002563,496.183777 913.110535,502.180695 913.028320,508.432190 
	C891.689880,520.801025 870.488892,532.910828 849.293762,545.030823 
	C831.856018,555.002319 814.425232,564.985962 796.691162,574.961670 
	C796.144958,575.265991 795.898926,575.572815 795.341370,575.854492 
	C794.350464,576.261230 793.671082,576.693176 792.648071,577.118408 
	C789.561768,578.808350 786.819153,580.505005 783.741699,582.308228 
	C778.270752,585.268005 773.134644,588.121216 767.695129,590.985596 
	C767.127441,591.291443 766.863037,591.586121 766.267212,591.888672 
	C764.291687,592.962280 762.647644,594.027954 760.746094,595.027222 
	C760.312256,594.979187 760.135864,594.997498 759.667969,594.714844 
	C759.241760,592.605835 758.989929,590.797791 758.989624,588.989685 
	C758.983765,552.388611 759.021545,515.787537 759.011902,479.186493 
	C759.009949,471.704376 758.852234,464.222321 758.766357,456.740265 
	C777.013123,446.324554 795.259888,435.908813 814.054810,425.256775 
	C814.880493,424.762756 815.157959,424.505096 815.435486,424.247437 
	C815.899963,424.065186 816.364502,423.882904 817.351257,423.455200 
	C820.369934,421.544769 822.866394,419.879761 825.362793,418.214752 
	C825.362793,418.214752 825.730591,418.176880 826.201172,417.992554 
	C837.369995,411.202972 840.255188,405.618286 838.050659,395.951569 
	C836.583679,389.519318 831.953979,385.794647 826.651489,382.773743 
	C810.319397,373.469177 793.893921,364.328308 777.569763,355.009979 
	C771.109558,351.322327 764.820618,347.334869 758.626099,342.999847 
	C758.874695,340.360138 759.016785,338.204468 759.017456,336.048767 
	C759.030823,295.157776 759.027405,254.266769 759.027832,213.375778 
	C759.027832,212.212219 759.134766,211.037643 759.012390,209.887314 
	C758.722229,207.158875 760.360596,206.908234 762.409424,207.097168 
z"/>
<path fill="#EC3B84" opacity="1.000000" stroke="none" 
	d="
M528.975830,116.987602 
	C529.329224,116.592796 529.682556,116.197975 530.339600,115.414688 
	C530.796570,114.703125 530.949890,114.380020 531.103210,114.056931 
	C532.143066,113.061783 533.182922,112.066628 534.873169,110.956573 
	C535.939331,110.331123 536.354980,109.820572 536.770630,109.310028 
	C536.770630,109.310028 536.749695,109.132004 537.068176,108.984009 
	C537.593933,108.557228 537.801270,108.278450 538.008606,107.999680 
	C538.008606,107.999687 538.000793,108.001221 538.361450,108.010483 
	C540.804749,106.532990 542.887451,105.046227 544.970154,103.559471 
	C545.335144,103.319756 545.700195,103.080032 546.828735,102.894890 
	C551.051758,101.931953 554.511292,100.914436 557.970825,99.896912 
	C560.360657,99.839455 562.750549,99.781998 565.783081,100.113602 
	C571.712463,102.538200 577.023376,104.513680 582.277344,106.630531 
	C585.738037,108.024872 589.116699,109.622833 592.532104,111.129616 
	C592.532104,111.129616 592.789917,111.162895 592.937256,111.579231 
	C593.791077,112.294441 594.497498,112.593307 595.203918,112.892181 
	C595.648926,113.029503 596.093933,113.166824 596.792725,113.856964 
	C599.374817,116.596230 601.703186,118.782669 604.015625,121.439461 
	C603.665527,175.652466 603.291382,229.394913 603.017273,283.137848 
	C602.911987,303.784119 603.034424,324.431519 603.053101,345.078400 
	C603.053101,345.078400 603.017151,345.014252 602.754456,345.236847 
	C602.396423,346.693390 602.301086,347.927368 602.205811,349.161316 
	C602.205811,349.161316 602.182190,349.057678 601.875366,349.270935 
	C601.414429,350.828613 601.260376,352.173004 601.106323,353.517395 
	C597.600098,358.629761 594.093872,363.742096 590.009033,369.143768 
	C583.022217,374.168365 575.673157,375.947479 567.878357,375.969574 
	C543.276062,376.039307 518.673523,376.012360 494.071045,375.991791 
	C486.277649,375.985260 483.960480,373.672241 483.956787,365.915802 
	C483.948303,348.128967 483.872925,330.340790 484.086700,312.556305 
	C484.133240,308.684570 485.277679,304.826050 485.916443,300.961426 
	C486.197815,300.781464 486.479218,300.601532 487.177063,300.191833 
	C488.052216,299.601593 488.510956,299.241089 488.969666,298.880585 
	C489.744659,298.878723 490.519623,298.876831 492.067139,298.908081 
	C494.204651,298.828308 495.569672,298.715393 496.934692,298.602478 
	C500.968842,298.666626 505.002991,298.730774 509.937500,298.841064 
	C513.335022,298.904907 515.852844,298.726013 518.324646,298.985718 
	C522.172180,299.390015 523.084167,297.706879 523.092346,294.092285 
	C523.132874,276.283783 523.189758,258.469391 523.677673,240.669067 
	C524.752808,201.447693 521.606323,162.146408 525.915283,122.989075 
	C526.624268,121.650261 527.333313,120.311455 528.346252,118.502701 
	C528.758728,117.684357 528.867249,117.335976 528.975830,116.987602 
z"/>
<path fill="#EC3C85" opacity="1.000000" stroke="none" 
	d="
M489.134369,425.071747 
	C510.587921,425.016754 532.041931,424.857117 553.494751,424.956207 
	C562.567627,424.998108 571.695435,425.056000 580.697021,426.036316 
	C597.861572,427.905609 609.639771,446.224731 609.082092,460.075958 
	C608.260010,480.496155 608.738037,500.968750 608.068665,521.407837 
	C602.236755,520.183960 604.085083,524.332642 604.080444,526.348694 
	C603.958923,579.236389 603.960571,632.124329 603.825684,685.091980 
	C603.710266,685.171692 603.441040,685.087585 603.077759,685.075684 
	C602.171936,685.438416 601.629395,685.813049 601.061035,686.147766 
	C601.035339,686.107849 601.124695,686.075623 600.853516,686.199463 
	C600.432800,686.681152 600.283203,687.038940 599.920227,687.653687 
	C594.680725,690.837646 589.888367,694.329834 584.562622,696.532227 
	C579.272949,698.719604 573.491272,700.639893 567.847656,700.884521 
	C546.718201,701.800537 528.486755,685.147644 528.679443,662.839233 
	C529.125305,611.239380 528.626770,559.631775 528.687195,508.027557 
	C528.692444,503.512024 527.572083,501.793335 522.846069,502.069489 
	C516.207336,502.457428 509.529205,502.133972 502.868713,502.194885 
	C484.114410,502.366394 484.612640,502.764069 484.715881,484.318146 
	C484.817383,466.181366 484.622620,448.042938 484.557861,429.905212 
	C484.736023,429.573914 484.914185,429.242615 485.445709,428.523743 
	C486.263580,427.483826 486.728058,426.831482 487.192566,426.179138 
	C487.192566,426.179138 487.109192,426.079956 487.423340,426.130066 
	C488.203094,425.810730 488.668732,425.441223 489.134369,425.071747 
z"/>
<path fill="#B73894" opacity="1.000000" stroke="none" 
	d="
M603.941101,685.012329 
	C603.960571,632.124329 603.958923,579.236389 604.080444,526.348694 
	C604.085083,524.332642 602.236755,520.183960 607.742981,521.668091 
	C610.415527,530.560547 620.158875,534.374634 628.943359,529.698547 
	C639.489197,524.084900 649.813232,518.053528 660.217224,512.174622 
	C686.376526,497.392853 712.526672,482.595093 739.396729,467.834839 
	C740.754517,467.269806 741.396118,466.673737 742.037720,466.077637 
	C742.661438,465.666718 743.285217,465.255798 744.601562,464.887817 
	C746.534485,463.966644 747.774719,463.002502 749.015015,462.038330 
	C749.241699,461.785187 749.524231,461.642059 750.505981,461.733643 
	C755.183167,460.439056 756.574707,462.667023 756.949280,466.141785 
	C757.091125,467.458313 756.986877,468.801910 756.987122,470.133148 
	C756.994507,508.241364 757.005249,546.349609 757.002197,584.457825 
	C757.001770,589.815552 757.911011,595.421875 753.040527,599.828308 
	C752.292969,600.404297 751.668518,600.734558 750.854736,600.808899 
	C749.441406,601.378235 748.217407,602.203491 746.853638,603.246582 
	C746.408997,603.613403 746.104065,603.762390 745.534912,603.942993 
	C744.845093,604.260376 744.419556,604.546143 743.679565,604.990723 
	C727.883789,614.073242 712.462097,623.102356 696.906494,631.894775 
	C676.028748,643.695557 654.995667,655.221680 634.133057,667.049011 
	C623.947937,672.823059 613.997681,679.011475 603.941101,685.012329 
z"/>
<path fill="#B73894" opacity="1.000000" stroke="none" 
	d="
M603.389038,344.861298 
	C603.034424,324.431519 602.911987,303.784119 603.017273,283.137848 
	C603.291382,229.394913 603.665527,175.652466 604.367249,121.480530 
	C609.869995,123.940788 615.075256,126.714172 620.120178,129.753510 
	C624.872131,132.616348 629.316162,136.005829 634.140625,138.729691 
	C645.229370,144.990280 656.455200,151.008820 667.648621,157.082870 
	C675.169556,161.164062 682.789001,165.066772 690.257812,169.240189 
	C699.250366,174.265076 707.913452,179.931290 717.134277,184.477859 
	C723.311951,187.523941 728.184753,193.765778 736.104065,192.916000 
	C736.104065,192.916000 736.045532,192.986450 736.159302,193.273071 
	C737.626587,194.927795 738.786072,196.602737 740.371033,197.605057 
	C744.700195,200.342987 749.400452,202.529007 753.552795,205.494919 
	C755.234192,206.695938 756.839050,209.348923 756.847961,211.348495 
	C757.035217,253.242554 757.014221,295.137726 756.895386,337.032288 
	C756.890564,338.725861 755.527954,340.415527 754.445068,342.077728 
	C750.441101,340.300781 746.790100,338.553101 743.084412,336.825073 
	C743.029785,336.844696 743.144592,336.861938 742.995911,336.586548 
	C742.250061,336.155884 741.652954,336.000610 741.052124,335.891846 
	C741.048401,335.938385 741.127808,335.889343 740.961060,335.594269 
	C739.216919,334.496826 737.639404,333.694489 736.032837,332.930511 
	C736.003784,332.968903 736.092468,332.931335 735.926208,332.626343 
	C728.752930,328.124634 721.834961,323.769501 714.715942,319.772278 
	C706.241333,315.013885 697.594299,310.562714 688.842957,305.687744 
	C669.510071,294.662415 650.341248,283.954193 631.207275,273.184204 
	C617.309082,265.361328 604.654419,272.893372 604.609497,289.071869 
	C604.670898,305.651520 604.768188,322.231262 604.745728,338.810791 
	C604.743042,340.755737 604.081177,342.699768 603.389038,344.861298 
z"/>
<path fill="#292970" opacity="1.000000" stroke="none" 
	d="
M913.168274,508.177582 
	C913.110535,502.180695 913.002563,496.183777 913.002869,490.186890 
	C913.005859,424.699860 913.025696,359.212799 913.048340,293.239471 
	C932.329773,303.547394 951.611633,314.327820 970.875549,325.140259 
	C986.572266,333.950500 1000.538330,344.916992 1010.819946,359.815338 
	C1028.149048,384.925659 1027.473389,417.193085 1009.594666,442.018524 
	C1007.555969,444.849426 1005.359436,447.566711 1002.818359,450.723511 
	C1001.978699,451.749603 1001.556763,452.388885 1001.134766,453.028137 
	C1001.134766,453.028137 1000.827881,453.157867 1000.491455,453.403259 
	C999.977539,453.986328 999.800049,454.324005 999.622559,454.661682 
	C999.622620,454.661713 999.808777,454.621094 999.395935,454.735046 
	C986.154480,467.047455 971.669128,476.731842 955.840271,484.712067 
	C941.354675,492.015045 927.372375,500.316223 913.168274,508.177582 
z"/>
<path fill="#EB3D85" opacity="1.000000" stroke="none" 
	d="
M482.107788,574.048340 
	C482.107758,574.048340 482.018188,574.455383 481.599091,574.753052 
	C478.322113,575.705505 475.470215,576.895386 472.605408,576.927246 
	C455.660004,577.115601 438.711639,577.027893 421.764282,577.055725 
	C420.005371,577.058594 418.246704,577.210144 416.910553,577.272888 
	C416.910553,586.227295 416.910553,594.625366 416.910553,603.023438 
	C416.872803,604.402344 416.835052,605.781250 416.653687,607.898804 
	C416.090302,619.699341 412.489258,619.945007 403.784515,619.969482 
	C392.629547,620.000916 381.474304,620.006287 370.319366,619.968506 
	C362.065674,619.940613 359.752411,617.598206 359.732330,609.239746 
	C359.706726,598.584290 359.666229,587.927551 359.816254,577.273926 
	C359.869507,573.491272 360.462158,569.716309 360.808533,565.937805 
	C361.668335,565.280762 362.528137,564.623718 364.043091,563.831909 
	C376.643005,563.473816 388.588379,563.077698 400.532074,563.123169 
	C404.587860,563.138550 405.995300,562.103333 405.935608,557.854004 
	C405.720886,542.570496 405.778259,527.279785 406.005402,511.995850 
	C406.060364,508.298431 407.160797,504.616577 407.780457,500.927551 
	C408.317444,500.667023 408.854401,500.406525 410.159515,500.047729 
	C431.866791,499.836029 452.805878,499.704803 473.745117,499.619080 
	C480.776703,499.590302 483.031342,501.763763 483.069397,508.807556 
	C483.142120,522.273499 483.041260,535.740356 483.109222,549.206360 
	C483.144348,556.171631 483.386749,563.135742 483.535553,570.100403 
	C483.398529,570.518494 483.261536,570.936523 482.865662,571.856567 
	C482.440460,572.921753 482.274109,573.485046 482.107788,574.048340 
z"/>
<path fill="#B53A94" opacity="1.000000" stroke="none" 
	d="
M366.972717,369.005341 
	C368.004761,363.437225 371.603394,361.367462 376.982239,361.380066 
	C396.315094,361.425446 415.648285,361.343567 434.981140,361.394135 
	C442.145386,361.412872 444.869537,364.272949 444.874359,371.469299 
	C444.887268,390.802338 444.820099,410.135681 444.920715,429.468170 
	C444.942902,433.730713 443.658203,436.937744 438.985596,438.827576 
	C437.886932,439.007202 437.448883,439.115356 437.010834,439.223511 
	C435.950867,439.185760 434.890900,439.148010 432.981750,439.077271 
	C414.192841,439.019562 396.253143,438.994476 378.313416,438.970337 
	C369.272125,438.958191 367.237305,436.933807 367.196838,427.792206 
	C367.110046,408.196625 367.046021,388.600983 366.972717,369.005341 
z"/>
<path fill="#E4E2E7" opacity="1.000000" stroke="none" 
	d="
M604.973022,288.888550 
	C604.654419,272.893372 617.309082,265.361328 631.207275,273.184204 
	C650.341248,283.954193 669.510071,294.662415 688.839600,306.054565 
	C690.423462,308.174438 691.651428,309.886078 693.270630,311.056702 
	C700.933716,316.596985 711.113464,318.223480 717.123474,326.407104 
	C717.638611,327.108551 718.832947,327.370544 719.760437,327.699127 
	C723.029236,328.857147 726.306702,329.994293 729.605835,331.062103 
	C731.745544,331.754639 733.928772,332.312927 736.092468,332.931335 
	C736.092468,332.931335 736.003784,332.968903 736.060425,333.294556 
	C737.787292,334.376587 739.457520,335.132965 741.127808,335.889343 
	C741.127808,335.889343 741.048401,335.938385 741.197449,336.179169 
	C741.945862,336.567261 742.545227,336.714600 743.144592,336.861938 
	C743.144592,336.861938 743.029785,336.844696 743.078674,337.186005 
	C745.001343,339.076172 746.689087,340.961731 748.780273,342.117126 
	C759.264404,347.909576 769.926636,353.381104 780.383972,359.220245 
	C788.855469,363.950562 797.122803,369.046295 805.485107,373.972473 
	C813.299133,378.575684 820.947510,383.500610 828.990234,387.662567 
	C835.485474,391.023682 836.415466,396.317627 836.016418,402.603455 
	C835.642456,408.493835 831.181702,411.100952 827.047302,413.995483 
	C823.650940,405.891510 817.371643,401.181549 809.542480,397.459564 
	C800.597900,393.207306 792.260071,387.686523 783.618286,382.788086 
	C768.241699,374.072144 752.821411,365.433136 737.444275,356.718170 
	C722.638000,348.326721 707.902405,339.809906 693.064270,331.475342 
	C675.469360,321.592285 657.773071,311.889862 640.172241,302.017273 
	C633.099243,298.049896 626.249207,293.680511 619.132568,289.796814 
	C614.823608,287.445343 610.255737,284.901917 604.973022,288.888550 
z"/>
<path fill="#E3E5E8" opacity="1.000000" stroke="none" 
	d="
M781.016479,594.043823 
	C775.761780,597.292969 770.576965,600.662231 765.237915,603.766235 
	C753.864868,610.378235 742.450623,616.921753 730.979797,623.362488 
	C720.639526,629.168396 710.162598,634.730774 699.815308,640.524292 
	C683.128113,649.867554 666.526978,659.364502 649.834167,668.697693 
	C637.153320,675.787598 624.386414,682.723633 611.016357,689.906982 
	C609.924194,690.692261 609.473267,691.298706 609.022400,691.905151 
	C603.921082,694.580322 598.819763,697.255432 592.977661,700.010864 
	C590.012146,701.159119 586.146851,700.440186 587.019531,704.881592 
	C582.113525,707.312256 576.938721,709.321228 572.348694,712.247498 
	C553.710144,724.129456 527.445435,717.964050 517.465088,698.186218 
	C514.334045,691.981628 513.259033,684.164917 513.209106,677.072327 
	C512.853577,626.628174 513.009155,576.180359 512.998413,525.733765 
	C512.996948,519.044189 512.987488,519.038879 506.417603,519.029358 
	C499.924469,519.019897 493.431305,519.022766 486.468018,518.543945 
	C485.997589,514.901428 485.780029,511.713013 486.100250,508.579590 
	C486.234985,507.261200 487.267944,505.327515 488.319489,504.985352 
	C489.697357,504.536987 491.555511,505.218597 493.091553,505.748779 
	C493.855133,506.012329 494.361053,507.022369 494.216217,506.865936 
	C497.243134,506.077271 499.293518,505.193634 501.390717,505.063263 
	C507.281158,504.697083 513.234375,505.012085 519.077148,504.327637 
	C522.730469,503.899628 523.947449,504.816162 524.039795,508.336304 
	C524.261475,516.794617 524.818726,525.245239 524.976257,533.703857 
	C525.391113,555.989685 526.399597,578.302307 525.667053,600.554749 
	C525.331177,610.758118 524.908020,620.948669 524.927612,631.173889 
	C524.945740,640.628418 522.947876,650.300110 524.357605,659.489563 
	C526.574097,673.938232 530.012878,687.702271 544.007507,697.335083 
	C557.782349,706.816467 575.975708,704.510681 586.933411,699.115540 
	C597.649109,693.839478 607.476318,686.783081 617.874512,680.824097 
	C621.085815,678.983887 623.648193,676.583740 626.469177,674.383545 
	C630.369690,671.341248 635.536255,669.952698 640.082947,667.699097 
	C644.022766,665.746277 647.926758,663.698547 651.718872,661.474976 
	C659.922668,656.664490 667.993652,651.626587 676.219238,646.854492 
	C681.077698,644.035950 686.186646,641.651306 691.073425,638.878540 
	C695.204102,636.534790 699.101440,632.043945 703.238708,631.876343 
	C708.712036,631.654541 711.456787,629.069214 714.539124,625.754578 
	C715.432495,624.793823 716.530701,623.976196 717.652588,623.283081 
	C724.682983,618.939392 731.607910,614.397583 738.839294,610.414429 
	C745.716309,606.626465 752.924988,603.440796 760.411682,599.993530 
	C763.518433,599.147766 767.859253,599.000305 768.571411,597.317322 
	C770.658569,592.385498 775.162354,592.756653 778.766113,591.216248 
	C779.059753,591.090820 780.245361,593.052124 781.016479,594.043823 
z"/>
<path fill="#EA3E85" opacity="1.000000" stroke="none" 
	d="
M429.814911,641.036743 
	C431.072083,635.230042 433.207977,633.288391 438.932373,633.269348 
	C456.262573,633.211670 473.593292,633.208313 490.923401,633.278870 
	C497.320160,633.304932 500.024292,636.001404 500.054993,642.473267 
	C500.138000,659.970093 500.015472,677.468018 500.134705,694.964417 
	C500.166901,699.693359 498.110596,702.503174 492.906555,703.866577 
	C475.161896,703.936279 458.222687,703.993042 441.283600,703.959839 
	C432.252441,703.942078 430.107483,701.702454 430.074127,692.817871 
	C430.009369,675.557434 429.903656,658.297119 429.814911,641.036743 
z"/>
<path fill="#E54588" opacity="1.000000" stroke="none" 
	d="
M816.139404,874.048584 
	C816.127380,880.701721 816.038818,886.863831 816.122070,893.023682 
	C816.231995,901.163086 812.804626,907.559875 805.514099,910.769836 
	C799.234497,913.534607 792.385559,916.113403 785.653564,916.515015 
	C771.219116,917.376282 756.690735,917.048157 742.214172,916.681702 
	C732.932129,916.446777 724.138123,913.857666 716.662231,907.976379 
	C711.652283,904.034973 709.136841,898.788086 709.145142,892.378296 
	C709.157410,882.887329 709.198669,873.396240 709.180115,863.905334 
	C709.162537,854.928589 713.807617,848.823120 721.303284,844.721252 
	C729.017395,840.499939 737.376404,838.303955 746.199280,838.404724 
	C761.170105,838.575623 776.192932,838.243042 791.090088,839.427185 
	C801.400452,840.246826 811.499023,844.013306 814.906128,855.278442 
	C816.628784,860.974487 815.809326,867.439392 816.139404,874.048584 
M798.229919,864.751099 
	C798.091309,858.139893 795.964539,854.641113 788.817688,854.368652 
	C772.084595,853.731018 755.228271,853.234375 738.582214,854.614929 
	C729.188110,855.394043 726.226196,859.284668 726.767395,868.599487 
	C727.114502,874.573181 726.838013,880.583252 726.838562,886.577026 
	C726.839661,897.200562 728.711853,900.315369 739.400940,901.049011 
	C754.135864,902.060303 768.970581,901.754639 783.761230,901.694397 
	C786.644592,901.682617 789.563110,900.337524 792.392395,899.389343 
	C796.511353,898.008972 798.410706,895.124695 798.329224,890.662720 
	C798.177185,882.340881 798.287964,874.014282 798.229919,864.751099 
z"/>
<path fill="#EA3E85" opacity="1.000000" stroke="none" 
	d="
M505.227844,162.033600 
	C505.118134,162.400024 505.008423,162.766464 504.628815,163.547211 
	C504.149963,164.263321 503.941040,164.565140 503.732117,164.866959 
	C503.307404,165.457077 502.882721,166.047195 501.761658,166.765106 
	C482.950928,167.147888 464.836884,167.529190 446.721924,167.578857 
	C441.464539,167.593277 438.960388,164.574677 438.839722,159.236008 
	C438.730743,154.414627 438.858185,149.588394 438.802917,144.765198 
	C438.681213,134.145676 438.510040,123.526718 438.359039,112.907532 
	C438.455200,111.530098 438.551361,110.152657 438.767181,108.065491 
	C438.875061,106.902023 438.863312,106.448303 438.851532,105.994576 
	C438.851532,105.994576 439.023621,105.594406 439.282043,105.252594 
	C439.658295,104.594086 439.776123,104.277390 439.893951,103.960701 
	C440.164673,103.750999 440.435425,103.541290 441.240112,103.053696 
	C444.204437,102.405190 446.632721,101.730797 449.065613,101.713600 
	C463.977814,101.608170 478.891602,101.582657 493.803497,101.701775 
	C496.893738,101.726456 499.978241,102.472267 503.065369,102.885735 
	C503.065369,102.885735 503.032532,102.970924 503.074341,103.270149 
	C503.766418,104.343788 504.416718,105.118202 505.067047,105.892609 
	C505.067047,105.892609 505.020050,105.951500 504.998718,106.430084 
	C505.160431,111.304497 505.343445,115.700310 505.526428,120.096130 
	C505.446594,133.416824 505.366730,146.737534 505.213318,160.772888 
	C505.169128,161.669571 505.198486,161.851578 505.227844,162.033600 
z"/>
<path fill="#E54588" opacity="1.000000" stroke="none" 
	d="
M482.237061,830.419434 
	C474.313995,831.340454 466.722412,832.050171 459.130463,832.756104 
	C458.301483,832.833130 457.467194,832.860596 456.640869,832.958069 
	C443.597015,834.494690 441.698059,836.517578 441.802490,849.468140 
	C441.900116,861.578308 440.033691,859.958435 452.401093,859.990234 
	C477.050964,860.053711 501.701172,859.990723 526.351196,860.024231 
	C532.281738,860.032288 534.381470,861.651794 534.812866,866.216003 
	C535.366577,872.073975 532.886780,874.880493 526.793274,874.897644 
	C506.640320,874.954407 486.487152,874.920471 466.334045,874.920898 
	C459.671936,874.921082 453.005768,875.058899 446.349426,874.862915 
	C442.843506,874.759705 441.686188,876.087219 441.739410,879.522827 
	C441.886444,889.013794 441.810303,898.509155 441.739899,908.002197 
	C441.687164,915.110474 440.042816,916.827271 433.500031,916.931763 
	C425.600403,917.057800 422.686829,914.926453 422.640259,907.996460 
	C422.490295,885.679688 422.447083,863.359924 422.659393,841.044189 
	C422.742828,832.278809 428.016876,826.715027 435.560455,822.970459 
	C443.933258,818.814392 452.835876,817.076111 462.105804,816.957275 
	C466.602051,816.899597 471.099579,816.952576 475.596497,816.938660 
	C478.603607,816.929321 481.663330,816.613098 483.350433,820.049072 
	C485.110901,823.634460 485.500916,827.025452 482.237061,830.419434 
z"/>
<path fill="#EA3E85" opacity="1.000000" stroke="none" 
	d="
M325.106873,291.248596 
	C326.819000,291.378906 328.531128,291.509247 330.842194,291.899048 
	C332.281219,292.463623 333.121338,292.768738 333.961426,293.073853 
	C333.961426,293.073853 333.986084,292.999420 334.028259,293.356934 
	C334.842499,294.777283 335.614532,295.840088 336.386536,296.902893 
	C336.389587,297.403717 336.392609,297.904541 336.352844,299.199677 
	C336.444885,312.270813 336.579742,324.547607 336.714600,336.824432 
	C336.648743,338.313293 336.582855,339.802155 336.434021,342.089264 
	C336.440613,344.222473 336.530151,345.557465 336.619659,346.892426 
	C336.145660,348.293121 335.671661,349.693817 334.787598,351.541626 
	C334.197296,352.299988 334.017029,352.611267 333.836761,352.922516 
	C332.474487,353.367432 331.112244,353.812378 328.954681,354.239807 
	C313.698181,354.207214 299.236908,354.203979 284.775726,354.172577 
	C275.757874,354.153015 273.915863,352.295685 273.866821,343.426514 
	C273.785065,328.642487 273.671417,313.858643 273.571228,299.074707 
	C273.781708,298.119720 273.992218,297.164734 274.561859,295.674866 
	C276.559387,293.912323 278.197784,292.684662 279.836182,291.457031 
	C281.301422,291.405670 282.766693,291.354279 284.939941,291.462280 
	C298.800934,291.497314 311.953918,291.372955 325.106873,291.248596 
z"/>
<path fill="#B53A94" opacity="1.000000" stroke="none" 
	d="
M227.384125,395.134552 
	C229.381393,391.567657 232.444244,390.319702 236.480835,390.357361 
	C249.134125,390.475403 261.789673,390.324646 274.443909,390.380554 
	C281.555664,390.411987 284.472473,393.345795 284.502350,400.394775 
	C284.552460,412.216766 284.513702,424.039124 284.510773,435.861328 
	C284.508636,444.568512 283.484467,445.825531 273.919556,447.815308 
	C260.630432,447.800568 248.188202,447.854706 235.746658,447.785675 
	C229.981750,447.753693 227.090546,445.160431 227.097443,439.918549 
	C227.117111,424.990479 227.278503,410.062531 227.384125,395.134552 
z"/>
<path fill="#EA3E85" opacity="1.000000" stroke="none" 
	d="
M344.761414,501.398621 
	C344.786011,515.385193 345.040497,529.378357 344.644104,543.352966 
	C344.563354,546.199158 342.033966,548.975891 339.854309,551.915649 
	C324.617462,552.114197 310.159729,552.222717 295.701965,552.226746 
	C290.760223,552.228149 287.969452,549.523743 287.481018,544.666870 
	C287.199493,541.867310 287.245178,539.028687 287.246887,536.207764 
	C287.253662,525.109192 287.301453,514.010559 287.334015,502.911957 
	C287.486084,502.174530 287.638123,501.437134 288.060699,500.193176 
	C288.525726,499.118835 288.720245,498.551025 288.914795,497.983215 
	C288.914795,497.983215 288.997742,497.979279 289.227600,497.888794 
	C289.770599,497.625275 289.921417,497.359894 289.909882,497.002258 
	C289.909882,497.002258 289.991028,497.007812 290.301392,496.970886 
	C291.056152,496.553589 291.500488,496.173218 291.944855,495.792847 
	C292.697021,495.716522 293.449158,495.640228 295.000061,495.600464 
	C306.611420,495.670715 317.426025,495.595917 328.235809,495.789276 
	C332.844513,495.871704 337.443176,496.514557 342.046417,496.902740 
	C342.046417,496.902740 342.026489,496.983154 342.148376,497.277039 
	C343.100647,498.846802 343.931030,500.122711 344.761414,501.398621 
z"/>
<path fill="#E6E1E8" opacity="1.000000" stroke="none" 
	d="
M442.047241,284.390167 
	C442.045929,287.794617 442.479431,291.271759 441.925446,294.583771 
	C441.328186,298.154175 438.930420,300.076691 434.880371,300.053406 
	C414.243042,299.934662 393.604584,300.032135 372.966736,299.980713 
	C366.743896,299.965210 364.045715,297.099426 364.034302,290.649475 
	C364.002228,272.508057 363.906677,254.365219 364.114471,236.226105 
	C364.161713,232.099960 363.017822,230.706589 358.816162,230.891144 
	C351.507172,231.212143 344.173065,231.040787 336.850830,230.959229 
	C330.270111,230.885956 327.028900,227.628204 327.016998,221.215759 
	C326.995361,209.565308 326.998840,197.914780 327.014679,186.264297 
	C327.023987,179.411789 329.363678,177.082092 336.710632,177.489777 
	C337.214752,186.461349 337.131653,194.957504 337.274078,203.449875 
	C337.422577,212.305878 339.850342,214.577057 348.729553,214.589722 
	C357.324432,214.601974 365.919342,214.592392 375.044800,214.592392 
	C375.044800,225.279877 375.046936,235.235245 375.044220,245.190613 
	C375.041534,255.017761 374.938232,264.846130 375.062256,274.671631 
	C375.144104,281.157043 377.904175,283.865509 384.125092,283.994720 
	C387.455017,284.063873 390.787354,284.010620 394.118408,284.034515 
	C410.094727,284.148987 426.070984,284.270905 442.047241,284.390167 
z"/>
<path fill="#EFD6E7" opacity="1.000000" stroke="none" 
	d="
M759.987793,599.990234 
	C752.924988,603.440796 745.716309,606.626465 738.839294,610.414429 
	C731.607910,614.397583 724.682983,618.939392 717.652588,623.283081 
	C716.530701,623.976196 715.432495,624.793823 714.539124,625.754578 
	C711.456787,629.069214 708.712036,631.654541 703.238708,631.876343 
	C699.101440,632.043945 695.204102,636.534790 691.073425,638.878540 
	C686.186646,641.651306 681.077698,644.035950 676.219238,646.854492 
	C667.993652,651.626587 659.922668,656.664490 651.718872,661.474976 
	C647.926758,663.698547 644.022766,665.746277 640.082947,667.699097 
	C635.536255,669.952698 630.369690,671.341248 626.469177,674.383545 
	C623.648193,676.583740 621.085815,678.983887 617.874512,680.824097 
	C607.476318,686.783081 597.649109,693.839478 586.933411,699.115540 
	C575.975708,704.510681 557.782349,706.816467 544.007507,697.335083 
	C530.012878,687.702271 526.574097,673.938232 524.357605,659.489563 
	C522.947876,650.300110 524.945740,640.628418 524.927612,631.173889 
	C524.908020,620.948669 525.331177,610.758118 525.667053,600.554749 
	C526.399597,578.302307 525.391113,555.989685 524.976257,533.703857 
	C524.818726,525.245239 524.261475,516.794617 524.039795,508.336304 
	C523.947449,504.816162 522.730469,503.899628 519.077148,504.327637 
	C513.234375,505.012085 507.281158,504.697083 501.390717,505.063263 
	C499.293518,505.193634 497.243134,506.077271 494.216217,506.865936 
	C494.361053,507.022369 493.855133,506.012329 493.091553,505.748779 
	C491.555511,505.218597 489.697357,504.536987 488.319489,504.985352 
	C487.267944,505.327515 486.234985,507.261200 486.100250,508.579590 
	C485.780029,511.713013 485.997589,514.901428 485.999512,518.532593 
	C485.656982,520.918274 485.027466,522.837097 485.014557,524.760010 
	C484.925568,538.009338 484.993439,551.259766 484.929718,564.509399 
	C484.921295,566.258118 484.452484,568.004639 483.866211,569.926270 
	C483.386749,563.135742 483.144348,556.171631 483.109222,549.206360 
	C483.041260,535.740356 483.142120,522.273499 483.069397,508.807556 
	C483.031342,501.763763 480.776703,499.590302 473.745117,499.619080 
	C452.805878,499.704803 431.866791,499.836029 410.456177,499.970215 
	C411.617065,499.326935 413.244934,498.098694 414.882446,498.085693 
	C432.686676,497.944214 450.493591,497.884735 468.296997,498.068817 
	C472.584076,498.113129 474.174408,496.868835 474.093506,492.408234 
	C473.852142,479.100159 474.006531,465.784943 474.007019,452.472504 
	C474.007294,443.796661 474.511261,443.076538 482.501709,440.321808 
	C482.958649,436.952026 483.415405,433.582214 484.215027,430.058838 
	C484.622620,448.042938 484.817383,466.181366 484.715881,484.318146 
	C484.612640,502.764069 484.114410,502.366394 502.868713,502.194885 
	C509.529205,502.133972 516.207336,502.457428 522.846069,502.069489 
	C527.572083,501.793335 528.692444,503.512024 528.687195,508.027557 
	C528.626770,559.631775 529.125305,611.239380 528.679443,662.839233 
	C528.486755,685.147644 546.718201,701.800537 567.847656,700.884521 
	C573.491272,700.639893 579.272949,698.719604 584.562622,696.532227 
	C589.888367,694.329834 594.680725,690.837646 600.196045,687.521790 
	C600.831726,686.780518 600.978210,686.428040 601.124634,686.075623 
	C601.124695,686.075623 601.035339,686.107849 601.406494,686.201294 
	C602.332153,685.892334 602.886597,685.489929 603.441040,685.087585 
	C603.441040,685.087585 603.710266,685.171692 603.825684,685.092041 
	C613.997681,679.011475 623.947937,672.823059 634.133057,667.049011 
	C654.995667,655.221680 676.028748,643.695557 696.906494,631.894775 
	C712.462097,623.102356 727.883789,614.073242 743.961914,605.035522 
	C744.972229,604.584717 745.385742,604.248047 745.799194,603.911316 
	C746.104065,603.762390 746.408997,603.613403 747.184814,603.211060 
	C748.785217,602.326782 749.914673,601.695862 751.044067,601.064819 
	C751.668518,600.734558 752.292969,600.404297 753.402344,599.766113 
	C755.911377,597.977478 757.935425,596.496643 759.959534,595.015808 
	C760.135864,594.997498 760.312256,594.979187 760.739502,595.389038 
	C760.656250,597.208252 760.322021,598.599243 759.987793,599.990234 
z"/>
<path fill="#E8DFE6" opacity="1.000000" stroke="none" 
	d="
M485.530762,301.019745 
	C485.277679,304.826050 484.133240,308.684570 484.086700,312.556305 
	C483.872925,330.340790 483.948303,348.128967 483.956787,365.915802 
	C483.960480,373.672241 486.277649,375.985260 494.071045,375.991791 
	C518.673523,376.012360 543.276062,376.039307 567.878357,375.969574 
	C575.673157,375.947479 583.022217,374.168365 589.765503,369.385193 
	C589.233032,377.249329 583.990784,382.422333 578.196289,386.736023 
	C569.545715,393.175812 559.260742,393.600891 548.894592,393.211090 
	C545.957275,393.100647 542.994324,393.920776 540.041443,393.933533 
	C522.737671,394.008362 505.433044,394.025024 488.129517,393.922119 
	C484.841644,393.902557 481.153290,394.056610 478.395081,392.659241 
	C476.042419,391.467407 473.284058,388.189728 473.237427,385.785583 
	C472.834198,364.995178 473.001587,344.193604 473.005829,323.395386 
	C473.006653,319.272461 475.372223,316.660004 479.116669,316.164490 
	C482.632996,315.699188 482.753387,313.843536 483.062012,311.115692 
	C483.443939,307.740112 481.055054,303.689514 485.530762,301.019745 
z"/>
<path fill="#E0DFE9" opacity="1.000000" stroke="none" 
	d="
M760.411682,599.993530 
	C760.322021,598.599243 760.656250,597.208252 760.997070,595.455444 
	C762.647644,594.027954 764.291687,592.962280 766.557495,591.837646 
	C767.452332,591.510620 767.725403,591.242493 767.998413,590.974365 
	C773.134644,588.121216 778.270752,585.268005 783.995728,582.543030 
	C788.375671,582.321411 792.263306,582.117676 792.991699,577.125122 
	C793.671082,576.693176 794.350464,576.261230 795.622498,575.799438 
	C796.473877,575.501099 796.732666,575.232666 796.991455,574.964233 
	C814.425232,564.985962 831.856018,555.002319 849.293762,545.030823 
	C870.488892,532.910828 891.689880,520.801025 913.028320,508.432190 
	C927.372375,500.316223 941.354675,492.015045 955.840271,484.712067 
	C971.669128,476.731842 986.154480,467.047455 999.297974,454.744934 
	C1001.373047,459.237701 997.222107,461.311707 995.187317,463.921204 
	C984.764038,477.288788 971.529358,487.445862 956.817139,495.648254 
	C941.861877,503.986176 926.648010,511.860168 911.692322,520.197327 
	C901.191162,526.051331 890.957336,532.383118 880.559143,538.424072 
	C870.413391,544.318359 860.232849,550.153442 850.027954,555.944702 
	C830.354065,567.109558 810.662109,578.242981 790.951233,589.342468 
	C787.958374,591.027771 784.823181,592.460632 781.385132,594.027039 
	C780.245361,593.052124 779.059753,591.090820 778.766113,591.216248 
	C775.162354,592.756653 770.658569,592.385498 768.571411,597.317322 
	C767.859253,599.000305 763.518433,599.147766 760.411682,599.993530 
z"/>
<path fill="#E6E1E8" opacity="1.000000" stroke="none" 
	d="
M366.691833,369.294830 
	C367.046021,388.600983 367.110046,408.196625 367.196838,427.792206 
	C367.237305,436.933807 369.272125,438.958191 378.313416,438.970337 
	C396.253143,438.994476 414.192841,439.019562 432.591827,439.163330 
	C433.039368,442.114716 433.033630,444.947021 433.014709,447.779266 
	C432.972321,454.123413 431.144257,455.980103 424.618652,455.994537 
	C407.124573,456.033264 389.629395,455.895905 372.136444,456.041260 
	C355.804901,456.176941 355.805634,456.351654 355.952393,439.872620 
	C356.106720,422.546448 355.976593,405.217804 355.996857,387.890259 
	C356.005280,380.712250 358.324219,378.410400 365.706360,378.366058 
	C365.939941,375.454651 366.175446,372.519501 366.691833,369.294830 
z"/>
<path fill="#E8DFE6" opacity="1.000000" stroke="none" 
	d="
M525.557556,123.058151 
	C521.606323,162.146408 524.752808,201.447693 523.677673,240.669067 
	C523.189758,258.469391 523.132874,276.283783 523.092346,294.092285 
	C523.084167,297.706879 522.172180,299.390015 518.324646,298.985718 
	C515.852844,298.726013 513.335022,298.904907 510.387634,298.743774 
	C510.623077,296.327240 511.898254,294.056183 511.906342,291.780609 
	C512.036804,255.000076 511.928558,218.218704 512.057678,181.438171 
	C512.098816,169.716553 512.282715,157.965469 513.218079,146.293320 
	C513.541504,142.257401 516.088196,138.286896 518.076111,134.528046 
	C520.165588,130.577011 522.802246,126.915329 525.557556,123.058151 
z"/>
<path fill="#E54588" opacity="1.000000" stroke="none" 
	d="
M546.106201,870.017822 
	C544.889343,848.664368 553.789001,842.320984 573.145081,839.332397 
	C578.701416,838.474426 584.421509,838.500000 590.068726,838.462036 
	C594.918335,838.429443 597.477234,841.173950 597.606018,845.859680 
	C597.731567,850.427979 595.107788,853.100525 590.238220,853.405151 
	C584.275330,853.778137 578.204468,853.601562 572.380798,854.713135 
	C565.786987,855.971680 563.924561,858.933716 563.888123,865.684692 
	C563.811829,879.842102 563.998718,894.003845 563.671143,908.154419 
	C563.610657,910.768494 562.151245,915.062988 560.439758,915.573669 
	C556.742859,916.676941 552.340698,916.359436 548.494141,915.469055 
	C547.271423,915.185974 546.271362,911.263855 546.232178,908.988525 
	C546.011108,896.166809 546.113831,883.339539 546.106201,870.017822 
z"/>
<path fill="#E6E1E8" opacity="1.000000" stroke="none" 
	d="
M429.555969,641.332642 
	C429.903656,658.297119 430.009369,675.557434 430.074127,692.817871 
	C430.107483,701.702454 432.252441,703.942078 441.283600,703.959839 
	C458.222687,703.993042 475.161896,703.936279 492.569885,703.985718 
	C492.018677,705.514893 490.127625,706.973328 490.124512,708.435730 
	C490.108215,716.100891 486.026276,718.728088 479.564484,718.850464 
	C462.269897,719.177856 444.964722,719.041748 427.664856,718.924194 
	C423.140442,718.893494 420.088043,715.734680 419.999817,711.509888 
	C419.642853,694.415710 419.287109,677.321167 419.049194,660.225098 
	C418.933899,651.941833 420.612823,649.963684 428.659637,648.349121 
	C428.866211,646.170837 429.081604,643.899719 429.555969,641.332642 
z"/>
<path fill="#E8DFE6" opacity="1.000000" stroke="none" 
	d="
M273.364380,299.402405 
	C273.671417,313.858643 273.785065,328.642487 273.866821,343.426514 
	C273.915863,352.295685 275.757874,354.153015 284.775726,354.172577 
	C299.236908,354.203979 313.698181,354.207214 328.615021,354.358490 
	C325.325043,356.225861 324.689941,359.225281 324.900421,363.090271 
	C325.174225,368.117035 322.067810,370.966492 316.926117,370.981628 
	C301.628296,371.026733 286.330109,371.043610 271.032440,370.983185 
	C264.472717,370.957275 262.053955,368.506714 262.027618,361.917969 
	C261.972412,348.116791 262.004791,334.315247 262.019806,320.513855 
	C262.030823,310.393219 262.720947,309.534607 272.662140,307.431152 
	C272.822388,304.939911 272.989960,302.335022 273.364380,299.402405 
z"/>
<path fill="#E8DFE6" opacity="1.000000" stroke="none" 
	d="
M438.073761,113.051712 
	C438.510040,123.526718 438.681213,134.145676 438.802917,144.765198 
	C438.858185,149.588394 438.730743,154.414627 438.839722,159.236008 
	C438.960388,164.574677 441.464539,167.593277 446.721924,167.578857 
	C464.836884,167.529190 482.950928,167.147888 501.534424,166.928238 
	C500.238953,167.953079 498.474396,168.942581 496.480377,170.060776 
	C494.295471,182.965347 494.295471,182.965256 479.995483,182.965363 
	C467.523376,182.965469 455.050934,183.015350 442.579498,182.923767 
	C440.125793,182.905746 437.622162,182.563049 435.236725,181.980408 
	C431.300262,181.018951 428.996185,178.587509 429.008362,174.238281 
	C429.054443,157.775238 429.038025,141.311966 429.017334,124.848824 
	C429.011993,120.606789 430.652466,117.594246 434.776276,115.954567 
	C435.959015,115.484283 436.794037,114.139626 438.073761,113.051712 
z"/>
<path fill="#E8DFE6" opacity="1.000000" stroke="none" 
	d="
M287.024323,503.100037 
	C287.301453,514.010559 287.253662,525.109192 287.246887,536.207764 
	C287.245178,539.028687 287.199493,541.867310 287.481018,544.666870 
	C287.969452,549.523743 290.760223,552.228149 295.701965,552.226746 
	C310.159729,552.222717 324.617462,552.114197 339.544250,552.077271 
	C334.751892,553.324036 333.291321,556.593567 333.840576,561.831177 
	C334.274658,565.970703 329.876526,569.924622 325.580505,569.950195 
	C312.436768,570.028381 299.291077,570.091064 286.148651,569.942322 
	C279.505249,569.867126 276.122284,566.336548 276.060944,559.591431 
	C275.945984,546.947449 275.976013,534.301392 276.050720,521.656799 
	C276.084564,515.925598 278.331421,513.814026 285.525421,512.381531 
	C285.917114,509.386566 286.315857,506.337341 287.024323,503.100037 
z"/>
<path fill="#E6E1E8" opacity="1.000000" stroke="none" 
	d="
M227.002594,395.322754 
	C227.278503,410.062531 227.117111,424.990479 227.097443,439.918549 
	C227.090546,445.160431 229.981750,447.753693 235.746658,447.785675 
	C248.188202,447.854706 260.630432,447.800568 273.535950,447.875488 
	C273.661835,450.552002 273.126831,453.142303 273.026733,455.749329 
	C272.805695,461.505463 269.515869,464.957520 263.752563,464.976349 
	C250.613235,465.019348 237.473633,465.013885 224.334274,464.980469 
	C218.752396,464.966278 215.054276,461.759155 215.098328,456.212280 
	C215.209015,442.278839 215.585220,428.345123 216.051483,414.418121 
	C216.208466,409.729156 219.086761,407.517334 225.527649,406.550629 
	C225.886093,402.931671 226.253586,399.221313 227.002594,395.322754 
z"/>
<path fill="#DA528B" opacity="1.000000" stroke="none" 
	d="
M658.761597,917.228760 
	C663.331238,916.585938 667.478027,916.141052 671.536865,915.281128 
	C675.565369,914.427551 677.566040,912.089417 677.519287,907.512634 
	C677.313477,887.360229 677.319885,867.203247 677.538208,847.051086 
	C677.574585,843.691223 679.041321,840.346741 679.907043,836.745728 
	C678.614197,834.377747 676.339600,831.377747 675.394714,828.005127 
	C674.898315,826.233337 676.237000,823.396484 677.607544,821.762451 
	C680.872375,817.869934 691.294739,817.922913 695.241211,821.471130 
	C699.514893,825.313599 698.725464,829.817444 693.414185,836.092407 
	C694.269043,841.103149 695.516968,845.154846 695.559387,849.219055 
	C695.764282,868.871704 695.688416,888.527832 695.626099,908.182495 
	C695.582520,921.927795 687.434509,930.664551 673.636353,931.662598 
	C666.177185,932.202026 658.694824,932.522522 651.217468,932.673706 
	C646.172302,932.775757 643.516418,929.717224 643.479980,924.408081 
	C643.450684,920.142334 645.931274,917.694763 650.807129,917.373230 
	C653.296814,917.209106 655.802063,917.280090 658.761597,917.228760 
M661.399536,919.992371 
	C658.568665,919.993896 655.737122,920.037109 652.907166,919.986511 
	C649.338806,919.922791 646.822205,920.580322 646.888428,925.161255 
	C646.951355,929.510193 649.445007,929.784912 652.719299,930.062378 
	C662.293396,930.873657 671.524658,928.909851 680.748047,926.882324 
	C685.036560,925.939636 692.668701,917.417908 692.664062,911.542603 
	C692.645569,888.330078 692.656494,865.117493 692.656494,842.353271 
	C684.121399,838.188354 679.998901,840.506775 679.996521,848.513428 
	C679.990540,868.828979 680.103638,889.146057 679.836731,909.458130 
	C679.805298,911.852600 678.279236,915.525024 676.442017,916.338989 
	C672.065735,918.278076 667.088501,918.860779 661.399536,919.992371 
z"/>
<path fill="#AB5494" opacity="1.000000" stroke="none" 
	d="
M442.367859,284.287201 
	C426.070984,284.270905 410.094727,284.148987 394.118408,284.034515 
	C390.787354,284.010620 387.455017,284.063873 384.125092,283.994720 
	C377.904175,283.865509 375.144104,281.157043 375.062256,274.671631 
	C374.938232,264.846130 375.041534,255.017761 375.044220,245.190613 
	C375.046936,235.235245 375.044800,225.279877 375.044800,214.592392 
	C365.919342,214.592392 357.324432,214.601974 348.729553,214.589722 
	C339.850342,214.577057 337.422577,212.305878 337.274078,203.449875 
	C337.131653,194.957504 337.214752,186.461349 337.127747,177.507324 
	C337.283722,173.735855 337.372589,170.407074 337.774170,167.116440 
	C338.233337,163.354187 340.321350,160.929337 344.319000,160.901123 
	C357.804840,160.805923 371.294830,160.618256 384.775635,160.870743 
	C389.609924,160.961258 391.453094,163.722397 391.516754,169.547546 
	C391.626068,179.545258 391.757111,189.550552 391.473633,199.541138 
	C391.348358,203.958099 392.781311,205.266891 397.163391,205.199982 
	C412.491302,204.965958 427.825165,205.089371 443.156616,205.128342 
	C450.898254,205.148026 453.240204,207.215012 453.284790,214.722153 
	C453.399597,234.052490 453.373444,253.384369 453.263458,272.714813 
	C453.239868,276.859528 453.120056,281.221161 447.847443,283.613220 
	C446.119263,283.899384 445.073608,284.050201 444.027985,284.201019 
	C443.581482,284.195435 443.135010,284.189819 442.367859,284.287201 
M436.469635,282.004883 
	C438.302338,282.005341 440.135010,282.006775 441.967712,282.006073 
	C448.234680,282.003571 450.058350,280.436157 450.943878,274.157043 
	C451.105377,273.011963 451.006500,271.828430 451.006653,270.662628 
	C451.009003,252.336273 451.010895,234.009933 451.005768,215.683578 
	C451.004059,209.586044 447.302246,206.475800 441.185547,207.423004 
	C440.208160,207.574356 439.234894,207.951248 438.266266,207.929688 
	C425.646088,207.648911 413.027649,207.287888 400.407135,207.025116 
	C398.608337,206.987656 396.609650,206.934967 395.039551,207.638947 
	C392.235321,208.896271 390.872803,207.550232 390.083313,205.372391 
	C389.420349,203.543671 389.076935,201.505630 389.053406,199.554703 
	C388.949036,190.892609 389.038025,182.228409 389.004120,173.565186 
	C388.975098,166.141129 384.885803,161.785767 377.698425,162.049911 
	C367.144531,162.437775 356.510254,160.675598 346.023163,163.824295 
	C342.771027,164.800720 340.964111,165.772614 340.973175,169.248718 
	C341.004913,181.410675 340.964417,193.572830 341.001831,205.734741 
	C341.014160,209.743896 343.141937,211.947815 347.141449,211.982681 
	C354.970428,212.050903 362.804779,212.117004 370.628998,211.899307 
	C375.870636,211.753464 377.988373,213.345856 377.935425,218.681870 
	C377.904388,221.807632 377.060394,224.926056 377.037872,228.051056 
	C376.934723,242.378204 376.939545,256.706757 377.013733,271.034241 
	C377.053101,278.640900 380.494629,281.995026 387.997986,282.002045 
	C403.825287,282.016876 419.652588,282.005493 436.469635,282.004883 
z"/>
<path fill="#E3E5E8" opacity="1.000000" stroke="none" 
	d="
M404.982147,622.991821 
	C405.118835,636.759521 404.881897,637.008301 391.326599,637.013550 
	C379.703003,637.018127 368.079376,637.030334 356.455872,636.995361 
	C350.699188,636.978027 348.033356,634.294739 348.018158,628.494446 
	C347.985535,616.040649 348.005646,603.586731 348.005310,591.132874 
	C348.005066,583.026184 348.501831,582.363037 356.626801,580.538879 
	C356.851959,590.437927 356.676575,599.902100 356.558258,609.367004 
	C356.429932,619.636169 359.596130,622.807983 370.059113,622.995544 
	C370.391602,623.001526 370.724274,622.995972 371.056885,622.995911 
	C382.365295,622.994568 393.673737,622.993225 404.982147,622.991821 
z"/>
<path fill="#E8DFE6" opacity="1.000000" stroke="none" 
	d="
M472.947906,579.993835 
	C473.166534,593.183411 472.345673,594.018372 459.173889,594.019897 
	C445.769714,594.021484 432.365570,594.025085 418.485474,593.564941 
	C418.007599,591.772400 418.004089,590.442566 418.003876,589.112793 
	C418.002411,580.007812 418.002655,580.003906 427.069580,580.000793 
	C442.362366,579.995605 457.655121,579.995850 472.947906,579.993835 
z"/>
<path fill="#D66D9A" opacity="1.000000" stroke="none" 
	d="
M631.431946,848.328613 
	C631.246277,869.073547 631.099609,889.356567 630.861023,909.638489 
	C630.787781,915.869995 628.948181,917.518921 622.692383,917.476685 
	C615.114380,917.425476 613.172913,915.849609 613.150757,909.354614 
	C613.091675,892.056274 613.139221,874.757629 613.082520,857.459229 
	C613.071655,854.144958 612.620667,850.829224 612.669373,847.518555 
	C612.702759,845.247559 612.552551,842.499023 613.718933,840.823181 
	C615.822815,837.800293 615.561279,836.391968 612.653381,834.031372 
	C608.461914,830.628784 609.752808,822.131104 614.773438,820.247559 
	C618.168518,818.973816 622.318298,818.421021 625.850525,819.069885 
	C633.369507,820.450989 635.870789,828.222473 630.827637,833.929260 
	C628.724609,836.309204 628.080139,837.751648 630.072266,840.644592 
	C631.342834,842.489746 631.035400,845.421631 631.431946,848.328613 
M615.091125,910.745850 
	C617.208801,914.268555 620.460938,916.108154 624.233521,914.610046 
	C626.235474,913.814941 628.822693,911.054626 628.822327,909.181885 
	C628.818604,887.611267 628.299133,866.041260 628.101318,844.469543 
	C628.064880,840.504761 625.277527,839.868469 622.876709,840.194763 
	C620.473938,840.521301 617.111572,841.916870 616.275330,843.785889 
	C614.932251,846.787415 615.043701,850.563171 615.027039,854.014160 
	C614.937195,872.634216 614.997253,891.254944 615.091125,910.745850 
M622.221130,834.846191 
	C623.667603,834.549805 625.157288,834.385925 626.552124,833.931213 
	C630.207520,832.739685 631.191162,829.648682 630.551392,826.467773 
	C629.751343,822.489929 624.274902,819.969604 619.108215,821.042053 
	C615.415527,821.808533 612.720276,824.184814 613.026367,828.259155 
	C613.397949,833.207336 617.513550,834.106079 622.221130,834.846191 
z"/>
<path fill="#EFD6E7" opacity="1.000000" stroke="none" 
	d="
M407.424805,500.992188 
	C407.160797,504.616577 406.060364,508.298431 406.005402,511.995850 
	C405.778259,527.279785 405.720886,542.570496 405.935608,557.854004 
	C405.995300,562.103333 404.587860,563.138550 400.532074,563.123169 
	C388.588379,563.077698 376.643005,563.473816 364.282837,563.611938 
	C365.180267,562.739319 366.496399,561.271301 367.805603,561.277405 
	C375.099152,561.311951 382.393005,561.659912 389.682526,561.993286 
	C392.923492,562.141479 394.146057,560.710632 394.078033,557.527771 
	C393.949860,551.533447 393.915680,545.530945 394.080048,539.538330 
	C394.239014,533.742920 394.621216,527.950134 395.046417,522.166504 
	C395.425171,517.014587 399.377686,516.060364 402.471039,515.723694 
	C404.133636,510.420410 405.601410,505.738617 407.424805,500.992188 
z"/>
<path fill="#AB5494" opacity="1.000000" stroke="none" 
	d="
M735.933960,192.635101 
	C728.184753,193.765778 723.311951,187.523941 717.134277,184.477859 
	C707.913452,179.931290 699.250366,174.265076 690.257812,169.240189 
	C682.789001,165.066772 675.169556,161.164062 667.648621,157.082870 
	C656.455200,151.008820 645.229370,144.990280 634.140625,138.729691 
	C629.316162,136.005829 624.872131,132.616348 620.120178,129.753510 
	C615.075256,126.714172 609.869995,123.940788 604.383179,121.010170 
	C601.703186,118.782669 599.374817,116.596230 597.037720,114.110535 
	C605.356567,118.566353 613.657166,123.369324 622.016418,128.067886 
	C652.306641,145.093292 682.629150,162.061325 712.910278,179.102890 
	C720.583679,183.421341 728.148926,187.931931 735.933960,192.635101 
z"/>
<path fill="#EFD6E7" opacity="1.000000" stroke="none" 
	d="
M827.008179,414.336182 
	C831.181702,411.100952 835.642456,408.493835 836.016418,402.603455 
	C836.415466,396.317627 835.485474,391.023682 828.990234,387.662567 
	C820.947510,383.500610 813.299133,378.575684 805.485107,373.972473 
	C797.122803,369.046295 788.855469,363.950562 780.383972,359.220245 
	C769.926636,353.381104 759.264404,347.909576 748.780273,342.117126 
	C746.689087,340.961731 745.001343,339.076172 743.133301,337.166382 
	C746.790100,338.553101 750.441101,340.300781 754.677002,342.330444 
	C756.325806,342.902954 757.389771,343.193420 758.453674,343.483887 
	C764.820618,347.334869 771.109558,351.322327 777.569763,355.009979 
	C793.893921,364.328308 810.319397,373.469177 826.651489,382.773743 
	C831.953979,385.794647 836.583679,389.519318 838.050659,395.951569 
	C840.255188,405.618286 837.369995,411.202972 826.333618,417.863586 
	C826.320068,416.838257 826.644592,415.757568 827.008179,414.336182 
z"/>
<path fill="#AB5494" opacity="1.000000" stroke="none" 
	d="
M758.626099,342.999847 
	C757.389771,343.193420 756.325806,342.902954 755.029907,342.359741 
	C755.527954,340.415527 756.890564,338.725861 756.895386,337.032288 
	C757.014221,295.137726 757.035217,253.242554 756.847961,211.348495 
	C756.839050,209.348923 755.234192,206.695938 753.552795,205.494919 
	C749.400452,202.529007 744.700195,200.342987 740.371033,197.605057 
	C738.786072,196.602737 737.626587,194.927795 736.161072,193.227325 
	C744.743103,197.453705 753.437134,202.012451 762.270264,206.834198 
	C760.360596,206.908234 758.722229,207.158875 759.012390,209.887314 
	C759.134766,211.037643 759.027832,212.212219 759.027832,213.375778 
	C759.027405,254.266769 759.030823,295.157776 759.017456,336.048767 
	C759.016785,338.204468 758.874695,340.360138 758.626099,342.999847 
z"/>
<path fill="#EFD6E7" opacity="1.000000" stroke="none" 
	d="
M405.352844,622.943054 
	C393.673737,622.993225 382.365295,622.994568 371.056885,622.995911 
	C370.724274,622.995972 370.391602,623.001526 370.059113,622.995544 
	C359.596130,622.807983 356.429932,619.636169 356.558258,609.367004 
	C356.676575,599.902100 356.851959,590.437927 357.004761,580.510010 
	C358.037231,575.402466 359.067139,570.758301 360.452820,566.026001 
	C360.462158,569.716309 359.869507,573.491272 359.816254,577.273926 
	C359.666229,587.927551 359.706726,598.584290 359.732330,609.239746 
	C359.752411,617.598206 362.065674,619.940613 370.319366,619.968506 
	C381.474304,620.006287 392.629547,620.000916 403.784515,619.969482 
	C412.489258,619.945007 416.090302,619.699341 416.710693,608.309448 
	C419.779999,615.316956 417.648773,619.411560 410.246307,621.065186 
	C408.680664,621.414917 407.228180,622.271301 405.352844,622.943054 
z"/>
<path fill="#AB5494" opacity="1.000000" stroke="none" 
	d="
M759.667969,594.714844 
	C757.935425,596.496643 755.911377,597.977478 753.525513,599.520508 
	C757.911011,595.421875 757.001770,589.815552 757.002197,584.457825 
	C757.005249,546.349609 756.994507,508.241364 756.987122,470.133148 
	C756.986877,468.801910 757.091125,467.458313 756.949280,466.141785 
	C756.574707,462.667023 755.183167,460.439056 750.743042,461.783234 
	C752.914307,460.104797 755.492004,458.501465 758.417969,456.819183 
	C758.852234,464.222321 759.009949,471.704376 759.011902,479.186493 
	C759.021545,515.787537 758.983765,552.388611 758.989624,588.989685 
	C758.989929,590.797791 759.241760,592.605835 759.667969,594.714844 
z"/>
<path fill="#EFD6E7" opacity="1.000000" stroke="none" 
	d="
M473.177979,579.700378 
	C457.655121,579.995850 442.362366,579.995605 427.069580,580.000793 
	C418.002655,580.003906 418.002411,580.007812 418.003876,589.112793 
	C418.004089,590.442566 418.007599,591.772400 418.018585,593.570679 
	C417.858612,596.853699 417.689636,599.668213 417.215607,602.753052 
	C416.910553,594.625366 416.910553,586.227295 416.910553,577.272888 
	C418.246704,577.210144 420.005371,577.058594 421.764282,577.055725 
	C438.711639,577.027893 455.660004,577.115601 472.605408,576.927246 
	C475.470215,576.895386 478.322113,575.705505 481.556274,574.957031 
	C480.774292,575.899353 479.756836,577.207275 478.420532,577.899658 
	C476.898132,578.688538 475.091309,578.928406 473.177979,579.700378 
z"/>
<path fill="#EFD6E7" opacity="1.000000" stroke="none" 
	d="
M502.985352,102.516083 
	C499.978241,102.472267 496.893738,101.726456 493.803497,101.701775 
	C478.891602,101.582657 463.977814,101.608170 449.065613,101.713600 
	C446.632721,101.730797 444.204437,102.405190 441.352966,102.819351 
	C442.406219,101.904526 443.871582,100.128830 445.356293,100.112503 
	C462.792267,99.920700 480.231720,99.931778 497.668427,100.089256 
	C499.420135,100.105080 501.159973,101.429382 502.985352,102.516083 
z"/>
<path fill="#E8DFE6" opacity="1.000000" stroke="none" 
	d="
M341.966034,496.533325 
	C337.443176,496.514557 332.844513,495.871704 328.235809,495.789276 
	C317.426025,495.595917 306.611420,495.670715 295.352356,495.460144 
	C296.396240,494.859467 297.883636,494.079895 299.377228,494.067932 
	C311.476715,493.970764 323.579041,493.917145 335.676117,494.116760 
	C337.756653,494.151062 339.816345,495.449463 341.966034,496.533325 
z"/>
<path fill="#EFD6E7" opacity="1.000000" stroke="none" 
	d="
M324.898010,290.950378 
	C311.953918,291.372955 298.800934,291.497314 285.304230,291.397888 
	C285.987030,290.791107 287.011475,290.081879 288.040436,290.075195 
	C299.645782,289.999756 311.251862,290.022827 322.857605,290.061890 
	C323.468781,290.063965 324.078644,290.446655 324.898010,290.950378 
z"/>
<path fill="#AB5494" opacity="1.000000" stroke="none" 
	d="
M592.409363,110.846954 
	C589.116699,109.622833 585.738037,108.024872 582.277344,106.630531 
	C577.023376,104.513680 571.712463,102.538200 566.223389,100.202713 
	C570.138123,100.863564 574.475464,101.300690 578.316772,102.916931 
	C583.184204,104.964928 587.648499,107.971245 592.409363,110.846954 
z"/>
<path fill="#EFD6E7" opacity="1.000000" stroke="none" 
	d="
M336.856476,336.465363 
	C336.579742,324.547607 336.444885,312.270813 336.459747,299.561035 
	C336.739105,311.454163 336.868744,323.780212 336.856476,336.465363 
z"/>
<path fill="#EFD6E7" opacity="1.000000" stroke="none" 
	d="
M505.859802,119.930542 
	C505.343445,115.700310 505.160431,111.304497 505.033325,106.445053 
	C505.457184,110.575935 505.825165,115.170441 505.859802,119.930542 
z"/>
<path fill="#AB5494" opacity="1.000000" stroke="none" 
	d="
M557.674500,99.719780 
	C554.511292,100.914436 551.051758,101.931953 547.164673,102.885406 
	C550.284119,101.728439 553.831116,100.635544 557.674500,99.719780 
z"/>
<path fill="#EFD6E7" opacity="1.000000" stroke="none" 
	d="
M824.990601,418.164490 
	C822.866394,419.879761 820.369934,421.544769 817.513489,423.261993 
	C819.641785,421.580902 822.130127,419.847595 824.990601,418.164490 
z"/>
<path fill="#AB5494" opacity="1.000000" stroke="none" 
	d="
M544.643555,103.559540 
	C542.887451,105.046227 540.804749,106.532990 538.359497,108.013580 
	C540.103577,106.524803 542.210266,105.042206 544.643555,103.559540 
z"/>
<path fill="#EFD6E7" opacity="1.000000" stroke="none" 
	d="
M587.327148,704.753174 
	C586.146851,700.440186 590.012146,701.159119 592.619751,700.048096 
	C591.213318,701.544861 589.424011,703.084778 587.327148,704.753174 
z"/>
<path fill="#EFD6E7" opacity="1.000000" stroke="none" 
	d="
M279.558136,291.279419 
	C278.197784,292.684662 276.559387,293.912323 274.614471,295.311157 
	C274.093201,291.897217 276.119202,290.855438 279.558136,291.279419 
z"/>
<path fill="#AB5494" opacity="1.000000" stroke="none" 
	d="
M748.670227,462.055969 
	C747.774719,463.002502 746.534485,463.966644 744.891113,464.881470 
	C745.767151,463.912628 747.046265,462.993103 748.670227,462.055969 
z"/>
<path fill="#EFD6E7" opacity="1.000000" stroke="none" 
	d="
M336.569183,296.668030 
	C335.614532,295.840088 334.842499,294.777283 333.999878,293.383972 
	C334.870148,294.180023 335.810974,295.306580 336.569183,296.668030 
z"/>
<path fill="#E8DFE6" opacity="1.000000" stroke="none" 
	d="
M344.835144,500.985718 
	C343.931030,500.122711 343.100647,498.846802 342.184967,497.257629 
	C343.036102,498.153870 343.972504,499.363373 344.835144,500.985718 
z"/>
<path fill="#EFD6E7" opacity="1.000000" stroke="none" 
	d="
M333.876831,292.795898 
	C333.121338,292.768738 332.281219,292.463623 331.274933,291.859985 
	C332.003235,291.880280 332.897736,292.199127 333.876831,292.795898 
z"/>
<path fill="#EFD6E7" opacity="1.000000" stroke="none" 
	d="
M336.771271,346.627686 
	C336.530151,345.557465 336.440613,344.222473 336.537476,342.526978 
	C336.790222,343.565277 336.856537,344.964142 336.771271,346.627686 
z"/>
<path fill="#EFD6E7" opacity="1.000000" stroke="none" 
	d="
M505.070282,105.551758 
	C504.416718,105.118202 503.766418,104.343788 503.115997,103.251526 
	C503.768402,103.692749 504.420959,104.451820 505.070282,105.551758 
z"/>
<path fill="#E8DFE6" opacity="1.000000" stroke="none" 
	d="
M496.674744,298.405762 
	C495.569672,298.715393 494.204651,298.828308 492.444092,298.815155 
	C493.503967,298.529083 494.959381,298.369049 496.674744,298.405762 
z"/>
<path fill="#E6E1E8" opacity="1.000000" stroke="none" 
	d="
M444.264099,284.429993 
	C445.073608,284.050201 446.119263,283.899384 447.560669,283.790833 
	C446.804382,284.108337 445.652283,284.383636 444.264099,284.429993 
z"/>
<path fill="#EFD6E7" opacity="1.000000" stroke="none" 
	d="
M609.336670,691.884460 
	C609.473267,691.298706 609.924194,690.692261 610.687744,690.049011 
	C610.550598,690.629395 610.100830,691.246582 609.336670,691.884460 
z"/>
<path fill="#B73894" opacity="1.000000" stroke="none" 
	d="
M602.542480,348.980804 
	C602.301086,347.927368 602.396423,346.693390 602.791138,345.235107 
	C603.020142,346.273956 602.949646,347.537109 602.542480,348.980804 
z"/>
<path fill="#E8DFE6" opacity="1.000000" stroke="none" 
	d="
M488.793182,298.666382 
	C488.510956,299.241089 488.052216,299.601593 487.287964,299.962097 
	C487.527161,299.458771 488.071930,298.955444 488.793182,298.666382 
z"/>
<path fill="#B73894" opacity="1.000000" stroke="none" 
	d="
M601.421143,353.255981 
	C601.260376,352.173004 601.414429,350.828613 601.926514,349.285431 
	C602.101624,350.389282 601.918762,351.691925 601.421143,353.255981 
z"/>
<path fill="#EFD6E7" opacity="1.000000" stroke="none" 
	d="
M486.825562,426.157013 
	C486.728058,426.831482 486.263580,427.483826 485.506775,428.247437 
	C485.629150,427.617432 486.043884,426.876160 486.825562,426.157013 
z"/>
<path fill="#EFD6E7" opacity="1.000000" stroke="none" 
	d="
M482.384369,573.996765 
	C482.274109,573.485046 482.440460,572.921753 482.870667,572.188599 
	C482.976685,572.660828 482.818817,573.303040 482.384369,573.996765 
z"/>
<path fill="#AB5494" opacity="1.000000" stroke="none" 
	d="
M741.710571,466.114319 
	C741.396118,466.673737 740.754517,467.269806 739.735718,467.805542 
	C740.033508,467.213806 740.708496,466.682373 741.710571,466.114319 
z"/>
<path fill="#E8DFE6" opacity="1.000000" stroke="none" 
	d="
M291.761414,495.592102 
	C291.500488,496.173218 291.056152,496.553589 290.304199,496.930298 
	C290.523743,496.414886 291.050873,495.903137 291.761414,495.592102 
z"/>
<path fill="#AB5494" opacity="1.000000" stroke="none" 
	d="
M595.074890,112.623688 
	C594.497498,112.593307 593.791077,112.294441 592.987244,111.699265 
	C593.575195,111.720383 594.260498,112.037788 595.074890,112.623688 
z"/>
<path fill="#E8DFE6" opacity="1.000000" stroke="none" 
	d="
M288.636841,498.004700 
	C288.720245,498.551025 288.525726,499.118835 288.046387,499.814514 
	C287.960663,499.303650 288.159790,498.664917 288.636841,498.004700 
z"/>
<path fill="#E0DFE9" opacity="1.000000" stroke="none" 
	d="
M1001.454224,452.996460 
	C1001.556763,452.388885 1001.978699,451.749603 1002.689087,451.032166 
	C1002.576172,451.624268 1002.174866,452.294525 1001.454224,452.996460 
z"/>
<path fill="#E6E1E8" opacity="1.000000" stroke="none" 
	d="
M437.177063,439.420654 
	C437.448883,439.115356 437.886932,439.007202 438.661987,438.956055 
	C438.447083,439.214661 437.895172,439.416260 437.177063,439.420654 
z"/>
<path fill="#EFD6E7" opacity="1.000000" stroke="none" 
	d="
M488.808624,425.056152 
	C488.668732,425.441223 488.203094,425.810730 487.430664,426.194458 
	C487.576874,425.819336 488.029877,425.429962 488.808624,425.056152 
z"/>
<path fill="#E8DFE6" opacity="1.000000" stroke="none" 
	d="
M438.651245,106.126381 
	C438.863312,106.448303 438.875061,106.902023 438.707458,107.651535 
	C438.502380,107.384277 438.476654,106.821228 438.651245,106.126381 
z"/>
<path fill="#AB5494" opacity="1.000000" stroke="none" 
	d="
M536.454590,109.393387 
	C536.354980,109.820572 535.939331,110.331123 535.156982,110.827408 
	C535.239746,110.367683 535.689148,109.922211 536.454590,109.393387 
z"/>
<path fill="#EFD6E7" opacity="1.000000" stroke="none" 
	d="
M439.667145,104.087891 
	C439.776123,104.277390 439.658295,104.594086 439.309265,105.036499 
	C439.198792,104.846512 439.319550,104.530800 439.667145,104.087891 
z"/>
<path fill="#E8DFE6" opacity="1.000000" stroke="none" 
	d="
M289.696289,497.079834 
	C289.921417,497.359894 289.770599,497.625275 289.223267,497.847534 
	C289.049835,497.580902 289.214355,497.334473 289.696289,497.079834 
z"/>
<path fill="#EFD6E7" opacity="1.000000" stroke="none" 
	d="
M504.030701,164.806335 
	C503.941040,164.565140 504.149963,164.263321 504.606293,163.833710 
	C504.678864,164.052490 504.504059,164.399094 504.030701,164.806335 
z"/>
<path fill="#EFD6E7" opacity="1.000000" stroke="none" 
	d="
M815.138916,424.243195 
	C815.157959,424.505096 814.880493,424.762756 814.309692,425.029968 
	C814.291626,424.772675 814.566956,424.505829 815.138916,424.243195 
z"/>
<path fill="#EFD6E7" opacity="1.000000" stroke="none" 
	d="
M334.112732,352.841003 
	C334.017029,352.611267 334.197296,352.299988 334.629700,351.876892 
	C334.717438,352.096497 334.553070,352.428009 334.112732,352.841003 
z"/>
<path fill="#E8DFE6" opacity="1.000000" stroke="none" 
	d="
M530.838135,114.160004 
	C530.949890,114.380020 530.796570,114.703125 530.396423,115.150879 
	C530.290710,114.938049 530.431824,114.600563 530.838135,114.160004 
z"/>
<path fill="#EFD6E7" opacity="1.000000" stroke="none" 
	d="
M505.374023,161.943710 
	C505.198486,161.851578 505.169128,161.669571 505.258606,161.237762 
	C505.482605,161.178391 505.611633,161.360764 505.679962,161.563599 
	C505.703796,161.634384 505.577789,161.755630 505.374023,161.943710 
z"/>
<path fill="#E8DFE6" opacity="1.000000" stroke="none" 
	d="
M528.735596,117.134872 
	C528.867249,117.335976 528.758728,117.684357 528.410583,118.180389 
	C528.279053,117.979416 528.387146,117.630783 528.735596,117.134872 
z"/>
<path fill="#E0DFE9" opacity="1.000000" stroke="none" 
	d="
M999.944214,454.630737 
	C999.800049,454.324005 999.977539,453.986328 1000.440186,453.561768 
	C1000.572205,453.849854 1000.419067,454.224823 999.944214,454.630737 
z"/>
<path fill="#AB5494" opacity="1.000000" stroke="none" 
	d="
M537.735474,108.049568 
	C537.801270,108.278450 537.593933,108.557228 537.133179,108.922264 
	C537.073914,108.705498 537.268127,108.402481 537.735474,108.049568 
z"/>
<path fill="#EFD6E7" opacity="1.000000" stroke="none" 
	d="
M792.648071,577.118408 
	C792.263306,582.117676 788.375671,582.321411 784.330505,582.436523 
	C786.819153,580.505005 789.561768,578.808350 792.648071,577.118408 
z"/>
<path fill="#EFD6E7" opacity="1.000000" stroke="none" 
	d="
M767.695068,590.985596 
	C767.725403,591.242493 767.452332,591.510620 766.888916,591.829712 
	C766.863037,591.586121 767.127441,591.291443 767.695068,590.985596 
z"/>
<path fill="#EFD6E7" opacity="1.000000" stroke="none" 
	d="
M796.691223,574.961670 
	C796.732666,575.232666 796.473877,575.501099 795.934021,575.824585 
	C795.898926,575.572815 796.144958,575.265991 796.691223,574.961670 
z"/>
<path fill="#B73894" opacity="1.000000" stroke="none" 
	d="
M603.077759,685.075684 
	C602.886597,685.489929 602.332153,685.892334 601.432251,686.241211 
	C601.629395,685.813049 602.171936,685.438416 603.077759,685.075684 
z"/>
<path fill="#B73894" opacity="1.000000" stroke="none" 
	d="
M600.853516,686.199463 
	C600.978210,686.428040 600.831726,686.780518 600.409485,687.264893 
	C600.283203,687.038940 600.432800,686.681152 600.853516,686.199463 
z"/>
<path fill="#AB5494" opacity="1.000000" stroke="none" 
	d="
M750.854736,600.808960 
	C749.914673,601.695862 748.785217,602.326782 747.324585,602.993225 
	C748.217407,602.203491 749.441406,601.378235 750.854736,600.808960 
z"/>
<path fill="#AB5494" opacity="1.000000" stroke="none" 
	d="
M745.534912,603.942993 
	C745.385742,604.248047 744.972229,604.584717 744.276428,604.876709 
	C744.419556,604.546143 744.845093,604.260376 745.534912,603.942993 
z"/>
<path fill="#EFD6E7" opacity="1.000000" stroke="none" 
	d="
M735.926208,332.626343 
	C733.928772,332.312927 731.745544,331.754639 729.605835,331.062103 
	C726.306702,329.994293 723.029236,328.857147 719.760437,327.699127 
	C718.832947,327.370544 717.638611,327.108551 717.123474,326.407104 
	C711.113464,318.223480 700.933716,316.596985 693.270630,311.056702 
	C691.651428,309.886078 690.423462,308.174438 689.018555,306.345276 
	C697.594299,310.562714 706.241333,315.013885 714.715942,319.772278 
	C721.834961,323.769501 728.752930,328.124634 735.926208,332.626343 
z"/>
<path fill="#EFD6E7" opacity="1.000000" stroke="none" 
	d="
M740.961060,335.594269 
	C739.457520,335.132965 737.787292,334.376587 736.089478,333.256165 
	C737.639404,333.694489 739.216919,334.496826 740.961060,335.594269 
z"/>
<path fill="#EFD6E7" opacity="1.000000" stroke="none" 
	d="
M742.995911,336.586548 
	C742.545227,336.714600 741.945862,336.567261 741.201172,336.132629 
	C741.652954,336.000610 742.250061,336.155884 742.995911,336.586548 
z"/>
<path fill="#FEFAFC" opacity="1.000000" stroke="none" 
	d="
M798.259644,865.220337 
	C798.287964,874.014282 798.177185,882.340881 798.329224,890.662720 
	C798.410706,895.124695 796.511353,898.008972 792.392395,899.389343 
	C789.563110,900.337524 786.644592,901.682617 783.761230,901.694397 
	C768.970581,901.754639 754.135864,902.060303 739.400940,901.049011 
	C728.711853,900.315369 726.839661,897.200562 726.838562,886.577026 
	C726.838013,880.583252 727.114502,874.573181 726.767395,868.599487 
	C726.226196,859.284668 729.188110,855.394043 738.582214,854.614929 
	C755.228271,853.234375 772.084595,853.731018 788.817688,854.368652 
	C795.964539,854.641113 798.091309,858.139893 798.259644,865.220337 
z"/>
<path fill="#EC3B84" opacity="1.000000" stroke="none" 
	d="
M661.876770,919.991821 
	C667.088501,918.860779 672.065735,918.278076 676.442017,916.338989 
	C678.279236,915.525024 679.805298,911.852600 679.836731,909.458130 
	C680.103638,889.146057 679.990540,868.828979 679.996521,848.513428 
	C679.998901,840.506775 684.121399,838.188354 692.656494,842.353271 
	C692.656494,865.117493 692.645569,888.330078 692.664062,911.542603 
	C692.668701,917.417908 685.036560,925.939636 680.748047,926.882324 
	C671.524658,928.909851 662.293396,930.873657 652.719299,930.062378 
	C649.445007,929.784912 646.951355,929.510193 646.888428,925.161255 
	C646.822205,920.580322 649.338806,919.922791 652.907166,919.986511 
	C655.737122,920.037109 658.568665,919.993896 661.876770,919.991821 
z"/>
<path fill="#B73894" opacity="1.000000" stroke="none" 
	d="
M435.974762,282.004883 
	C419.652588,282.005493 403.825287,282.016876 387.997986,282.002045 
	C380.494629,281.995026 377.053101,278.640900 377.013733,271.034241 
	C376.939545,256.706757 376.934723,242.378204 377.037872,228.051056 
	C377.060394,224.926056 377.904388,221.807632 377.935425,218.681870 
	C377.988373,213.345856 375.870636,211.753464 370.628998,211.899307 
	C362.804779,212.117004 354.970428,212.050903 347.141449,211.982681 
	C343.141937,211.947815 341.014160,209.743896 341.001831,205.734741 
	C340.964417,193.572830 341.004913,181.410675 340.973175,169.248718 
	C340.964111,165.772614 342.771027,164.800720 346.023163,163.824295 
	C356.510254,160.675598 367.144531,162.437775 377.698425,162.049911 
	C384.885803,161.785767 388.975098,166.141129 389.004120,173.565186 
	C389.038025,182.228409 388.949036,190.892609 389.053406,199.554703 
	C389.076935,201.505630 389.420349,203.543671 390.083313,205.372391 
	C390.872803,207.550232 392.235321,208.896271 395.039551,207.638947 
	C396.609650,206.934967 398.608337,206.987656 400.407135,207.025116 
	C413.027649,207.287888 425.646088,207.648911 438.266266,207.929688 
	C439.234894,207.951248 440.208160,207.574356 441.185547,207.423004 
	C447.302246,206.475800 451.004059,209.586044 451.005768,215.683578 
	C451.010895,234.009933 451.009003,252.336273 451.006653,270.662628 
	C451.006500,271.828430 451.105377,273.011963 450.943878,274.157043 
	C450.058350,280.436157 448.234680,282.003571 441.967712,282.006073 
	C440.135010,282.006775 438.302338,282.005341 435.974762,282.004883 
z"/>
<path fill="#EC3B84" opacity="1.000000" stroke="none" 
	d="
M615.048340,910.310669 
	C614.997253,891.254944 614.937195,872.634216 615.027039,854.014160 
	C615.043701,850.563171 614.932251,846.787415 616.275330,843.785889 
	C617.111572,841.916870 620.473938,840.521301 622.876709,840.194763 
	C625.277527,839.868469 628.064880,840.504761 628.101318,844.469543 
	C628.299133,866.041260 628.818604,887.611267 628.822327,909.181885 
	C628.822693,911.054626 626.235474,913.814941 624.233521,914.610046 
	C620.460938,916.108154 617.208801,914.268555 615.048340,910.310669 
z"/>
<path fill="#EC3B84" opacity="1.000000" stroke="none" 
	d="
M621.817566,834.917542 
	C617.513550,834.106079 613.397949,833.207336 613.026367,828.259155 
	C612.720276,824.184814 615.415527,821.808533 619.108215,821.042053 
	C624.274902,819.969604 629.751343,822.489929 630.551392,826.467773 
	C631.191162,829.648682 630.207520,832.739685 626.552124,833.931213 
	C625.157288,834.385925 623.667603,834.549805 621.817566,834.917542 
z"/>
</svg>