<?xml version="1.0" standalone="no"?>
<!DOCTYPE svg PUBLIC "-//W3C//DTD SVG 20010904//EN"
 "http://www.w3.org/TR/2001/REC-SVG-20010904/DTD/svg10.dtd">
<svg version="1.0" xmlns="http://www.w3.org/2000/svg"
 width="1280.000000pt" height="1191.000000pt" viewBox="0 0 1280.000000 1191.000000"
 preserveAspectRatio="xMidYMid meet">

<g transform="translate(0.000000,1191.000000) scale(0.100000,-0.100000)"
fill="#000000" stroke="none">
<path d="M5504 10902 c-33 -10 -77 -28 -97 -41 -55 -34 -123 -116 -149 -179
l-23 -57 -3 -840 c-1 -462 -7 -844 -11 -848 -5 -5 -85 -11 -178 -13 -167 -3
-168 -3 -191 -30 l-23 -26 3 -328 3 -328 25 -27 25 -26 430 3 c415 4 432 4
485 26 72 28 122 71 167 141 57 87 63 130 63 446 0 173 4 295 11 320 35 125
146 160 277 89 74 -40 260 -145 362 -204 66 -38 115 -65 230 -128 36 -19 82
-46 102 -59 21 -13 39 -23 41 -23 2 0 50 -26 108 -58 57 -32 183 -103 279
-157 96 -53 274 -154 395 -223 121 -68 263 -149 315 -178 191 -106 223 -140
224 -238 1 -53 -3 -68 -26 -98 -27 -35 -86 -80 -158 -121 -19 -10 -116 -65
-215 -121 -99 -57 -254 -145 -345 -196 -91 -51 -246 -139 -345 -195 -251 -143
-323 -184 -375 -213 -25 -14 -123 -69 -217 -123 -95 -54 -199 -113 -230 -130
-32 -17 -62 -35 -68 -39 -5 -5 -41 -24 -80 -44 -78 -40 -127 -45 -181 -20 -65
31 -64 22 -64 414 0 396 -1 407 -70 497 -42 56 -81 84 -158 114 -54 21 -76 22
-475 26 -229 3 -433 2 -453 -1 -19 -4 -44 -16 -55 -27 -18 -18 -19 -36 -19
-353 0 -314 1 -335 19 -357 19 -24 23 -24 220 -27 l201 -3 2 -852 3 -852 31
-65 c32 -67 97 -140 148 -167 88 -46 192 -58 286 -34 72 19 251 114 324 173
27 21 109 69 231 134 27 14 65 36 85 49 19 12 80 47 135 78 55 30 181 101 280
157 99 56 209 118 245 138 36 19 70 38 75 42 6 4 37 22 70 40 33 18 131 74
218 124 259 149 690 394 717 408 14 7 41 22 60 34 19 11 60 34 90 51 51 27
295 165 565 318 61 35 133 75 160 91 28 15 78 45 113 66 34 21 64 38 66 38 3
0 31 15 63 34 190 109 276 158 339 189 171 86 376 246 468 366 107 139 154
264 163 431 10 213 -51 368 -215 542 -62 65 -211 183 -277 219 -150 82 -502
280 -550 310 -81 50 -420 244 -825 471 -113 64 -315 177 -450 253 -135 76
-281 157 -325 180 -83 43 -203 110 -365 203 -52 30 -142 81 -200 112 -58 32
-186 103 -285 160 -99 56 -281 159 -405 228 -124 69 -247 139 -275 157 -111
70 -264 154 -311 170 -73 25 -158 28 -230 7z"/>
<path d="M4418 10893 c-32 -8 -38 -60 -38 -330 l0 -264 25 -24 24 -25 281 0
281 0 24 25 25 24 0 276 0 276 -25 24 -24 25 -278 -1 c-153 -1 -286 -3 -295
-6z"/>
<path d="M3395 10285 c-25 -24 -25 -24 -25 -240 0 -283 -14 -265 210 -265
l160 0 0 -304 c0 -196 4 -314 11 -335 20 -58 30 -60 394 -56 325 3 330 3 347
25 17 20 18 51 18 370 0 323 -1 348 -18 363 -16 15 -52 17 -305 17 l-286 0 -3
206 c-3 202 -3 206 -27 225 -21 17 -41 19 -238 19 -214 0 -214 0 -238 -25z"/>
<path d="M2775 8988 c-44 -24 -45 -31 -45 -290 0 -260 5 -296 45 -312 9 -3
131 -6 271 -6 l255 0 24 25 25 24 0 261 0 261 -25 24 -24 25 -253 0 c-164 -1
-260 -4 -273 -12z"/>
<path d="M3692 8280 c-22 -21 -22 -24 -22 -364 0 -336 0 -343 21 -362 20 -18
41 -19 361 -19 l340 0 19 24 c18 22 19 43 19 360 l0 338 -23 21 c-23 22 -28
22 -358 22 -324 0 -336 -1 -357 -20z"/>
<path d="M2290 7990 c-19 -19 -20 -33 -20 -263 0 -224 2 -245 18 -260 16 -15
49 -17 254 -17 217 0 238 2 259 19 24 19 24 22 27 237 2 120 1 229 -3 241 -3
13 -14 32 -25 43 -19 19 -34 20 -255 20 -222 0 -236 -1 -255 -20z"/>
<path d="M2895 6935 l-25 -24 0 -235 0 -235 26 -20 c25 -20 39 -21 260 -21
l233 0 20 26 c20 25 21 39 21 250 0 234 -5 268 -44 278 -11 3 -121 6 -244 6
l-223 0 -24 -25z"/>
<path d="M4075 6895 l-25 -24 0 -289 c0 -255 -2 -291 -16 -296 -9 -3 -102 -6
-208 -6 -180 0 -194 -1 -214 -20 -21 -20 -22 -27 -22 -255 0 -222 1 -236 20
-255 19 -19 33 -20 260 -20 227 0 241 1 260 20 19 19 20 33 20 210 l0 190 308
0 c331 1 331 1 352 54 6 17 10 149 10 345 0 307 -1 319 -21 345 l-20 26 -340
0 -340 0 -24 -25z"/>
<path d="M4320 5560 c-19 -19 -20 -33 -20 -321 0 -177 4 -308 10 -319 18 -34
65 -40 330 -40 270 0 311 5 332 44 13 24 25 496 14 569 -4 24 -16 54 -27 66
-19 21 -26 21 -319 21 -287 0 -301 -1 -320 -20z"/>
<path d="M4505 3734 c-101 -21 -212 -79 -247 -129 l-27 -40 -2 -384 -2 -384
22 -19 c15 -12 39 -18 71 -18 77 0 79 5 82 226 l3 189 455 5 c250 3 456 7 457
8 1 1 5 18 9 37 4 25 1 43 -10 60 l-16 25 -448 2 -447 3 -3 112 -3 111 28 20
c38 27 113 41 255 49 110 6 121 8 135 29 19 30 9 79 -20 99 -28 20 -195 19
-292 -1z"/>
<path d="M6131 3694 c-40 -34 -40 -67 0 -105 75 -70 217 -2 173 83 -19 36 -43
48 -98 48 -33 0 -52 -6 -75 -26z"/>
<path d="M6794 3708 c-56 -27 -56 -105 1 -132 79 -38 165 -4 165 65 0 48 -39
79 -98 78 -26 0 -57 -5 -68 -11z"/>
<path d="M6170 3529 c-13 -6 -28 -15 -32 -22 -4 -7 -8 -170 -8 -363 0 -399 -3
-384 82 -384 81 0 78 -13 78 388 0 305 -2 353 -16 366 -8 9 -24 16 -34 16 -10
0 -24 2 -32 4 -7 3 -24 0 -38 -5z"/>
<path d="M6797 3525 c-15 -15 -17 -52 -17 -363 0 -385 1 -380 -65 -402 -19 -6
-82 -15 -139 -19 -61 -4 -111 -13 -120 -20 -10 -8 -16 -29 -16 -52 0 -63 26
-73 166 -65 63 3 135 11 160 16 81 18 142 74 164 151 6 19 10 184 10 375 0
313 -1 344 -18 364 -24 30 -101 39 -125 15z"/>
<path d="M5725 3520 c-122 -16 -204 -60 -241 -132 -24 -47 -24 -51 -24 -322 0
-236 2 -277 16 -290 20 -21 93 -21 122 0 22 15 22 18 22 277 0 293 0 294 68
323 21 9 81 18 139 21 71 4 107 10 115 20 17 21 11 83 -9 99 -20 15 -108 16
-208 4z"/>
<path d="M7363 3520 c-70 -11 -177 -62 -218 -104 -19 -19 -39 -52 -44 -73 -14
-49 -14 -357 -1 -405 23 -81 103 -136 238 -163 68 -14 127 -16 335 -13 234 4
256 6 311 27 36 14 76 40 102 66 58 58 67 106 63 315 -4 152 -6 169 -29 215
-28 56 -77 94 -155 121 -41 14 -94 18 -300 20 -137 1 -273 -1 -302 -6z m537
-140 c19 -7 45 -22 58 -33 21 -20 22 -26 22 -203 l0 -183 -26 -20 c-52 -41
-88 -46 -339 -46 -261 0 -296 6 -340 53 -24 26 -25 30 -25 193 0 165 0 166 26
192 24 24 84 49 144 61 56 10 445 -1 480 -14z"/>
</g>
</svg>
