<svg width="278" height="278" viewBox="0 0 278 278" fill="none" xmlns="http://www.w3.org/2000/svg">
<circle opacity="0.2" cx="139" cy="139" r="139" fill="#EC3122"/>
<circle opacity="0.25" cx="139" cy="139" r="104" fill="#EC3122"/>
<circle cx="139.5" cy="139.5" r="69.5" fill="#F33020" fill-opacity="0.5"/>
<path d="M113.528 133.631H104.143V138.362H112.428V141.686H104.143V148.207H100V130.307H113.528V133.631Z" fill="white"/>
<path d="M132.698 148.207H128.249L124.796 143.221H124.592H120.986V148.207H116.844V130.307H124.592C129.374 130.307 132.366 132.787 132.366 136.802C132.366 139.487 131.01 141.456 128.683 142.454L132.698 148.207ZM128.172 136.802C128.172 134.833 126.893 133.682 124.362 133.682H120.986V139.922H124.362C126.893 139.922 128.172 138.746 128.172 136.802Z" fill="white"/>
<path d="M136.159 148.207V130.307H140.302V148.207H136.159Z" fill="white"/>
<path d="M148.36 148.514C145.957 148.514 143.834 147.594 142.53 145.906L144.831 143.144C145.803 144.448 146.877 145.113 148.156 145.113C149.818 145.113 150.687 144.116 150.687 142.147V133.631H144.397V130.307H154.805V141.917C154.805 146.34 152.58 148.514 148.36 148.514Z" fill="white"/>
<path d="M168.077 148.514C162.425 148.514 158.283 144.576 158.283 139.257C158.283 133.938 162.425 130 168.077 130C173.703 130 177.871 133.913 177.871 139.257C177.871 144.602 173.703 148.514 168.077 148.514ZM168.077 144.985C171.273 144.985 173.677 142.658 173.677 139.257C173.677 135.856 171.273 133.529 168.077 133.529C164.88 133.529 162.477 135.856 162.477 139.257C162.477 142.658 164.88 144.985 168.077 144.985Z" fill="white"/>
</svg>
