<svg width="16" height="16" viewBox="0 0 16 16" fill="none" xmlns="http://www.w3.org/2000/svg">
<path d="M14.6199 4.50665L12.3733 13.5267C12.2133 14.2 11.6133 14.6666 10.9199 14.6666H2.15992C1.15326 14.6666 0.433267 13.6799 0.733267 12.7133L3.53993 3.70001C3.73326 3.07335 4.31327 2.63995 4.9666 2.63995H13.1666C13.7999 2.63995 14.3266 3.02662 14.5466 3.55996C14.6733 3.84662 14.6999 4.17332 14.6199 4.50665Z" stroke="white" stroke-width="0.6" stroke-miterlimit="10"/>
<path d="M10.6665 14.6667H13.8532C14.7132 14.6667 15.3865 13.94 15.3265 13.08L14.6665 4" stroke="white" stroke-width="0.6" stroke-miterlimit="10" stroke-linecap="round" stroke-linejoin="round"/>
<path d="M6.45312 4.25332L7.14646 1.37335" stroke="white" stroke-width="0.6" stroke-miterlimit="10" stroke-linecap="round" stroke-linejoin="round"/>
<path d="M10.9199 4.26001L11.5466 1.3667" stroke="white" stroke-width="0.6" stroke-miterlimit="10" stroke-linecap="round" stroke-linejoin="round"/>
<path d="M5.1333 8H10.4666" stroke="white" stroke-width="0.6" stroke-miterlimit="10" stroke-linecap="round" stroke-linejoin="round"/>
<path d="M4.4668 10.6667H9.80013" stroke="white" stroke-width="0.6" stroke-miterlimit="10" stroke-linecap="round" stroke-linejoin="round"/>
</svg>
