<svg width="13" height="13" viewBox="0 0 13 13" fill="none" xmlns="http://www.w3.org/2000/svg">
<path d="M11.3594 3.91456V6.92923C11.3594 7.68289 11.1082 8.31095 10.666 8.7531C10.2289 9.19023 9.60087 9.44145 8.8472 9.44145V10.5117C8.8472 10.9136 8.40003 11.1548 8.06842 10.9337L5.83254 9.44145H4.76736C4.80756 9.29071 4.82765 9.13496 4.82765 8.97418C4.82765 8.46168 4.6317 7.98939 4.31014 7.63266C3.94838 7.22066 3.41076 6.9644 2.81788 6.9644C2.25514 6.9644 1.74265 7.19554 1.37587 7.57237C1.33065 7.37139 1.31055 7.15533 1.31055 6.92923V3.91456C1.31055 2.40723 2.31543 1.40234 3.82277 1.40234H8.8472C10.3545 1.40234 11.3594 2.40723 11.3594 3.91456Z" stroke="white" stroke-width="0.452199" stroke-miterlimit="10" stroke-linecap="round" stroke-linejoin="round"/>
<path d="M4.82814 8.97071C4.82814 9.13149 4.80805 9.28725 4.76785 9.43798C4.72263 9.63896 4.64225 9.83491 4.53673 10.0057C4.19005 10.5886 3.55194 10.9805 2.81837 10.9805C2.30085 10.9805 1.83358 10.7845 1.48187 10.463C1.33113 10.3323 1.20049 10.1766 1.1 10.0057C0.9141 9.70428 0.808594 9.34755 0.808594 8.97071C0.808594 8.42807 1.02465 7.93067 1.37636 7.56891C1.74314 7.19207 2.25563 6.96094 2.81837 6.96094C3.41125 6.96094 3.94887 7.21719 4.31063 7.6292C4.63219 7.98593 4.82814 8.45822 4.82814 8.97071Z" stroke="white" stroke-width="0.452199" stroke-miterlimit="10" stroke-linecap="round" stroke-linejoin="round"/>
<path d="M3.56563 8.96094H2.06836" stroke="white" stroke-width="0.452199" stroke-miterlimit="10" stroke-linecap="round" stroke-linejoin="round"/>
<path d="M2.81738 8.22656V9.72886" stroke="white" stroke-width="0.452199" stroke-miterlimit="10" stroke-linecap="round" stroke-linejoin="round"/>
<path d="M4.57715 5.45703H8.09425" stroke="white" stroke-width="0.452199" stroke-miterlimit="10" stroke-linecap="round" stroke-linejoin="round"/>
</svg>
