<svg width="28" height="28" viewBox="0 0 28 28" fill="none" xmlns="http://www.w3.org/2000/svg">
<path d="M14.0002 18.083C16.5785 18.083 18.6668 15.9947 18.6668 13.4163V6.99967C18.6668 4.42134 16.5785 2.33301 14.0002 2.33301C11.4218 2.33301 9.3335 4.42134 9.3335 6.99967V13.4163C9.3335 15.9947 11.4218 18.083 14.0002 18.083Z" fill="white"/>
<path d="M5.0752 11.2588V13.2421C5.0752 18.1655 9.07686 22.1671 14.0002 22.1671C18.9235 22.1671 22.9252 18.1655 22.9252 13.2421V11.2588" stroke="white" stroke-width="1.5" stroke-linecap="round" stroke-linejoin="round"/>
<path d="M12.3784 7.50164C13.4284 7.11664 14.5718 7.11664 15.6218 7.50164" stroke="#464646" stroke-width="1.5" stroke-linecap="round" stroke-linejoin="round"/>
<path d="M13.0669 9.97504C13.6852 9.81171 14.3269 9.81171 14.9452 9.97504" stroke="#464646" stroke-width="1.5" stroke-linecap="round" stroke-linejoin="round"/>
<path d="M14 22.167V25.667" stroke="white" stroke-width="1.5" stroke-linecap="round" stroke-linejoin="round"/>
</svg>
