<svg width="20" height="20" viewBox="0 0 20 20" fill="none" xmlns="http://www.w3.org/2000/svg">
<path d="M11.6665 4.16667C11.6665 3.25 10.9165 2.5 9.99984 2.5C9.08317 2.5 8.33317 3.25 8.33317 4.16667C8.33317 5.08333 9.08317 5.83333 9.99984 5.83333C10.9165 5.83333 11.6665 5.08333 11.6665 4.16667Z" stroke="white" stroke-width="0.8"/>
<path d="M11.6665 15.8332C11.6665 14.9165 10.9165 14.1665 9.99984 14.1665C9.08317 14.1665 8.33317 14.9165 8.33317 15.8332C8.33317 16.7498 9.08317 17.4998 9.99984 17.4998C10.9165 17.4998 11.6665 16.7498 11.6665 15.8332Z" stroke="white" stroke-width="0.8"/>
<path d="M11.6665 10.0002C11.6665 9.0835 10.9165 8.3335 9.99984 8.3335C9.08317 8.3335 8.33317 9.0835 8.33317 10.0002C8.33317 10.9168 9.08317 11.6668 9.99984 11.6668C10.9165 11.6668 11.6665 10.9168 11.6665 10.0002Z" stroke="white" stroke-width="0.8"/>
</svg>
