<svg width="16" height="17" viewBox="0 0 16 17" fill="none" xmlns="http://www.w3.org/2000/svg">
<path fill-rule="evenodd" clip-rule="evenodd" d="M7.25652 15.7992C7.48129 15.9385 7.73293 16.0118 8.00167 16.0069C8.02619 16.0045 8.05097 16.0024 8.07568 16.0003L8.07591 16.0002L8.07597 16.0002C8.12746 15.9958 8.17862 15.9915 8.22644 15.9849C8.46264 15.9538 8.66721 15.8454 8.87145 15.7371L8.87146 15.7371C8.90804 15.7178 8.94462 15.6984 8.98136 15.6794C9.11084 15.6135 9.24033 15.5866 9.38203 15.6061C9.41296 15.611 9.4439 15.6156 9.47483 15.6202L9.47491 15.6203C9.53679 15.6295 9.59867 15.6387 9.66054 15.6501C10.0368 15.7234 10.4057 15.7014 10.7331 15.4913C10.9114 15.3765 11.0751 15.2298 11.2217 15.0735C11.3878 14.8951 11.5808 14.8071 11.8178 14.7802C12.089 14.7509 12.3553 14.6947 12.5947 14.5457C12.8757 14.3697 13.0662 14.1205 13.2031 13.8297C13.3448 13.5267 13.5671 13.3386 13.8676 13.2042C14.3953 12.9672 14.6934 12.5518 14.7495 11.9776C14.7813 11.6501 14.9035 11.3814 15.1453 11.1541C15.2773 11.0295 15.3921 10.8804 15.4874 10.7265C15.6877 10.3966 15.7243 10.0325 15.6364 9.66358C15.5607 9.3386 15.6046 9.05027 15.7781 8.76438C15.866 8.62266 15.9247 8.45406 15.9638 8.29034C16.0493 7.92138 15.9809 7.56707 15.7854 7.24453C15.6168 6.96598 15.5582 6.68253 15.6315 6.35999C15.7659 5.78089 15.6168 5.2702 15.1649 4.87924C14.901 4.64955 14.7666 4.37588 14.7471 4.03379C14.7471 4.02158 14.7447 4.00936 14.7422 3.99714C14.6885 3.61351 14.5199 3.29097 14.2169 3.04907C14.0923 2.94889 13.958 2.86092 13.8138 2.79495C13.5158 2.66056 13.3252 2.43575 13.1957 2.14009C12.971 1.6294 12.5605 1.35573 12.0157 1.26288C11.9203 1.24668 11.8426 1.23485 11.7781 1.22502L11.7781 1.22502C11.6211 1.20108 11.5419 1.18901 11.4738 1.15474C11.4046 1.11986 11.347 1.06199 11.2308 0.945242L11.2308 0.945237C11.1825 0.896776 11.1242 0.838171 11.0507 0.766854C10.6866 0.412549 10.2542 0.256166 9.75582 0.356349C9.36981 0.43454 9.02778 0.397888 8.6833 0.187748C8.3437 -0.0223917 7.95525 -0.04927 7.57412 0.0729043C7.3947 0.132722 7.22394 0.222866 7.05368 0.312744L7.02198 0.32947C6.87295 0.407662 6.72148 0.424766 6.56023 0.400331C6.42831 0.37834 6.29638 0.356349 6.16201 0.339244C5.87372 0.302592 5.58055 0.324583 5.33623 0.48341C5.12237 0.622216 4.93181 0.797046 4.74285 0.970406L4.70102 1.00876C4.58864 1.11383 4.47137 1.18469 4.3199 1.20668C4.26737 1.21401 4.21546 1.22317 4.16355 1.23234L4.16354 1.23234C4.11162 1.2415 4.05971 1.25066 4.00718 1.25799C3.45259 1.33863 3.04704 1.61719 2.80273 2.12543C2.79405 2.14424 2.78556 2.16334 2.77703 2.18251C2.74237 2.26048 2.70712 2.33975 2.65614 2.40643C2.58285 2.50173 2.49489 2.58725 2.40206 2.66056C2.34494 2.7071 2.275 2.73716 2.20651 2.7666L2.17485 2.78029C1.6227 3.02952 1.31243 3.45957 1.25135 4.06067C1.21959 4.3881 1.09988 4.65688 0.843351 4.87435C0.708979 4.98675 0.599039 5.13581 0.506201 5.2873C0.308309 5.61228 0.278992 5.97392 0.362057 6.338C0.435351 6.65077 0.41092 6.94154 0.232572 7.22254C0.198344 7.27389 0.171608 7.33461 0.145804 7.39321L0.134848 7.41802C0.0102493 7.68925 -0.0410561 7.97758 0.0371235 8.26347C0.105362 8.51452 0.219791 8.75586 0.331908 8.99231L0.331912 8.99232L0.33274 8.99407C0.396261 9.13335 0.423135 9.27018 0.401147 9.41924C0.396261 9.44856 0.391646 9.47788 0.387031 9.5072L0.38703 9.50721C0.377801 9.56585 0.368572 9.62449 0.357171 9.68313C0.247231 10.25 0.393818 10.7387 0.823806 11.1223C1.07545 11.3447 1.23425 11.5988 1.24646 11.9385C1.24646 11.9629 1.25135 11.9873 1.25624 12.0118C1.3393 12.5493 1.61049 12.9476 2.10644 13.1993C2.16966 13.2314 2.22391 13.2581 2.27088 13.2813L2.27099 13.2813C2.42165 13.3557 2.49741 13.393 2.55417 13.4495C2.61158 13.5066 2.64955 13.5833 2.72593 13.7374C2.74968 13.7854 2.77714 13.8408 2.81006 13.9055C3.06658 14.4113 3.47947 14.6923 4.0365 14.7558C4.36143 14.7925 4.64972 14.8804 4.8525 15.1541C4.88444 15.196 4.92454 15.2314 4.96479 15.267L4.9648 15.267L4.99176 15.2909C5.20919 15.4913 5.45839 15.6355 5.75645 15.6623C5.94457 15.677 6.1449 15.6868 6.32569 15.6452C6.66284 15.567 6.96335 15.6159 7.25652 15.7992ZM8.00439 14.5936C11.6441 14.5936 14.5946 11.643 14.5946 8.00335C14.5946 4.36367 11.6441 1.41313 8.00439 1.41313C4.36471 1.41313 1.41417 4.36367 1.41417 8.00335C1.41417 11.643 4.36471 14.5936 8.00439 14.5936ZM8.15723 9.42064H4.37895C4.30517 9.42064 4.30513 9.42035 4.29454 9.35256L4.2937 9.3472C4.27683 9.23979 4.25931 9.13245 4.24178 9.02511L4.24176 9.02495C4.22495 8.92203 4.20815 8.81911 4.19192 8.71612C4.17585 8.61407 4.16031 8.51195 4.14476 8.40985C4.12773 8.29798 4.11071 8.18612 4.09299 8.07438C4.07623 7.96834 4.0588 7.86241 4.04138 7.75649L4.04138 7.75647C4.02478 7.65554 4.00818 7.55463 3.99216 7.45363C3.97745 7.36077 3.9634 7.26779 3.94935 7.17481L3.94933 7.17467C3.93716 7.0941 3.92498 7.01353 3.91238 6.93305C3.89229 6.805 3.87159 6.67706 3.85088 6.54912L3.85087 6.54905L3.82807 6.40796C3.82188 6.3695 3.81539 6.3311 3.8089 6.2927C3.79465 6.20838 3.78041 6.12409 3.76934 6.03937C3.75356 5.91852 3.79808 5.81927 3.90754 5.75721C4.01521 5.69607 4.12604 5.69801 4.22813 5.77165C4.41542 5.90665 4.60185 6.04273 4.78831 6.17884L4.96014 6.30422L5.28703 6.54273L5.28734 6.54296C5.48648 6.68833 5.68561 6.83369 5.88508 6.97863C6.0838 7.12293 6.33419 7.08155 6.47228 6.88092C6.63257 6.64806 6.79228 6.41476 6.952 6.18144L6.95201 6.18143L7.20376 5.81385L7.38605 5.54732L7.38613 5.5472C7.54054 5.32123 7.69496 5.09525 7.85116 4.87049C7.99419 4.66474 8.2949 4.64938 8.44467 4.841C8.50432 4.91736 8.55842 4.99783 8.6125 5.07829L8.6125 5.0783C8.63132 5.10628 8.65012 5.13427 8.66916 5.16207L9.14326 5.85417C9.37657 6.19485 9.60988 6.53552 9.84344 6.87601C9.98732 7.08565 10.2395 7.12262 10.4464 6.97064C10.7591 6.74095 11.0726 6.51253 11.3862 6.28408L11.7575 6.01346L11.8465 5.94853C11.9247 5.89146 12.0029 5.83439 12.0813 5.77759C12.1822 5.70447 12.3115 5.69648 12.4111 5.75619C12.5215 5.82235 12.5678 5.92988 12.5469 6.05883C12.5209 6.21859 12.4958 6.3785 12.4707 6.53843L12.4707 6.53874C12.454 6.64475 12.4374 6.75077 12.4205 6.85675C12.3976 7.00009 12.3746 7.14339 12.3515 7.28669L12.3515 7.28689C12.3223 7.46829 12.2931 7.64968 12.2643 7.83114C12.2433 7.96364 12.2229 8.0962 12.2026 8.22876L12.2025 8.22917C12.1841 8.34913 12.1656 8.4691 12.1467 8.58902C12.1266 8.71674 12.1058 8.84435 12.0851 8.97197C12.0716 9.05464 12.0581 9.1373 12.0449 9.22C12.0419 9.23841 12.0394 9.25691 12.0369 9.2754C12.0322 9.31101 12.0274 9.34659 12.0193 9.38151C12.0157 9.39677 11.9938 9.41132 11.9769 9.41941C11.968 9.42359 11.9566 9.42257 11.9451 9.42155C11.9401 9.42109 11.935 9.42064 11.9301 9.42064H8.15723ZM11.9353 10.0469H8.16215L5.34144 10.0468C5.26315 10.0468 5.18486 10.0469 5.10658 10.0469C4.85859 10.047 4.6106 10.0471 4.36261 10.0461C4.31988 10.046 4.30472 10.0578 4.30504 10.1012C4.30608 10.2482 4.30604 10.3952 4.306 10.5421C4.30597 10.6631 4.30594 10.7842 4.30651 10.9052C4.30704 11.0158 4.3483 11.1107 4.43134 11.1883C4.52059 11.2717 4.62795 11.2976 4.74867 11.2976C6.63036 11.2969 8.51206 11.2969 10.3938 11.2969C10.7363 11.2969 11.0789 11.2969 11.4214 11.2969C11.4395 11.2969 11.4577 11.297 11.4758 11.297C11.5279 11.2972 11.5799 11.2974 11.6319 11.2962C11.7092 11.2945 11.7797 11.2701 11.843 11.2273C11.9656 11.1444 12.0177 11.0256 12.0187 10.8847C12.0201 10.705 12.0199 10.5254 12.0196 10.3458C12.0195 10.2728 12.0194 10.1998 12.0194 10.1268C12.0194 10.0469 12.0194 10.0469 11.9353 10.0469Z" fill="url(#paint0_linear_361_9975)"/>
<defs>
<linearGradient id="paint0_linear_361_9975" x1="8" y1="1.47315e-07" x2="12.9452" y2="20.4771" gradientUnits="userSpaceOnUse">
<stop stop-color="#FFAE00"/>
<stop offset="1" stop-color="#DE791B"/>
</linearGradient>
</defs>
</svg>
