<svg width="375" height="525" viewBox="0 0 375 525" fill="none" xmlns="http://www.w3.org/2000/svg">
<path d="M-438.028 -304.448C-432.886 -304.757 -427.727 -304.299 -422.55 -303.02C-425.139 -308.822 -427.727 -314.67 -430.313 -320.608C-436.497 -325.204 -442.646 -328.223 -448.764 -329.818C-445.186 -321.246 -441.609 -312.758 -438.027 -304.45M-410.598 -277.531C-405.603 -277.546 -400.598 -276.97 -395.577 -275.766C-398.59 -282.025 -401.602 -288.38 -404.61 -294.818C-410.406 -298.462 -416.177 -300.986 -421.928 -302.489C-418.153 -294.035 -414.376 -285.706 -410.596 -277.531L-410.598 -277.531ZM-425.443 -275.793C-420.635 -276.895 -415.817 -277.488 -410.989 -277.534C-414.782 -285.741 -418.572 -294.105 -422.36 -302.594C-427.546 -303.902 -432.715 -304.378 -437.869 -304.083C-433.729 -294.483 -429.587 -285.057 -425.44 -275.794L-425.443 -275.793ZM-439.853 -270.989C-435.175 -273.025 -430.491 -274.618 -425.796 -275.717C-429.949 -284.997 -434.099 -294.443 -438.248 -304.063C-443.102 -303.75 -447.94 -302.754 -452.768 -301.129C-448.466 -290.887 -444.162 -280.863 -439.855 -270.99L-439.853 -270.989ZM-382.784 -250.492C-378.001 -250.32 -373.209 -249.724 -368.408 -248.645C-371.91 -255.342 -375.411 -262.114 -378.911 -269.03C-384.263 -271.854 -389.599 -273.887 -394.923 -275.228C-390.879 -266.836 -386.831 -258.601 -382.783 -250.494L-382.784 -250.492ZM-397.463 -249.668C-392.714 -250.365 -387.954 -250.657 -383.19 -250.508C-387.251 -258.648 -391.313 -266.911 -395.371 -275.334C-400.403 -276.564 -405.419 -277.159 -410.427 -277.157C-406.108 -267.821 -401.786 -258.66 -397.464 -249.666L-397.463 -249.668ZM-411.983 -246.305C-407.271 -247.794 -402.553 -248.901 -397.827 -249.614C-402.159 -258.626 -406.488 -267.804 -410.815 -277.161C-415.65 -277.13 -420.473 -276.545 -425.288 -275.448C-420.854 -265.549 -416.421 -255.827 -411.983 -246.305ZM-426.347 -240.627C-421.68 -242.835 -417.004 -244.695 -412.319 -246.194C-416.762 -255.73 -421.203 -265.461 -425.64 -275.372C-430.337 -274.277 -435.027 -272.688 -439.708 -270.657C-435.257 -260.458 -430.804 -250.438 -426.347 -240.627ZM-440.564 -232.849C-435.938 -235.707 -431.306 -238.271 -426.667 -240.48C-431.125 -250.293 -435.578 -260.315 -440.029 -270.518C-444.625 -268.502 -449.21 -266.045 -453.79 -263.196C-449.384 -252.893 -444.975 -242.765 -440.564 -232.849ZM-454.658 -223.207C-450.07 -226.647 -445.47 -229.807 -440.869 -232.664C-445.28 -242.58 -449.689 -252.707 -454.095 -263.009C-458.608 -260.184 -463.112 -256.968 -467.612 -253.403C-463.297 -243.153 -458.979 -233.079 -454.658 -223.207ZM-468.642 -211.888C-464.084 -215.85 -459.519 -219.551 -454.948 -222.988C-459.267 -232.858 -463.583 -242.927 -467.898 -253.174C-472.344 -249.637 -476.784 -245.758 -481.216 -241.563C-477.025 -231.494 -472.834 -221.598 -468.64 -211.887L-468.642 -211.888ZM-354.538 -223.395C-350.024 -223.119 -345.503 -222.527 -340.978 -221.597C-345.057 -228.684 -349.136 -235.877 -353.21 -243.241C-358.057 -245.364 -362.893 -246.96 -367.722 -248.097C-363.329 -239.707 -358.936 -231.453 -354.54 -223.395L-354.538 -223.395ZM-368.901 -223.228C-364.259 -223.62 -359.611 -223.686 -354.958 -223.423C-359.367 -231.51 -363.776 -239.793 -368.181 -248.211C-372.995 -249.314 -377.799 -249.934 -382.598 -250.118C-378.034 -240.984 -373.47 -231.989 -368.903 -223.229L-368.901 -223.228ZM-383.391 -220.988C-378.694 -222.032 -373.992 -222.777 -369.282 -223.19C-373.856 -231.966 -378.428 -240.983 -382.999 -250.134C-387.772 -250.293 -392.538 -250.013 -397.296 -249.324C-392.662 -239.693 -388.029 -230.222 -383.39 -220.985L-383.391 -220.988ZM-397.949 -216.793C-393.223 -218.459 -388.489 -219.84 -383.75 -220.91C-388.391 -230.154 -393.026 -239.631 -397.661 -249.27C-402.392 -248.563 -407.114 -247.464 -411.83 -245.976C-407.204 -236.056 -402.579 -226.31 -397.949 -216.793ZM-412.516 -210.765C-407.778 -213.009 -403.034 -214.983 -398.285 -216.672C-402.914 -226.191 -407.54 -235.942 -412.167 -245.863C-416.852 -244.368 -421.529 -242.507 -426.201 -240.298C-421.642 -230.262 -417.079 -220.397 -412.517 -210.763L-412.516 -210.765ZM-427.059 -203.036C-422.325 -205.812 -417.583 -208.353 -412.837 -210.616C-417.4 -220.248 -421.962 -230.117 -426.521 -240.151C-431.161 -237.94 -435.794 -235.379 -440.42 -232.521C-435.968 -222.516 -431.514 -212.65 -427.059 -203.036ZM-441.561 -193.786C-436.836 -197.045 -432.104 -200.066 -427.366 -202.856C-431.82 -212.467 -436.274 -222.334 -440.724 -232.336C-445.328 -229.478 -449.925 -226.318 -454.515 -222.874C-450.2 -213.012 -445.881 -203.277 -441.561 -193.786ZM-456.001 -183.132C-451.293 -186.818 -446.578 -190.317 -441.853 -193.58C-446.17 -203.068 -450.488 -212.798 -454.803 -222.655C-459.374 -219.216 -463.938 -215.513 -468.495 -211.55C-464.331 -201.912 -460.166 -192.421 -456 -183.131L-456.001 -183.132ZM-470.415 -171.234C-465.713 -175.31 -461.004 -179.207 -456.288 -182.908C-460.452 -192.193 -464.615 -201.679 -468.774 -211.309C-473.313 -207.353 -477.845 -203.137 -482.372 -198.714C-478.388 -189.398 -474.401 -180.232 -470.415 -171.236L-470.415 -171.234ZM-484.806 -158.207C-480.109 -162.631 -475.405 -166.9 -470.693 -170.992C-474.677 -179.981 -478.661 -189.14 -482.644 -198.45C-487.16 -194.028 -491.672 -189.391 -496.177 -184.558C-492.387 -175.631 -488.597 -166.845 -484.805 -158.209L-484.806 -158.207ZM-325.666 -196.284C-321.521 -195.971 -317.373 -195.443 -313.224 -194.687C-317.986 -202.111 -322.748 -209.688 -327.508 -217.45C-331.769 -218.974 -336.024 -220.175 -340.275 -221.085C-335.408 -212.638 -330.538 -204.357 -325.667 -196.282L-325.666 -196.284ZM-339.543 -196.544C-335.067 -196.714 -330.587 -196.639 -326.103 -196.319C-330.983 -204.412 -335.86 -212.712 -340.737 -221.178C-345.273 -222.127 -349.806 -222.729 -354.334 -223.016C-349.405 -213.988 -344.476 -205.172 -339.542 -196.546L-339.543 -196.544ZM-353.933 -195.19C-349.276 -195.886 -344.612 -196.343 -339.944 -196.535C-344.882 -205.173 -349.817 -214.004 -354.752 -223.042C-359.412 -223.318 -364.067 -223.264 -368.718 -222.881C-363.792 -213.438 -358.864 -204.213 -353.933 -195.19ZM-368.612 -192.203C-363.848 -193.422 -359.079 -194.404 -354.306 -195.129C-359.238 -204.16 -364.171 -213.391 -369.099 -222.84C-373.813 -222.433 -378.521 -221.69 -383.222 -220.649C-378.352 -210.958 -373.484 -201.471 -368.612 -192.203ZM-383.46 -187.657C-378.635 -189.378 -373.802 -190.866 -368.965 -192.115C-373.84 -201.388 -378.709 -210.877 -383.58 -220.573C-388.322 -219.506 -393.059 -218.133 -397.791 -216.466C-393.016 -206.653 -388.24 -197.051 -383.46 -187.657ZM-398.392 -181.608C-393.532 -183.801 -388.667 -185.785 -383.794 -187.534C-388.572 -196.93 -393.349 -206.532 -398.125 -216.345C-402.875 -214.659 -407.621 -212.685 -412.36 -210.439C-407.706 -200.62 -403.048 -191.025 -398.392 -181.608ZM-413.384 -174.185C-408.501 -176.815 -403.611 -179.244 -398.714 -181.461C-403.371 -190.876 -408.027 -200.469 -412.681 -210.288C-417.429 -208.026 -422.17 -205.487 -426.907 -202.709C-422.402 -192.994 -417.894 -183.517 -413.384 -174.185ZM-428.41 -165.478C-423.511 -168.509 -418.609 -171.361 -413.697 -174.016C-418.203 -183.344 -422.71 -192.816 -427.214 -202.529C-431.953 -199.739 -436.688 -196.715 -441.415 -193.457C-437.082 -183.94 -432.747 -174.631 -428.412 -165.479L-428.41 -165.478ZM-443.453 -155.611C-438.546 -159.004 -433.633 -162.24 -428.712 -165.292C-433.045 -174.439 -437.376 -183.74 -441.707 -193.251C-446.43 -189.985 -451.145 -186.486 -455.854 -182.798C-451.722 -173.584 -447.587 -164.489 -443.453 -155.611ZM-458.467 -144.727C-453.567 -148.436 -448.659 -152 -443.747 -155.405C-447.878 -164.278 -452.009 -173.365 -456.14 -182.572C-460.856 -178.871 -465.565 -174.971 -470.266 -170.893C-466.334 -162.023 -462.4 -153.29 -458.465 -144.725L-458.467 -144.727ZM-473.509 -132.89C-468.598 -136.891 -463.681 -140.774 -458.756 -144.509C-462.686 -153.067 -466.617 -161.79 -470.546 -170.652C-475.255 -166.559 -479.961 -162.288 -484.658 -157.864C-480.943 -149.404 -477.227 -141.076 -473.511 -132.891L-473.509 -132.89ZM-488.596 -120.215C-483.67 -124.476 -478.734 -128.627 -473.791 -132.661C-477.503 -140.838 -481.215 -149.16 -484.929 -157.61C-489.638 -153.166 -494.342 -148.564 -499.039 -143.833C-495.558 -135.848 -492.078 -127.959 -488.596 -120.215ZM-296.013 -169.211C-292.323 -168.913 -288.629 -168.491 -284.938 -167.911C-290.562 -175.627 -296.183 -183.524 -301.805 -191.662C-305.364 -192.68 -308.922 -193.501 -312.478 -194.174C-306.992 -185.636 -301.505 -177.311 -296.016 -169.21L-296.013 -169.211ZM-309.224 -169.71C-304.976 -169.732 -300.723 -169.58 -296.471 -169.249C-301.968 -177.365 -307.461 -185.71 -312.955 -194.265C-317.118 -195.035 -321.276 -195.577 -325.434 -195.899C-320.032 -186.951 -314.629 -178.212 -309.224 -169.71ZM-323.402 -169.01C-318.818 -169.436 -314.234 -169.671 -309.643 -169.706C-315.052 -178.223 -320.46 -186.972 -325.869 -195.933C-330.362 -196.265 -334.851 -196.347 -339.335 -196.184C-334.025 -186.903 -328.714 -177.839 -323.4 -169.009L-323.402 -169.01ZM-338.153 -167.008C-333.371 -167.863 -328.584 -168.517 -323.796 -168.974C-329.112 -177.813 -334.426 -186.882 -339.74 -196.171C-344.414 -195.986 -349.083 -195.539 -353.749 -194.85C-348.551 -185.34 -343.351 -176.065 -338.153 -167.008ZM-353.243 -163.662C-348.34 -164.946 -343.434 -166.048 -338.521 -166.939C-343.721 -175.999 -348.921 -185.281 -354.119 -194.791C-358.897 -194.072 -363.67 -193.089 -368.438 -191.872C-363.373 -182.242 -358.31 -172.848 -353.243 -163.662ZM-368.574 -159.051C-363.587 -160.747 -358.596 -162.252 -353.598 -163.57C-358.664 -172.758 -363.727 -182.154 -368.791 -191.783C-373.63 -190.537 -378.466 -189.052 -383.296 -187.333C-378.39 -177.691 -373.483 -168.263 -368.576 -159.051L-368.574 -159.051ZM-384.058 -153.209C-379.016 -155.292 -373.968 -157.212 -368.915 -158.939C-373.82 -168.148 -378.725 -177.572 -383.628 -187.212C-388.502 -185.465 -393.368 -183.479 -398.232 -181.288C-393.508 -171.742 -388.783 -162.348 -384.058 -153.209ZM-399.617 -146.256C-394.548 -148.693 -389.47 -150.965 -384.386 -153.073C-389.108 -162.207 -393.831 -171.6 -398.554 -181.143C-403.45 -178.925 -408.342 -176.497 -413.226 -173.867C-408.69 -164.482 -404.152 -155.258 -399.615 -146.255L-399.617 -146.256ZM-415.24 -138.25C-410.147 -141.013 -405.048 -143.643 -399.938 -146.105C-404.473 -155.101 -409.007 -164.318 -413.538 -173.698C-418.45 -171.043 -423.355 -168.19 -428.253 -165.159C-423.916 -156.006 -419.576 -147.05 -415.238 -138.251L-415.24 -138.25ZM-430.948 -129.288C-425.824 -132.355 -420.691 -135.287 -415.55 -138.082C-419.886 -146.875 -424.221 -155.825 -428.556 -164.973C-433.479 -161.919 -438.393 -158.684 -443.3 -155.289C-439.184 -146.455 -435.065 -137.8 -430.945 -129.289L-430.948 -129.288ZM-446.665 -119.474C-441.537 -122.8 -436.399 -126.018 -431.252 -129.105C-435.368 -137.608 -439.482 -146.255 -443.596 -155.084C-448.509 -151.676 -453.417 -148.112 -458.316 -144.404C-454.433 -135.953 -450.551 -127.633 -446.667 -119.474L-446.665 -119.474ZM-462.432 -108.896C-457.287 -112.458 -452.13 -115.925 -446.964 -119.28C-450.843 -127.431 -454.724 -135.744 -458.601 -144.186C-463.527 -140.449 -468.444 -136.566 -473.354 -132.565C-469.714 -124.549 -466.072 -116.655 -462.431 -108.898L-462.432 -108.896ZM-478.267 -97.6309C-473.099 -101.403 -467.917 -105.093 -462.725 -108.692C-466.362 -116.441 -470 -124.328 -473.637 -132.334C-478.581 -128.298 -483.517 -124.145 -488.444 -119.884C-485.052 -112.341 -481.659 -104.949 -478.265 -97.6303L-478.267 -97.6309ZM-265.183 -142.226C-262.077 -141.976 -258.97 -141.651 -255.863 -141.245C-262.608 -149.185 -269.353 -157.396 -276.094 -165.877C-278.769 -166.466 -281.444 -166.967 -284.119 -167.404C-277.807 -158.76 -271.496 -150.356 -265.183 -142.226ZM-277.598 -142.835C-273.622 -142.769 -269.646 -142.572 -265.668 -142.261C-271.987 -150.404 -278.307 -158.829 -284.625 -167.492C-288.332 -168.084 -292.039 -168.519 -295.744 -168.827C-289.696 -159.906 -283.647 -151.251 -277.596 -142.834L-277.598 -142.835ZM-291.498 -142.586C-287.014 -142.817 -282.529 -142.903 -278.041 -142.837C-284.095 -151.265 -290.151 -159.931 -296.204 -168.865C-300.468 -169.206 -304.73 -169.366 -308.992 -169.35C-303.161 -160.181 -297.329 -151.255 -291.498 -142.586ZM-306.279 -141.308C-301.493 -141.881 -296.703 -142.305 -291.912 -142.561C-297.746 -151.239 -303.579 -160.172 -309.413 -169.349C-314.007 -169.32 -318.603 -169.089 -323.194 -168.669C-317.557 -159.305 -311.919 -150.181 -306.281 -141.309L-306.279 -141.308ZM-321.622 -138.956C-316.643 -139.884 -311.658 -140.655 -306.671 -141.26C-312.31 -150.136 -317.948 -159.266 -323.588 -168.636C-328.383 -168.183 -333.173 -167.533 -337.96 -166.679C-332.515 -157.201 -327.07 -147.956 -321.624 -138.956L-321.622 -138.956ZM-337.345 -135.527C-332.234 -136.803 -327.118 -137.926 -321.997 -138.887C-327.443 -147.887 -332.888 -157.134 -338.332 -166.614C-343.246 -165.727 -348.158 -164.625 -353.063 -163.344C-347.823 -153.849 -342.584 -144.565 -337.344 -135.529L-337.345 -135.527ZM-353.317 -131.048C-348.118 -132.659 -342.913 -134.126 -337.704 -135.436C-342.942 -144.471 -348.179 -153.754 -353.418 -163.25C-358.418 -161.935 -363.412 -160.428 -368.401 -158.735C-363.373 -149.3 -358.345 -140.042 -353.317 -131.05L-353.317 -131.048ZM-369.43 -125.605C-364.182 -127.522 -358.924 -129.305 -353.663 -130.942C-358.689 -139.933 -363.716 -149.189 -368.741 -158.62C-373.797 -156.897 -378.848 -154.978 -383.889 -152.895C-379.069 -143.581 -374.25 -134.509 -369.43 -125.605ZM-385.702 -119.236C-380.399 -121.446 -375.086 -123.532 -369.767 -125.48C-374.584 -134.381 -379.403 -143.447 -384.222 -152.758C-389.308 -150.65 -394.386 -148.377 -399.459 -145.94C-394.875 -136.85 -390.289 -127.946 -385.704 -119.237L-385.702 -119.236ZM-402.057 -112.03C-396.725 -114.501 -391.384 -116.867 -386.033 -119.101C-390.614 -127.805 -395.196 -136.705 -399.779 -145.789C-404.888 -143.327 -409.989 -140.7 -415.082 -137.937C-410.742 -129.136 -406.4 -120.484 -402.057 -112.03ZM-418.494 -104.066C-413.133 -106.776 -407.76 -109.383 -402.38 -111.882C-406.719 -120.328 -411.056 -128.973 -415.394 -137.767C-420.535 -134.972 -425.668 -132.042 -430.792 -128.973C-426.692 -120.506 -422.594 -112.22 -418.494 -104.066ZM-435.013 -95.403C-429.623 -98.3274 -424.221 -101.167 -418.811 -103.904C-422.907 -112.05 -427.001 -120.329 -431.097 -128.788C-436.246 -125.702 -441.385 -122.482 -446.516 -119.154C-442.683 -111.101 -438.847 -103.176 -435.013 -95.4011L-435.013 -95.403ZM-451.579 -86.1442C-446.173 -89.2505 -440.755 -92.2875 -435.325 -95.2356C-439.155 -103 -442.985 -110.918 -446.814 -118.963C-451.98 -115.608 -457.137 -112.141 -462.281 -108.579C-458.714 -100.983 -455.148 -93.4987 -451.579 -86.1442ZM-468.235 -76.3487C-462.8 -79.6153 -457.351 -82.8271 -451.888 -85.967C-455.451 -93.311 -459.014 -100.785 -462.575 -108.373C-467.767 -104.773 -472.95 -101.082 -478.12 -97.3104C-474.826 -90.2072 -471.529 -83.2426 -468.233 -76.3481L-468.235 -76.3487ZM-232.565 -115.376C-230.203 -115.2 -227.842 -114.992 -225.481 -114.749C-233.782 -122.854 -242.087 -131.293 -250.391 -140.091C-251.922 -140.337 -253.451 -140.564 -254.983 -140.771C-247.509 -131.989 -240.033 -123.531 -232.566 -115.374L-232.565 -115.376ZM-244.085 -115.967C-240.42 -115.861 -236.754 -115.681 -233.089 -115.417C-240.56 -123.584 -248.034 -132.048 -255.509 -140.838C-258.633 -141.251 -261.755 -141.585 -264.879 -141.841C-257.945 -132.918 -251.012 -124.292 -244.083 -115.966L-244.085 -115.967ZM-257.698 -116.003C-253.32 -116.103 -248.939 -116.095 -244.558 -115.978C-251.49 -124.317 -258.426 -132.946 -265.363 -141.878C-269.353 -142.197 -273.342 -142.396 -277.332 -142.466C-270.786 -133.365 -264.24 -124.533 -257.699 -116.001L-257.698 -116.003ZM-272.572 -115.262C-267.762 -115.627 -262.953 -115.873 -258.141 -115.992C-264.684 -124.528 -271.23 -133.371 -277.778 -142.478C-282.275 -142.55 -286.77 -142.467 -291.262 -142.241C-285.031 -132.981 -278.8 -123.968 -272.572 -115.262ZM-288.203 -113.667C-283.133 -114.316 -278.063 -114.838 -272.99 -115.23C-279.217 -123.937 -285.447 -132.953 -291.677 -142.216C-296.475 -141.965 -301.271 -141.543 -306.065 -140.974C-300.11 -131.609 -294.157 -122.5 -288.205 -113.668L-288.203 -113.667ZM-304.349 -111.182C-299.104 -112.119 -293.853 -112.938 -288.603 -113.617C-294.551 -122.451 -300.503 -131.56 -306.457 -140.927C-311.449 -140.325 -316.438 -139.553 -321.423 -138.629C-315.73 -129.229 -310.04 -120.077 -304.351 -111.185L-304.349 -111.182ZM-320.878 -107.838C-315.499 -109.054 -310.117 -110.148 -304.729 -111.113C-310.417 -120.005 -316.106 -129.158 -321.796 -138.558C-326.919 -137.599 -332.039 -136.482 -337.155 -135.205C-331.727 -125.853 -326.302 -116.71 -320.879 -107.836L-320.878 -107.838ZM-337.603 -103.669C-332.157 -105.145 -326.704 -106.513 -321.247 -107.754C-326.667 -116.625 -332.091 -125.765 -337.515 -135.115C-342.729 -133.807 -347.938 -132.338 -353.14 -130.728C-347.959 -121.47 -342.781 -112.478 -337.604 -103.667L-337.603 -103.669ZM-354.554 -98.7235C-349.03 -100.448 -343.498 -102.069 -337.959 -103.573C-343.134 -112.378 -348.309 -121.367 -353.486 -130.622C-358.75 -128.986 -364.007 -127.207 -369.258 -125.289C-364.356 -116.237 -359.454 -107.356 -354.555 -98.7216L-354.554 -98.7235ZM-371.611 -93.0769C-366.049 -95.0216 -360.478 -96.8695 -354.901 -98.6154C-359.798 -107.245 -364.696 -116.123 -369.594 -125.166C-374.913 -123.218 -380.227 -121.133 -385.533 -118.923C-380.891 -110.112 -376.251 -101.509 -371.611 -93.0769ZM-388.826 -86.7572C-383.211 -88.9107 -377.586 -90.9806 -371.951 -92.9557C-376.588 -101.382 -381.224 -109.98 -385.863 -118.786C-391.216 -116.55 -396.558 -114.187 -401.893 -111.715C-397.536 -103.237 -393.181 -94.8905 -388.826 -86.7572ZM-406.086 -79.8689C-400.455 -82.1978 -394.814 -84.4561 -389.16 -86.6295C-393.51 -94.757 -397.863 -103.096 -402.214 -111.566C-407.596 -109.068 -412.967 -106.462 -418.33 -103.751C-414.248 -95.635 -410.167 -87.679 -406.086 -79.8689ZM-423.489 -72.4418C-417.812 -74.9364 -412.119 -77.3735 -406.415 -79.7354C-410.492 -87.5377 -414.569 -95.4858 -418.646 -103.591C-424.059 -100.853 -429.463 -98.0135 -434.853 -95.0872C-431.065 -87.4079 -427.277 -79.8529 -423.489 -72.4418ZM-440.946 -64.5729C-435.249 -67.2004 -429.539 -69.7801 -423.812 -72.2998C-427.596 -79.7031 -431.38 -87.2502 -435.165 -94.9197C-440.596 -91.9697 -446.016 -88.9333 -451.422 -85.829C-447.929 -78.6324 -444.438 -71.5405 -440.946 -64.5729ZM-458.503 -56.3145C-452.775 -59.0559 -447.029 -61.7653 -441.267 -64.4237C-444.753 -71.3809 -448.241 -78.465 -451.728 -85.6511C-457.192 -82.5093 -462.642 -79.2975 -468.079 -76.0315C-464.885 -69.3556 -461.694 -62.7981 -458.502 -56.3165L-458.503 -56.3145ZM-193.084 -85.2328C-184.618 -79.9412 -176.156 -74.8732 -167.706 -70.0138C-186.181 -83.0635 -204.718 -97.3594 -223.267 -113.103C-213.197 -103.336 -203.134 -94.0495 -193.084 -85.2328ZM-207.68 -89.2647C-204.752 -89.1733 -201.828 -89.0458 -198.904 -88.8771L-198.864 -88.8747L-198.828 -88.8519C-197.557 -88.0424 -196.287 -87.2414 -195.015 -86.4424C-205.021 -95.273 -215.041 -104.563 -225.067 -114.339C-227.448 -114.59 -229.83 -114.799 -232.212 -114.979C-224.029 -106.053 -215.852 -97.4773 -207.682 -89.2634L-207.68 -89.2647ZM-221.163 -89.4301C-216.843 -89.4577 -212.524 -89.4095 -208.205 -89.2808C-216.374 -97.5032 -224.553 -106.088 -232.734 -115.022C-236.416 -115.292 -240.098 -115.483 -243.783 -115.593C-236.238 -106.533 -228.695 -97.822 -221.162 -89.4321L-221.163 -89.4301ZM-236.282 -89.0247C-231.402 -89.2516 -226.525 -89.3902 -221.649 -89.4287C-229.18 -97.8225 -236.719 -106.541 -244.261 -115.604C-248.651 -115.726 -253.043 -115.739 -257.431 -115.645C-250.376 -106.454 -243.326 -97.5829 -236.281 -89.0267L-236.282 -89.0247ZM-252.369 -87.9559C-247.157 -88.4066 -241.941 -88.7559 -236.728 -89.0039C-243.772 -97.5639 -250.822 -106.437 -257.875 -115.632C-262.695 -115.518 -267.512 -115.275 -272.329 -114.915C-265.674 -105.618 -259.018 -96.6518 -252.369 -87.9559ZM-269.125 -86.1818C-263.683 -86.8618 -258.24 -87.4475 -252.796 -87.9221C-259.443 -96.6173 -266.094 -105.584 -272.751 -114.883C-277.832 -114.494 -282.912 -113.974 -287.988 -113.328C-281.698 -103.999 -275.41 -94.9407 -269.127 -86.1845L-269.125 -86.1818ZM-286.27 -83.7233C-280.695 -84.6229 -275.114 -85.4289 -269.532 -86.1304C-275.812 -94.888 -282.098 -103.948 -288.384 -113.278C-293.64 -112.6 -298.895 -111.787 -304.145 -110.85C-298.184 -101.539 -292.226 -92.496 -286.271 -83.7213L-286.27 -83.7233ZM-303.765 -80.5961C-298.067 -81.712 -292.364 -82.7351 -286.659 -83.6595C-292.612 -92.4315 -298.566 -101.474 -304.524 -110.783C-309.915 -109.816 -315.302 -108.726 -320.683 -107.51C-315.041 -98.2874 -309.403 -89.3165 -303.765 -80.5961ZM-321.442 -76.8559C-315.683 -78.165 -309.914 -79.3886 -304.14 -80.5212C-309.774 -89.2404 -315.413 -98.2074 -321.051 -107.429C-326.512 -106.189 -331.97 -104.82 -337.418 -103.345C-332.091 -94.2844 -326.766 -85.4534 -321.44 -76.8552L-321.442 -76.8559ZM-339.317 -72.5341C-333.489 -74.0254 -327.654 -75.4382 -321.81 -76.7699C-327.131 -85.3622 -332.452 -94.192 -337.777 -103.247C-343.318 -101.744 -348.851 -100.123 -354.375 -98.3992C-349.355 -89.5571 -344.335 -80.9485 -339.318 -72.5321L-339.317 -72.5341ZM-357.358 -67.6812C-351.475 -69.3375 -345.579 -70.9285 -339.677 -72.441C-344.69 -80.8541 -349.707 -89.4575 -354.723 -98.2937C-360.304 -96.5491 -365.88 -94.7025 -371.444 -92.7564C-366.747 -84.2256 -362.053 -75.8281 -357.358 -67.6812ZM-375.47 -62.3681C-369.562 -64.1665 -363.643 -65.9067 -357.713 -67.5802C-362.401 -75.7207 -367.093 -84.1149 -371.784 -92.6353C-377.419 -90.6622 -383.046 -88.591 -388.661 -86.4374C-384.263 -78.229 -379.866 -70.2364 -375.472 -62.3668L-375.47 -62.3681ZM-393.719 -56.63C-387.766 -58.5574 -381.796 -60.4398 -375.818 -62.2626C-380.21 -70.1251 -384.6 -78.1111 -388.994 -86.3117C-394.649 -84.1383 -400.294 -81.8793 -405.926 -79.5504C-401.856 -71.7657 -397.788 -64.1184 -393.719 -56.63ZM-412.1 -50.5218C-406.105 -52.5613 -400.091 -54.5641 -394.062 -56.5187C-398.124 -64.0006 -402.19 -71.6381 -406.253 -79.4143C-411.959 -77.053 -417.652 -74.6159 -423.332 -72.12C-419.587 -64.797 -415.843 -57.5917 -412.098 -50.5231L-412.1 -50.5218ZM-430.546 -44.1256C-424.529 -46.2495 -418.493 -48.3473 -412.44 -50.4072C-416.178 -57.4667 -419.918 -64.6641 -423.658 -71.9767C-429.382 -69.4584 -435.094 -66.8773 -440.791 -64.2518C-437.376 -57.4401 -433.962 -50.722 -430.546 -44.1256ZM-449.103 -37.4849C-443.05 -39.6776 -436.977 -41.8547 -430.884 -44.0058C-434.292 -50.5911 -437.703 -57.3014 -441.112 -64.1026C-446.874 -61.4422 -452.622 -58.7334 -458.352 -55.9927C-455.269 -49.7343 -452.187 -43.5674 -449.103 -37.4849ZM-134.105 -47.9789C-126.493 -45.2128 -118.893 -42.5487 -111.312 -39.978C-127.818 -47.8867 -144.412 -56.4511 -161.056 -65.8093C-152.054 -59.584 -143.068 -53.6471 -134.106 -47.9769L-134.105 -47.9789ZM-160.109 -57.8275C-151.966 -54.615 -143.836 -51.5306 -135.716 -48.5672C-145.293 -54.6527 -154.896 -61.0474 -164.516 -67.7743C-173.458 -72.8585 -182.413 -78.1801 -191.377 -83.7463C-180.935 -74.633 -170.508 -66.0037 -160.109 -57.8275ZM-180.483 -63.1258C-178.059 -63.1322 -175.637 -63.1262 -173.215 -63.0986L-173.185 -63.0974L-173.156 -63.0878C-169.198 -61.4558 -165.243 -59.8592 -161.29 -58.294C-171.936 -66.6909 -182.611 -75.5605 -193.299 -84.9422C-195.192 -86.1218 -197.082 -87.3159 -198.975 -88.5217C-201.75 -88.6805 -204.526 -88.8008 -207.301 -88.8922C-198.351 -79.9014 -189.408 -71.32 -180.484 -63.1303L-180.483 -63.1258ZM-196.284 -62.8509C-191.193 -63.0126 -186.105 -63.1057 -181.019 -63.1254C-189.94 -71.323 -198.882 -79.9103 -207.829 -88.909C-212.164 -89.0428 -216.497 -89.0936 -220.833 -89.0692C-212.639 -79.9522 -204.454 -71.2217 -196.282 -62.8502L-196.284 -62.8509ZM-213.215 -62.0663C-207.733 -62.3997 -202.251 -62.6573 -196.772 -62.8351C-204.942 -71.2124 -213.126 -79.9469 -221.319 -89.0678C-226.211 -89.0344 -231.102 -88.9004 -235.996 -88.676C-228.393 -79.4512 -220.801 -70.5867 -213.216 -62.0643L-213.215 -62.0663ZM-230.811 -60.751C-225.098 -61.2568 -219.383 -61.688 -213.67 -62.0395C-221.25 -70.5646 -228.842 -79.431 -236.44 -88.6565C-241.662 -88.4118 -246.882 -88.0638 -252.104 -87.6163C-245 -78.3331 -237.899 -69.3756 -230.809 -60.7503L-230.811 -60.751ZM-248.87 -58.9151C-242.997 -59.5883 -237.122 -60.189 -231.246 -60.7132C-238.334 -69.3378 -245.428 -78.2999 -252.531 -87.5825C-257.983 -87.1105 -263.432 -86.5286 -268.88 -85.8506C-262.204 -76.5538 -255.533 -67.5938 -248.87 -58.9151ZM-267.263 -56.5793C-261.275 -57.4107 -255.282 -58.1774 -249.286 -58.8688C-255.946 -67.5489 -262.614 -76.5057 -269.285 -85.8012C-274.874 -85.0997 -280.46 -84.2975 -286.044 -83.3985C-279.779 -74.1758 -273.517 -65.2324 -267.262 -56.5813L-267.263 -56.5793ZM-285.907 -53.7775C-279.831 -54.7564 -273.749 -55.6745 -267.662 -56.5233C-273.913 -65.1712 -280.17 -74.1127 -286.433 -83.3347C-292.144 -82.4103 -297.851 -81.3885 -303.556 -80.2745C-297.669 -71.1738 -291.786 -62.3511 -285.907 -53.7775ZM-304.723 -50.5577C-298.588 -51.6696 -292.445 -52.7221 -286.297 -53.7163C-292.172 -62.284 -298.05 -71.1055 -303.93 -80.1996C-309.706 -79.0677 -315.477 -77.8428 -321.24 -76.5369C-315.731 -67.6452 -310.224 -58.97 -304.723 -50.5577ZM-323.678 -46.9546C-317.497 -48.1819 -311.304 -49.364 -305.104 -50.4893C-310.602 -58.8938 -316.103 -67.5671 -321.606 -76.4523C-327.453 -75.1218 -333.293 -73.7064 -339.124 -72.2158C-333.972 -63.5789 -328.824 -55.1585 -323.678 -46.9546ZM-342.777 -43.0135C-336.546 -44.3443 -330.305 -45.6346 -324.053 -46.8798C-329.194 -55.0778 -334.338 -63.4923 -339.483 -72.1226C-345.386 -70.6101 -351.282 -69.0191 -357.169 -67.3641C-352.37 -59.0371 -347.571 -50.956 -342.777 -43.0135ZM-362.003 -38.7722C-355.731 -40.1941 -349.445 -41.5827 -343.145 -42.9321C-347.935 -50.8687 -352.728 -58.9414 -357.522 -67.2605C-363.456 -65.5883 -369.378 -63.8468 -375.287 -62.0491C-370.858 -54.122 -366.428 -46.3605 -362.003 -38.7703L-362.003 -38.7722ZM-381.353 -34.2845C-375.041 -35.7779 -368.712 -37.2504 -362.367 -38.6896C-366.788 -46.272 -371.212 -54.025 -375.635 -61.9436C-381.618 -60.122 -387.588 -58.2397 -393.545 -56.3116C-389.479 -48.833 -385.416 -41.4728 -381.353 -34.2845ZM-400.824 -29.5949C-394.473 -31.1473 -388.101 -32.684 -381.712 -34.198C-385.769 -41.3797 -389.829 -48.7301 -393.889 -56.1983C-399.919 -54.2444 -405.933 -52.2415 -411.934 -50.2014C-408.23 -43.2118 -404.527 -36.3379 -400.825 -29.5929L-400.824 -29.5949ZM-420.377 -24.7643C-414 -26.354 -407.601 -27.9387 -401.182 -29.5077C-404.877 -36.2442 -408.575 -43.1076 -412.272 -50.0862C-418.324 -48.0262 -424.361 -45.9284 -430.379 -43.8052C-427.045 -37.366 -423.71 -31.0027 -420.377 -24.7643ZM-440.049 -19.8402C-433.635 -21.4505 -427.196 -23.0653 -420.732 -24.6764C-424.06 -30.9044 -427.389 -37.2592 -430.716 -43.6873C-436.812 -41.5349 -442.886 -39.3559 -448.941 -37.1638C-445.975 -31.3162 -443.014 -25.5243 -440.05 -19.8383L-440.049 -19.8402ZM-81.2374 -26.6182C-74.3268 -25.583 -67.4325 -24.5705 -60.5586 -23.5692C-75.4994 -27.9803 -90.5426 -32.6624 -105.654 -37.698C-97.4911 -33.8537 -89.3512 -30.1631 -81.2374 -26.6182ZM-104.604 -30.196C-97.2556 -29.043 -89.9229 -27.9212 -82.6086 -26.8229C-91.2359 -30.6063 -99.8933 -34.5498 -108.576 -38.6757C-116.583 -41.3669 -124.61 -44.1606 -132.651 -47.0675C-123.275 -41.1656 -113.923 -35.5481 -104.604 -30.196ZM-128.142 -34C-120.616 -32.747 -113.102 -31.5332 -105.606 -30.3533C-115.124 -35.834 -124.678 -41.5919 -134.255 -47.6493C-142.525 -50.6532 -150.808 -53.7814 -159.105 -57.0423C-148.755 -48.9326 -138.43 -41.2643 -128.142 -34ZM-150.792 -37.2094C-149.703 -37.2474 -148.612 -37.2828 -147.523 -37.3169L-147.507 -37.3183L-147.49 -37.3125C-141.308 -36.225 -135.131 -35.1677 -128.963 -34.1371C-139.371 -41.4997 -149.814 -49.2806 -160.283 -57.5082C-164.606 -59.2145 -168.93 -60.956 -173.258 -62.7381C-175.532 -62.763 -177.806 -62.7703 -180.082 -62.7652C-170.296 -53.7956 -160.531 -45.2903 -150.794 -37.21L-150.792 -37.2094ZM-169.254 -36.3986C-163.276 -36.7172 -157.304 -36.9834 -151.335 -37.192C-161.07 -45.2782 -170.833 -53.7894 -180.615 -62.7642C-185.719 -62.7482 -190.826 -62.6591 -195.935 -62.5012C-187.022 -53.3833 -178.127 -44.6892 -169.252 -36.3979L-169.254 -36.3986ZM-188.279 -35.2158C-182.102 -35.6517 -175.926 -36.0404 -169.755 -36.3696C-178.625 -44.6635 -187.517 -53.3609 -196.424 -62.4834C-201.916 -62.3075 -207.412 -62.0525 -212.907 -61.7209C-204.682 -52.4896 -196.472 -43.6703 -188.277 -35.2152L-188.279 -35.2158ZM-207.676 -33.6849C-201.368 -34.2325 -195.058 -34.7336 -188.752 -35.1818C-196.939 -43.6389 -205.146 -52.4615 -213.364 -61.6948C-219.084 -61.3459 -224.805 -60.9166 -230.526 -60.4134C-222.9 -51.1436 -215.28 -42.2308 -207.676 -33.6849ZM-227.331 -31.8336C-220.931 -32.4817 -214.529 -33.0879 -208.127 -33.6457C-215.725 -42.1923 -223.339 -51.1051 -230.962 -60.3736C-236.843 -59.8514 -242.727 -59.2513 -248.606 -58.5781C-241.506 -49.3373 -234.412 -40.406 -227.329 -31.833L-227.331 -31.8336ZM-247.18 -29.6938C-240.711 -30.4324 -234.238 -31.1304 -227.765 -31.7893C-234.843 -40.3603 -241.93 -49.2917 -249.026 -58.5331C-255.028 -57.8436 -261.027 -57.0789 -267.021 -56.2475C-260.402 -47.0976 -253.786 -38.2296 -247.182 -29.6944L-247.18 -29.6938ZM-267.18 -27.3008C-260.658 -28.1155 -254.131 -28.9002 -247.598 -29.6482C-254.199 -38.1781 -260.807 -47.0455 -267.421 -56.1915C-273.512 -55.344 -279.598 -54.4252 -285.68 -53.4482C-279.508 -44.454 -273.34 -35.7358 -267.18 -27.3028L-267.18 -27.3008ZM-287.314 -24.6882C-280.745 -25.5704 -274.17 -26.4266 -267.587 -27.2494C-273.742 -35.6805 -279.904 -44.3928 -286.071 -53.3831C-292.22 -52.3914 -298.366 -51.3376 -304.503 -50.2264C-298.769 -41.4677 -293.039 -32.9432 -287.314 -24.6862L-287.314 -24.6882ZM-307.564 -21.89C-300.956 -22.8267 -294.337 -23.7445 -287.711 -24.6361C-293.431 -32.8892 -299.157 -41.4059 -304.888 -50.1613C-311.09 -49.0366 -317.284 -47.8551 -323.47 -46.6272C-318.164 -38.1748 -312.862 -29.8977 -307.564 -21.89ZM-327.925 -18.9428C-321.281 -19.9222 -314.625 -20.8885 -307.955 -21.8333C-313.248 -29.8352 -318.545 -38.1019 -323.846 -46.5504C-330.1 -45.3058 -336.345 -44.0168 -342.578 -42.6847C-337.692 -34.5967 -332.806 -26.6416 -327.925 -18.9428ZM-348.394 -15.8853C-341.717 -16.8929 -335.022 -17.8967 -328.312 -18.8849C-333.188 -26.5779 -338.067 -34.5219 -342.948 -42.6059C-349.249 -41.2572 -355.538 -39.8673 -361.814 -38.4467C-357.339 -30.7769 -352.864 -23.2183 -348.394 -15.8853ZM-368.969 -12.756C-362.256 -13.7802 -355.525 -14.807 -348.774 -15.8274C-353.239 -23.1519 -357.707 -30.7021 -362.176 -38.3634C-368.523 -36.9248 -374.854 -35.453 -381.169 -33.9583C-377.1 -26.7616 -373.034 -19.6682 -368.967 -12.7554L-368.969 -12.756ZM-389.652 -9.59689C-384.988 -10.3082 -380.311 -11.0221 -375.625 -11.7394L-369.347 -12.6995C-373.406 -19.6032 -377.468 -26.6868 -381.529 -33.8744C-387.921 -32.3591 -394.293 -30.8223 -400.646 -29.2706C-396.98 -22.5941 -393.316 -16.0399 -389.651 -9.59886L-389.652 -9.59689ZM-410.453 -6.45035C-403.671 -7.46496 -396.862 -8.49869 -390.03 -9.5384C-393.688 -15.9683 -397.345 -22.518 -401.002 -29.1808C-407.422 -27.6118 -413.82 -26.0271 -420.196 -24.4393C-416.948 -18.3595 -413.7 -12.3405 -410.451 -6.44971L-410.453 -6.45035ZM-431.379 -3.3647C-424.559 -4.35139 -417.708 -5.365 -410.828 -6.39313C-414.068 -12.2722 -417.312 -18.2807 -420.553 -24.3475C-427.017 -22.7365 -433.457 -21.1196 -439.873 -19.5101C-437.041 -14.0766 -434.207 -8.64906 -431.378 -3.36211L-431.379 -3.3647ZM-33.1584 -16.1092C-26.8214 -16.2946 -20.5012 -16.4485 -14.2071 -16.5565C-18.0666 -17.109 -21.9332 -17.6595 -25.8078 -18.2126C-35.6606 -19.6186 -45.5665 -21.0289 -55.513 -22.4678C-48.0348 -20.2858 -40.5805 -18.1704 -33.1564 -16.1086L-33.1584 -16.1092ZM-54.4602 -15.3635C-47.7489 -15.6413 -41.0623 -15.8707 -34.3912 -16.0725C-42.2584 -18.2627 -50.1579 -20.5135 -58.089 -22.84C-65.3547 -23.894 -72.6421 -24.9616 -79.9499 -26.0534C-71.4229 -22.3422 -62.9239 -18.7839 -54.4622 -15.3641L-54.4602 -15.3635ZM-75.7368 -14.3568C-68.9199 -14.7111 -62.114 -15.0384 -55.3328 -15.3238C-63.9668 -18.8219 -72.6361 -22.458 -81.3374 -26.2613C-88.7812 -27.376 -96.2453 -28.5149 -103.725 -29.687C-94.3608 -24.3246 -85.0294 -19.2211 -75.7361 -14.3588L-75.7368 -14.3568ZM-97.0675 -13.159C-90.1784 -13.5809 -83.3073 -13.9608 -76.4473 -14.3205C-85.8356 -19.2445 -95.264 -24.4104 -104.726 -29.8443C-112.29 -31.0311 -119.871 -32.2518 -127.464 -33.5157C-117.294 -26.3536 -107.16 -19.5817 -97.0689 -13.1616L-97.0675 -13.159ZM-118.394 -11.7617C-111.48 -12.2387 -104.572 -12.6979 -97.6813 -13.1191C-107.84 -19.5919 -118.044 -26.4236 -128.281 -33.6495C-134.691 -34.7183 -141.111 -35.8164 -147.537 -36.9492C-148.481 -36.9197 -149.425 -36.8882 -150.371 -36.8554C-139.677 -27.9943 -129.014 -19.6446 -118.395 -11.7598L-118.394 -11.7617ZM-139.785 -10.2222C-132.832 -10.7471 -125.89 -11.2431 -118.954 -11.7214C-129.567 -19.6129 -140.224 -27.9698 -150.916 -36.8387C-156.901 -36.6332 -162.89 -36.3682 -168.885 -36.0509C-159.157 -26.9764 -149.454 -18.378 -139.785 -10.2222ZM-161.208 -8.54527C-154.234 -9.10681 -147.263 -9.65854 -140.302 -10.1854C-149.965 -18.3438 -159.663 -26.9468 -169.387 -36.0265C-175.569 -35.6966 -181.757 -35.3098 -187.948 -34.8739C-179.013 -25.6639 -170.097 -16.8934 -161.208 -8.54527ZM-182.671 -6.77261C-175.676 -7.36434 -168.684 -7.94166 -161.696 -8.50523C-170.582 -16.8567 -179.491 -25.6272 -188.421 -34.8379C-194.735 -34.3903 -201.054 -33.8917 -207.373 -33.3435C-199.122 -24.0795 -190.888 -15.2348 -182.671 -6.77261ZM-204.185 -4.91866C-197.17 -5.53206 -190.154 -6.13893 -183.139 -6.7327C-191.35 -15.1975 -199.578 -24.0423 -207.822 -33.3062C-214.232 -32.7484 -220.641 -32.1448 -227.05 -31.4973C-219.415 -22.2642 -211.791 -13.4175 -204.184 -4.92062L-204.185 -4.91866ZM-225.732 -3.01683C-218.702 -3.64272 -211.668 -4.26534 -204.633 -4.87882C-212.235 -13.3763 -219.852 -22.2185 -227.482 -31.4523C-233.963 -30.7961 -240.441 -30.0954 -246.916 -29.3587C-239.844 -20.2298 -232.781 -11.4762 -225.73 -3.01618L-225.732 -3.01683ZM-247.361 -1.08522L-243.204 -1.45615C-237.529 -1.96375 -231.85 -2.47201 -226.169 -2.97767C-233.214 -11.4357 -240.27 -20.1848 -247.337 -29.3098C-253.876 -28.5637 -260.407 -27.7804 -266.936 -26.9637C-260.402 -18.0267 -253.876 -9.41928 -247.359 -1.0826L-247.361 -1.08522ZM-269.05 0.846016C-261.971 0.21863 -254.885 -0.412736 -247.791 -1.04803C-254.3 -9.38018 -260.819 -17.9811 -267.347 -26.9136C-273.933 -26.0895 -280.514 -25.2333 -287.085 -24.3517C-281.065 -15.68 -275.055 -7.29205 -269.05 0.846016ZM-290.773 2.74862C-283.684 2.13558 -276.581 1.512 -269.469 0.882497C-275.467 -7.25104 -281.473 -15.6331 -287.485 -24.2983C-294.115 -23.4079 -300.739 -22.4895 -307.349 -21.5534C-301.818 -13.2033 -296.295 -5.13448 -290.776 2.74994L-290.773 2.74862ZM-312.581 4.59731C-305.465 4.00637 -298.332 3.40097 -291.186 2.78506C-296.698 -5.09286 -302.217 -13.1539 -307.739 -21.4988C-314.411 -20.5526 -321.07 -19.5869 -327.715 -18.6082C-322.667 -10.6517 -317.621 -2.95757 -312.579 4.59601L-312.581 4.59731ZM-334.48 6.36396C-327.335 5.80624 -320.17 5.22689 -312.991 4.63043C-318.025 -2.91857 -323.061 -10.603 -328.104 -18.5509C-334.814 -17.5627 -341.511 -16.5596 -348.191 -15.5506C-343.616 -8.0572 -339.048 -0.792005 -334.482 6.36331L-334.48 6.36396ZM-356.476 8.01593C-349.301 7.50061 -342.103 6.95835 -334.885 6.39643C-339.444 -0.750424 -344.007 -8.00715 -348.574 -15.4914C-355.324 -14.4711 -362.056 -13.4442 -368.768 -12.4201C-364.669 -5.45504 -360.572 1.33081 -356.476 8.01593ZM-378.58 9.52116C-371.373 9.06 -364.139 8.56667 -356.88 8.04643C-360.968 1.37042 -365.057 -5.40629 -369.151 -12.3609L-375.59 -11.3772C-380.226 -10.6673 -384.846 -9.96344 -389.46 -9.25959C-385.833 -2.8851 -382.206 3.37363 -378.582 9.52052L-378.58 9.52116ZM-400.756 10.8397C-393.53 10.4458 -386.269 10.0132 -378.981 9.54839C-382.599 3.40997 -386.218 -2.83964 -389.837 -9.20043C-396.671 -8.15941 -403.48 -7.12569 -410.264 -6.10972C-407.094 -0.364442 -403.923 5.26966 -400.756 10.8416L-400.756 10.8397ZM-423.045 11.9337C-415.782 11.6194 -408.482 11.2606 -401.151 10.8623C-404.314 5.30009 -407.476 -0.320311 -410.641 -6.05516C-417.522 -5.02505 -424.374 -4.01206 -431.197 -3.02407C-428.479 2.04555 -425.762 6.99291 -423.047 11.935L-423.045 11.9337ZM-445.871 12.7638C-448.127 8.52542 -450.384 4.32828 -452.64 0.00295258C-488.987 4.99038 -524.347 9.00496 -558.251 10.8027C-522.394 13.5442 -484.739 13.9071 -445.871 12.7638ZM-452.264 -0.0477359C-450.001 4.28871 -447.739 8.50287 -445.476 12.7523C-438.171 12.5347 -430.826 12.2691 -423.439 11.9498C-426.149 7.02004 -428.86 2.08577 -431.571 -2.97279C-438.501 -1.96995 -445.401 -0.992075 -452.263 -0.0497073L-452.264 -0.0477359ZM-459.689 -14.5442C-457.273 -9.80032 -454.859 -5.0224 -452.444 -0.38772C-445.582 -1.33009 -438.684 -2.30664 -431.756 -3.3101C-434.581 -8.58467 -437.405 -14.0024 -440.23 -19.4229L-442.198 -18.9291C-448.052 -17.4593 -453.88 -15.9962 -459.689 -14.5462L-459.689 -14.5442ZM-467.639 -30.3322C-465.043 -25.1136 -462.451 -19.9656 -459.856 -14.8712C-454.014 -16.3298 -448.153 -17.8016 -442.266 -19.2781L-440.402 -19.7472C-443.358 -25.4221 -446.317 -31.2043 -449.275 -37.0407C-455.419 -34.8149 -461.54 -32.5728 -467.639 -30.3322ZM-476.051 -47.3936C-473.298 -41.7184 -470.548 -36.1898 -467.797 -30.652C-461.699 -32.8953 -455.58 -35.1334 -449.438 -37.3599C-452.514 -43.4312 -455.591 -49.5877 -458.669 -55.8357C-464.48 -53.0521 -470.275 -50.2326 -476.049 -47.3929L-476.051 -47.3936ZM-484.809 -65.7838C-481.94 -59.7023 -479.07 -53.6379 -476.202 -47.7134C-470.427 -50.5524 -464.636 -53.3713 -458.825 -56.1548C-462.012 -62.6306 -465.199 -69.1757 -468.387 -75.8412C-473.875 -72.5397 -479.351 -69.182 -484.809 -65.7838ZM-493.961 -85.4856C-490.961 -78.9495 -487.96 -72.4651 -484.961 -66.1036C-479.502 -69.5018 -474.026 -72.8595 -468.537 -76.1604C-471.826 -83.0465 -475.118 -90.0006 -478.409 -97.094C-483.605 -93.2979 -488.789 -89.4221 -493.961 -85.4856ZM-503.49 -106.537C-500.364 -99.5326 -497.238 -92.6242 -494.111 -85.8113C-488.937 -89.7472 -483.754 -93.6237 -478.557 -97.4191C-481.946 -104.725 -485.333 -112.109 -488.721 -119.642C-493.653 -115.371 -498.576 -110.994 -503.488 -106.536L-503.49 -106.537ZM-513.376 -128.993C-510.131 -121.507 -506.886 -114.148 -503.639 -106.873C-498.724 -111.33 -493.802 -115.706 -488.87 -119.976C-492.347 -127.71 -495.825 -135.592 -499.301 -143.567C-503.998 -138.832 -508.691 -133.969 -513.374 -128.992L-513.376 -128.993ZM-451.927 -337.413C-450.932 -335.018 -449.937 -332.636 -448.944 -330.249C-442.688 -328.659 -436.399 -325.587 -430.071 -320.879L-430.034 -320.852L-430.015 -320.811C-427.385 -314.766 -424.749 -308.816 -422.116 -302.912C-416.23 -301.406 -410.321 -298.841 -404.385 -295.104L-404.344 -295.077L-404.322 -295.031C-401.26 -288.479 -398.197 -282.015 -395.13 -275.651C-389.669 -274.302 -384.194 -272.23 -378.7 -269.327L-378.652 -269.302L-378.628 -269.255C-375.069 -262.222 -371.508 -255.335 -367.944 -248.527C-362.977 -247.378 -358.001 -245.739 -353.015 -243.551L-352.964 -243.528L-352.937 -243.478C-348.797 -235.999 -344.657 -228.694 -340.513 -221.501C-336.123 -220.576 -331.73 -219.349 -327.331 -217.772L-327.276 -217.754L-327.245 -217.703C-322.413 -209.822 -317.579 -202.125 -312.741 -194.591C-309.044 -193.903 -305.346 -193.053 -301.644 -191.992L-301.589 -191.974L-301.554 -191.928C-295.847 -183.664 -290.139 -175.647 -284.429 -167.822C-281.606 -167.368 -278.783 -166.839 -275.959 -166.215L-275.902 -166.203L-275.867 -166.159C-269.023 -157.551 -262.179 -149.227 -255.337 -141.177C-253.648 -140.953 -251.961 -140.709 -250.272 -140.437L-250.219 -140.428L-250.182 -140.388C-241.755 -131.46 -233.327 -122.9 -224.904 -114.688C-224.799 -114.678 -224.693 -114.669 -224.588 -114.658L-224.538 -114.653L-224.5 -114.621C-204.409 -97.4863 -184.329 -82.0628 -164.328 -68.0825C-145.625 -57.4466 -126.981 -47.8183 -108.449 -39.0131C-91.5357 -33.3285 -74.7087 -28.0948 -58.0093 -23.1948C-47.2039 -21.6282 -36.4484 -20.0953 -25.7556 -18.57C-21.1425 -17.9134 -16.5471 -17.2561 -11.9595 -16.6014C192.931 -19.8423 374.2 20.1512 452.11 222.423L451.936 222.953C374.463 21.3176 194.294 -19.1633 -9.64048 -16.268C191.134 12.4764 367.91 42.6321 445.212 243.406L445.039 243.932C367.577 42.2352 189.754 12.6124 -11.9783 -16.2331C-18.6177 -16.1276 -25.2889 -15.965 -31.9757 -15.7748C-2.54991 -7.62504 26.4051 -0.326717 54.6578 6.7908C225.026 49.7257 369.857 86.2359 438.329 264.342L438.152 264.88C369.79 86.5992 224.958 50.0844 54.5657 7.14371C25.9478 -0.0677197 -3.39067 -7.46381 -33.2098 -15.7408C-40.0064 -15.541 -46.8167 -15.3131 -53.6548 -15.0333C-2.50516 5.5969 47.3433 21.2685 94.7016 36.1542C244.257 83.1658 368.96 122.399 431.436 285.316L431.261 285.848C368.878 122.755 244.172 83.5233 94.5919 36.5013C46.9992 21.5408 -3.10981 5.78786 -54.5287 -14.9962C-61.3681 -14.7126 -68.2321 -14.3804 -75.1078 -14.026C-8.28978 20.8824 56.4892 43.6768 116.645 64.8402C253.119 112.857 365.801 152.517 424.56 306.232L424.383 306.77C365.707 152.874 253.027 113.21 116.525 65.1841C56.1903 43.9574 -8.79239 21.0939 -75.8249 -13.9895C-82.7195 -13.6304 -89.6259 -13.249 -96.5524 -12.8264C-17.4261 37.4197 59.0744 66.0641 128.769 92.1575C256.492 139.978 361.359 179.252 417.682 327.159L417.508 327.689C361.264 179.6 256.394 140.329 128.645 92.5001C58.8082 66.3511 -17.8664 37.6407 -97.1693 -12.7897C-104.083 -12.3671 -111.013 -11.9064 -117.951 -11.4288C-28.6347 54.7867 57.6111 88.2091 134.925 118.157C256.572 165.278 356.118 203.861 410.8 348.095L410.624 348.627C356.016 204.209 256.469 165.627 134.797 118.496C57.3566 88.4999 -29.0398 55.0193 -118.509 -11.3923C-125.461 -10.9127 -132.42 -10.4159 -139.391 -9.89036C-41.2866 72.7373 53.4203 110.052 137.168 143.03C254.51 189.238 350.341 227.005 403.922 369.015L403.746 369.549C350.236 227.351 254.404 189.586 137.037 143.368C53.1802 110.345 -41.6635 72.977 -139.908 -9.85349C-146.884 -9.32725 -153.868 -8.77744 -160.858 -8.21451C-54.9534 91.1207 47.3147 131.602 136.696 166.97C250.973 212.19 344.186 249.103 397.046 389.929L396.87 390.465C344.076 249.45 250.863 212.537 136.565 167.31C47.0837 131.901 -55.3132 91.3681 -161.343 -8.17384C-168.34 -7.61088 -175.341 -7.03222 -182.344 -6.43851C-69.3753 109.809 39.8043 152.892 134.265 190.147C246.374 234.36 337.753 270.43 390.172 410.844L389.995 411.382C337.64 270.776 246.264 234.709 134.134 190.487C39.578 153.196 -69.7228 110.065 -182.812 -6.39857C-189.835 -5.80542 -196.86 -5.19721 -203.886 -4.58311C-84.3925 128.752 31.2202 173.945 130.365 212.686C240.981 255.91 331.105 291.156 383.298 431.754L383.121 432.293C330.991 291.502 240.871 256.257 130.236 213.027C30.9985 174.249 -84.7295 129.009 -204.335 -4.54327C-211.375 -3.92715 -218.415 -3.30449 -225.451 -2.67858C-99.8635 147.857 21.8049 194.793 125.342 234.699C234.983 276.96 324.291 311.413 376.424 452.665L376.246 453.205C324.175 311.759 234.87 277.309 125.211 235.042C21.5885 195.101 -100.193 148.119 -225.889 -2.63746C-231.66 -2.12421 -237.426 -1.6097 -243.188 -1.09388L-247.094 -0.744921C-115.734 167.132 11.7188 215.458 119.431 256.27C228.506 297.601 317.343 331.291 369.549 473.575L369.371 474.117C317.229 331.637 228.394 297.949 119.305 256.614C11.5063 215.767 -116.056 167.403 -247.523 -0.703211C-254.624 -0.0678678 -261.72 0.564829 -268.803 1.19292C-131.926 186.538 1.08688 235.962 112.817 277.471C221.649 317.903 310.291 350.861 362.674 494.487L362.496 495.03C310.173 351.206 221.539 318.25 112.693 277.813C0.880201 236.273 -132.243 186.806 -269.22 1.23003C-276.336 1.86021 -283.442 2.48314 -290.535 3.09688C-148.367 205.984 -9.97846 256.329 105.629 298.348C214.485 337.914 303.151 370.169 355.8 515.396L355.622 515.938C303.034 370.511 214.374 338.263 105.507 298.693C-10.1838 256.642 -148.68 206.255 -290.948 3.1333C-298.095 3.75118 -305.232 4.35723 -312.351 4.94752C-165.054 225.512 -21.4242 276.568 97.9687 318.954C204.143 356.649 291.158 387.565 344.588 524.732L344.152 524.588C290.756 387.808 203.86 356.934 97.8491 319.298C-21.6275 276.882 -165.365 225.789 -312.76 4.98264C-319.944 5.57975 -327.111 6.15849 -334.259 6.7175C-181.962 245.118 -33.1985 296.695 89.9141 339.324C189.285 373.732 271.947 402.38 326.294 518.717L325.825 518.563C271.52 402.618 188.991 374.017 89.7984 339.669C-33.3959 297.011 -182.269 245.396 -334.662 6.75062C-341.882 7.3139 -349.084 7.85742 -356.26 8.3721C-199.068 264.781 -45.2471 316.723 81.5284 359.489C173.204 390.416 250.74 416.597 305.208 511.785L304.691 511.615C250.28 416.825 172.893 390.693 81.4154 359.833C-45.4447 317.039 -199.376 265.063 -356.663 8.40062C-363.925 8.92219 -371.161 9.41491 -378.369 9.87804C-216.366 284.499 -57.5439 336.658 72.8609 379.473C155.358 406.559 226.486 429.93 279.871 503.456L279.27 503.258C225.963 430.145 155.014 406.829 72.7492 379.819C-57.7401 336.977 -216.671 284.784 -378.769 9.90524C-386.063 10.3707 -393.326 10.8046 -400.556 11.1992C-233.815 304.199 -70.0489 356.518 63.9509 399.3C134.455 421.81 196.717 441.711 246.853 492.598L246.081 492.345C196.074 441.885 134.046 422.061 63.8392 399.647C-70.2451 356.837 -234.118 304.48 -400.952 11.2192C-408.287 11.6188 -415.586 11.9777 -422.85 12.2939C-251.425 323.901 -82.7471 376.305 54.8299 418.989C105.67 434.762 152.26 449.232 193.181 474.953L191.727 474.476C151.137 449.257 105.01 434.937 54.722 419.336C-82.9394 376.625 -251.726 324.187 -423.243 12.3126C-430.629 12.6299 -437.977 12.8988 -445.282 13.1164C-338.682 213.213 -232.997 311.357 -134.871 367.105L-136.601 366.536C-234.362 310.597 -339.569 212.364 -445.678 13.1279C-485.635 14.3092 -524.317 13.9069 -561.081 10.9606C-562.9 11.0508 -564.716 11.1331 -566.526 11.2108L-566.403 10.8375C-565.571 10.8019 -564.736 10.765 -563.903 10.7274C-564.702 10.6608 -565.502 10.5917 -566.3 10.5231L-566.182 10.1655C-564.482 10.3152 -562.779 10.459 -561.07 10.5962C-526.367 8.88081 -490.11 4.78457 -452.814 -0.328566C-455.22 -4.94957 -457.629 -9.71705 -460.036 -14.4492C-496.406 -5.3759 -531.847 3.18397 -565.921 9.33244L-565.793 8.94143C-531.813 2.80319 -496.472 -5.72877 -460.214 -14.782C-462.801 -19.8653 -465.389 -25.0029 -467.977 -30.2084C-473.352 -28.2305 -478.709 -26.2534 -484.045 -24.2821C-511.36 -14.1939 -538.155 -4.29808 -564.248 4.2434L-564.109 3.81897C-538.093 -4.70453 -511.381 -14.5665 -484.147 -24.6251C-478.829 -26.589 -473.49 -28.5589 -468.135 -30.5302C-470.88 -36.055 -473.626 -41.5758 -476.372 -47.2378C-488.911 -41.0683 -501.359 -34.8056 -513.7 -28.595C-529.73 -20.5269 -545.576 -12.5531 -561.211 -4.99551L-561.057 -5.46511C-545.519 -12.9785 -529.771 -20.9041 -513.842 -28.9201C-501.505 -35.1281 -489.06 -41.3894 -476.525 -47.5583C-479.389 -53.4704 -482.254 -59.5244 -485.117 -65.5954C-502.396 -54.8332 -519.519 -43.674 -536.452 -32.6392C-543.126 -28.2907 -549.771 -23.9606 -556.383 -19.6811L-556.209 -20.2116C-549.712 -24.4161 -543.184 -28.6711 -536.629 -32.9432C-519.687 -43.9839 -502.556 -55.1451 -485.271 -65.9139C-488.267 -72.2656 -491.263 -78.7396 -494.26 -85.2659C-512.73 -71.2048 -531.046 -56.3791 -549.173 -41.6197L-548.971 -42.2328C-530.958 -56.8969 -512.76 -71.6219 -494.408 -85.591C-497.531 -92.394 -500.652 -99.292 -503.773 -106.286C-515.496 -95.6417 -527.168 -84.53 -538.781 -73.2223L-538.546 -73.9376C-527.06 -85.1126 -515.516 -96.0969 -503.921 -106.622C-507.162 -113.889 -510.403 -121.235 -513.645 -128.711C-517.214 -124.916 -520.779 -121.056 -524.342 -117.143L-524.077 -117.949C-520.654 -121.703 -517.226 -125.41 -513.796 -129.059C-515.051 -131.953 -516.305 -134.859 -517.558 -137.779L-517.391 -138.286C-516.104 -135.289 -514.819 -132.308 -513.532 -129.34C-508.847 -134.314 -504.157 -139.176 -499.461 -143.909C-502.499 -150.878 -505.533 -157.958 -508.569 -165.12L-508.402 -165.629C-505.332 -158.384 -502.263 -151.225 -499.194 -144.178C-494.497 -148.906 -489.793 -153.509 -485.082 -157.952C-488.87 -166.578 -492.656 -175.356 -496.44 -184.273C-499.492 -180.995 -502.541 -177.63 -505.589 -174.184L-505.315 -175.017C-502.408 -178.294 -499.5 -181.499 -496.589 -184.622C-497.632 -187.081 -498.676 -189.552 -499.721 -192.035L-499.553 -192.544C-498.477 -189.985 -497.402 -187.439 -496.328 -184.906C-491.822 -189.737 -487.31 -194.372 -482.792 -198.793C-485.549 -205.243 -488.306 -211.769 -491.062 -218.373L-490.894 -218.883C-488.103 -212.194 -485.313 -205.583 -482.521 -199.055C-477.993 -203.477 -473.461 -207.69 -468.92 -211.644C-473.112 -221.348 -477.303 -231.239 -481.49 -241.3C-482.482 -240.36 -483.476 -239.402 -484.468 -238.43L-484.232 -239.147C-483.367 -239.993 -482.501 -240.825 -481.636 -241.644L-482.627 -244.03L-482.458 -244.543L-481.361 -241.903C-476.928 -246.093 -472.488 -249.97 -468.041 -253.507C-470.181 -258.589 -472.318 -263.711 -474.457 -268.88L-474.289 -269.393C-472.112 -264.127 -469.934 -258.91 -467.755 -253.735C-463.257 -257.296 -458.75 -260.511 -454.237 -263.337C-458.364 -272.986 -462.485 -282.771 -466.606 -292.761L-466.437 -293.276C-462.273 -283.172 -458.104 -273.28 -453.934 -263.526C-449.357 -266.374 -444.771 -268.831 -440.177 -270.85C-444.488 -280.733 -448.796 -290.764 -453.101 -301.017C-457.341 -299.563 -461.571 -297.62 -465.792 -295.233L-465.624 -295.741C-461.504 -298.049 -457.377 -299.932 -453.24 -301.354C-455.202 -306.03 -457.162 -310.758 -459.122 -315.528L-458.952 -316.043C-456.937 -311.137 -454.923 -306.275 -452.908 -301.472C-448.085 -303.1 -443.251 -304.103 -438.402 -304.43C-442.002 -312.781 -445.596 -321.31 -449.191 -329.928C-450.824 -330.336 -452.456 -330.642 -454.085 -330.849L-453.963 -331.218C-452.434 -331.02 -450.903 -330.737 -449.37 -330.363C-450.277 -332.541 -451.187 -334.719 -452.094 -336.905L-451.927 -337.413Z" fill="#00CCFF"/>
</svg>
