<svg width="14" height="13" viewBox="0 0 14 13" fill="none" xmlns="http://www.w3.org/2000/svg">
<path d="M5.94333 1.3737L2.6825 3.50245C1.63708 4.18495 1.63708 5.71245 2.6825 6.39495L5.94333 8.5237C6.52833 8.90829 7.4925 8.90829 8.0775 8.5237L11.3221 6.39495C12.3621 5.71245 12.3621 4.19037 11.3221 3.50787L8.0775 1.37912C7.4925 0.989118 6.52833 0.989118 5.94333 1.3737Z" stroke="white" stroke-width="0.45" stroke-linecap="round" stroke-linejoin="round"/>
<path d="M3.54936 7.08594L3.54395 9.62635C3.54395 10.3143 4.07478 11.0509 4.72478 11.2676L6.4527 11.8418C6.75061 11.9393 7.24353 11.9393 7.54686 11.8418L9.27478 11.2676C9.92478 11.0509 10.4556 10.3143 10.4556 9.62635V7.11302" stroke="white" stroke-width="0.45" stroke-linecap="round" stroke-linejoin="round"/>
<path d="M12.0918 8.125V4.875" stroke="white" stroke-width="0.45" stroke-linecap="round" stroke-linejoin="round"/>
</svg>
