<svg width="16" height="17" viewBox="0 0 16 17" fill="none" xmlns="http://www.w3.org/2000/svg">
<path d="M5.34778 9.67488L10.66 12.7704M10.6522 4.23043L5.34778 7.32599M15 3.05599C15 4.34465 13.9553 5.38932 12.6667 5.38932C11.378 5.38932 10.3333 4.34465 10.3333 3.05599C10.3333 1.76733 11.378 0.722656 12.6667 0.722656C13.9553 0.722656 15 1.76733 15 3.05599ZM5.66667 8.50043C5.66667 9.7891 4.622 10.8338 3.33333 10.8338C2.04467 10.8338 1 9.7891 1 8.50043C1 7.21177 2.04467 6.1671 3.33333 6.1671C4.622 6.1671 5.66667 7.21177 5.66667 8.50043ZM15 13.9449C15 15.2335 13.9553 16.2782 12.6667 16.2782C11.378 16.2782 10.3333 15.2335 10.3333 13.9449C10.3333 12.6562 11.378 11.6115 12.6667 11.6115C13.9553 11.6115 15 12.6562 15 13.9449Z" stroke="white" stroke-width="0.7" stroke-linecap="round" stroke-linejoin="round"/>
</svg>
