<svg width="28" height="28" viewBox="0 0 28 28" fill="none" xmlns="http://www.w3.org/2000/svg">
<path d="M2.3335 11.6667V16.3334C2.3335 18.6667 3.50016 19.8334 5.8335 19.8334H7.50183C7.9335 19.8334 8.36516 19.9617 8.7385 20.1834L12.1452 22.3184C15.0852 24.1617 17.5002 22.8201 17.5002 19.3551V8.64508C17.5002 5.16841 15.0852 3.83841 12.1452 5.68175L8.7385 7.81675C8.36516 8.03841 7.9335 8.16675 7.50183 8.16675H5.8335C3.50016 8.16675 2.3335 9.33341 2.3335 11.6667Z" fill="white"/>
<path d="M21 9.33301C23.0767 12.098 23.0767 15.9013 21 18.6663" stroke="white" stroke-width="1.5" stroke-linecap="round" stroke-linejoin="round"/>
<path d="M23.1348 6.41699C26.5064 10.9087 26.5064 17.092 23.1348 21.5837" stroke="white" stroke-width="1.5" stroke-linecap="round" stroke-linejoin="round"/>
</svg>
